<svg xmlns="http://www.w3.org/2000/svg">
<defs>
<font id="PTSans-Regular" horiz-adv-x="536" >
  <font-face 
    font-family="PT Sans"
    font-weight="400"
    font-stretch="normal"
    units-per-em="1000"
    panose-1="2 11 5 3 2 2 3 2 2 4"
    ascent="770"
    descent="-230"
    x-height="500"
    cap-height="700"
    bbox="-355 -245 1093 993"
    underline-thickness="50"
    underline-position="-50"
    unicode-range="U+000D-U+FEFF"
  />
<missing-glyph horiz-adv-x="750" 
d="M50 700h650v-700h-650v700zM570 620l-195 -217l-195 217l-50 -50l197 -220l-197 -220l50 -50l195 217l195 -217l50 50l-198 220l198 220zM129 27h8v12h4c4 0 7.66699 0.833008 11 2.5s5 4.83398 5 9.50098c0 5.33301 -1.83301 8.66602 -5.5 9.99902s-7.5 2 -11.5 2h-11
v-36zM141 57c5.33301 0 8.00098 -1.66797 8.00098 -5.00098s-0.833008 -5.16602 -2.5 -5.49902s-3.83398 -0.5 -6.50098 -0.5h-3v11h4zM189.001 62.999h-31v-6h12v-30h7v30h12v6zM222.001 36.999c0 -2.66699 -2.33301 -4.00098 -7 -4.00098s-7.66699 0.666992 -9 2l-3 -7
c1.33301 0 3 -0.333008 5 -1s4.66699 -1 8 -1c9.33301 0 14 4 14 12c0 6 -3 9.33301 -9 10s-9 2.66699 -9 6c0 2 2 3 6 3c3.33301 0 6.33301 -0.666992 9 -2l2 7c-4 1.33301 -7.66699 2 -11 2c-9.33301 0 -14 -3.66699 -14 -11c0 -3.33301 1 -5.66602 3 -6.99902
s4 -2.5 6 -3.5s4 -1.83301 6 -2.5s3 -1.66699 3 -3zM237.001 46.998c2.66699 1.33301 5.66699 2.00195 9 2.00195s5 -1.33301 5 -4v-2c-0.666992 0 -1.33398 0.166992 -2.00098 0.5s-1.66699 0.5 -3 0.5c-8 0 -12 -3.33301 -12 -10c0 -5.33301 2.66699 -8 8 -8
c4 0 7 1.66699 9 5l2 -4h6c-0.666992 1.33301 -1 3.66602 -1 6.99902v11c0 6.66699 -3.33301 10 -10 10c-2.66699 0 -5.16699 -0.333008 -7.5 -1s-4.16602 -1.33398 -5.49902 -2.00098zM245.001 32c-2.66699 0 -4.00098 1.33301 -4.00098 4s1.66699 4 5 4
c1.33301 0 2.33301 -0.166992 3 -0.5s1.33398 -0.5 2.00098 -0.5v-3c-1.33301 -2.66699 -3.33301 -4 -6 -4zM292 27v16c0 8 -3 12 -9 12c-4.66699 0 -8 -1.66699 -10 -5l-2 4h-5v-27h7v17c1.33301 2.66699 3.33301 4 6 4c3.33301 0 5 -2 5 -6v-15h8zM297 28

<glyph glyph-name="fi" unicode="fi" horiz-adv-x="540" 
d="M462 500v-499.997h-80v430h-202v-430h-80v430h-78v70h78v28c0 62.667 15.5 108.167 46.5 136.5s76.5 42.5 136.5 42.5c39.333 0 74.333 -3.83301 105 -11.5s54.667 -16.834 72 -27.501l-27 -64c-18 11.333 -39.333 19.666 -64 24.999s-51 8 -79 8
c-24.667 0 -44.167 -2.83301 -58.5 -8.5s-25.333 -14.334 -33 -26.001s-12.667 -26.167 -15 -43.5s-3.5 -37 -3.5 -59h282z" />
    <glyph glyph-name="fl" unicode="fl" horiz-adv-x="583" 
d="M376 634c-10 2 -24.3291 3.83105 -42.9961 5.49805s-37 2.5 -55 2.5c-22.667 0 -40.5 -3.16699 -53.5 -9.5s-22.833 -15.666 -29.5 -27.999s-10.834 -27.333 -12.501 -45s-2.5 -37.5 -2.5 -59.5h103v-70h-103v-430h-80v430h-78v70h78v28c0 62.667 13.5 109 40.5 139
s72.167 45 135.5 45c13.333 0 28.333 -0.5 45 -1.5s33.5 -2.33301 50.5 -4s33 -3.5 48 -5.5s27.167 -4.33301 36.5 -7v-571c0 -23.333 4.16699 -40 12.5 -50s19.5 -15 33.5 -15c9.33301 0 19 0.666992 29 2s21.333 4.33301 34 9l8 -63
c-5.33301 -2.66699 -11.833 -5.16699 -19.5 -7.5s-15.834 -4.16602 -24.501 -5.49902s-17.334 -2.5 -26.001 -3.5s-16.334 -1.5 -23.001 -1.5c-30 0 -54.833 8.5 -74.5 25.5s-29.5 45.833 -29.5 86.5v534z" />
    <glyph glyph-name=".notdef" horiz-adv-x="750" 
d="M50 700h650v-700h-650v700zM570 620l-195 -217l-195 217l-50 -50l197 -220l-197 -220l50 -50l195 217l195 -217l50 50l-198 220l198 220zM129 27h8v12h4c4 0 7.66699 0.833008 11 2.5s5 4.83398 5 9.50098c0 5.33301 -1.83301 8.66602 -5.5 9.99902s-7.5 2 -11.5 2h-11
v-36zM141 57c5.33301 0 8.00098 -1.66797 8.00098 -5.00098s-0.833008 -5.16602 -2.5 -5.49902s-3.83398 -0.5 -6.50098 -0.5h-3v11h4zM189.001 62.999h-31v-6h12v-30h7v30h12v6zM222.001 36.999c0 -2.66699 -2.33301 -4.00098 -7 -4.00098s-7.66699 0.666992 -9 2l-3 -7
c1.33301 0 3 -0.333008 5 -1s4.66699 -1 8 -1c9.33301 0 14 4 14 12c0 6 -3 9.33301 -9 10s-9 2.66699 -9 6c0 2 2 3 6 3c3.33301 0 6.33301 -0.666992 9 -2l2 7c-4 1.33301 -7.66699 2 -11 2c-9.33301 0 -14 -3.66699 -14 -11c0 -3.33301 1 -5.66602 3 -6.99902
s4 -2.5 6 -3.5s4 -1.83301 6 -2.5s3 -1.66699 3 -3zM237.001 46.998c2.66699 1.33301 5.66699 2.00195 9 2.00195s5 -1.33301 5 -4v-2c-0.666992 0 -1.33398 0.166992 -2.00098 0.5s-1.66699 0.5 -3 0.5c-8 0 -12 -3.33301 -12 -10c0 -5.33301 2.66699 -8 8 -8
c4 0 7 1.66699 9 5l2 -4h6c-0.666992 1.33301 -1 3.66602 -1 6.99902v11c0 6.66699 -3.33301 10 -10 10c-2.66699 0 -5.16699 -0.333008 -7.5 -1s-4.16602 -1.33398 -5.49902 -2.00098zM245.001 32c-2.66699 0 -4.00098 1.33301 -4.00098 4s1.66699 4 5 4
c1.33301 0 2.33301 -0.166992 3 -0.5s1.33398 -0.5 2.00098 -0.5v-3c-1.33301 -2.66699 -3.33301 -4 -6 -4zM292 27v16c0 8 -3 12 -9 12c-4.66699 0 -8 -1.66699 -10 -5l-2 4h-5v-27h7v17c1.33301 2.66699 3.33301 4 6 4c3.33301 0 5 -2 5 -6v-15h8zM297 28
c2.66699 -1.33301 5.99902 -2 9.99902 -2c7.33301 0 11 3 11 9c0 3.33301 -0.833008 5.33301 -2.5 6s-3.5 1.66699 -5.5 3c-3.33301 1.33301 -5 2.33301 -5 3c0 1.33301 1 2 3 2c2.66699 0 5.33398 -0.666992 8.00098 -2l2 6c-2.66699 1.33301 -6 2 -10 2
c-6.66699 0 -10 -3 -10 -9c0 -3.33301 1 -5.5 3 -6.5l5 -2.5c3.33301 0 5 -1 5 -3c0 -1.33301 -1 -2 -3 -2c-3.33301 0 -6.33301 0.666992 -9 2zM337.999 42c0 -14 6.66699 -21 20 -21s20 7 20 21c0 13.333 -6.66699 20 -20 20c-5.33301 0 -10 -1.83301 -14 -5.5
s-6 -8.5 -6 -14.5zM343.999 42c0 10 4.66699 15 14 15s14 -5 14 -15s-4.66699 -15 -14 -15s-14 5 -14 15zM363.999 38c-1.33301 -0.666992 -2.66602 -1 -3.99902 -1c-2.66699 0 -4 1.66699 -4 5c0 2.66699 1.33301 4 4 4h3l2 4c-2.66699 1.33301 -5 2 -7 2
c-6 0 -9 -3.33301 -9 -10c0 -7.33301 3 -11 9 -11c3.33301 0 5.66602 0.666992 6.99902 2zM398.999 27h8v12h4c4 0 7.66699 0.833008 11 2.5s5 4.83398 5 9.50098c0 5.33301 -1.83301 8.66602 -5.5 9.99902s-7.5 2 -11.5 2h-11v-36zM410.999 57
c5.33301 0 8.00098 -1.66797 8.00098 -5.00098s-0.833008 -5.16602 -2.5 -5.49902s-3.83398 -0.5 -6.50098 -0.5h-3v11h4zM432 46.999c2.66699 1.33301 5.66699 2.00195 9 2.00195s5 -1.33301 5 -4v-2c-0.666992 0 -1.33398 0.166992 -2.00098 0.5s-1.66699 0.5 -3 0.5
c-8.66699 0 -13 -3.33301 -13 -10c0 -5.33301 3 -8 9 -8c4 0 7 1.66699 9 5l2 -4h6c-0.666992 1.33301 -1 3.66602 -1 6.99902v11c0 6.66699 -3.33301 10 -10 10c-2.66699 0 -5.16699 -0.333008 -7.5 -1s-4.16602 -1.33398 -5.49902 -2.00098zM440 32.001
c-2.66699 0 -4.00098 1.33301 -4.00098 4s1.66699 4 5 4c1.33301 0 2.33301 -0.166992 3 -0.5s1.33398 -0.5 2.00098 -0.5v-3c-1.33301 -2.66699 -3.33301 -4 -6 -4zM477.999 54.001c-0.666992 0.666992 -2 1 -4 1c-2.66699 0 -4.66699 -1.66699 -6 -5h-1l-1 4h-6v-27h8v17
c0 2.66699 2 4 6 4h1c0.666992 0 1 -0.166992 1 -0.5s0.333008 -0.5 1 -0.5zM482.999 47.001c4 1.33301 7.00098 2.00195 9.00098 2.00195c3.33301 0 5 -1.33301 5 -4v-2c-0.666992 0 -1.33398 0.166992 -2.00098 0.5s-1.66699 0.5 -3 0.5c-8.66699 0 -13 -3.33301 -13 -10
c0 -5.33301 3 -8 9 -8c4.66699 0 7.66699 1.66699 9 5h1l1 -4h6c-0.666992 1.33301 -1 3.66602 -1 6.99902v11c0 6.66699 -3.33301 10 -10 10c-2.66699 0 -5 -0.333008 -7 -1s-3.66699 -1.33398 -5 -2.00098zM491 32.0029c-2.66699 0 -4.00098 1.33301 -4.00098 4
s1.66699 4 5 4c1.33301 0 2.33301 -0.166992 3 -0.5s1.33398 -0.5 2.00098 -0.5v-3c-1.33301 -2.66699 -3.33301 -4 -6 -4zM532.999 63.0029h-31v-6h11v-30h8v30h12v6zM540.999 54.0029h-7.99805l12 -27c-0.666992 -3.33301 -2.33398 -5 -5.00098 -5l-1 1l-2 -6
c1.33301 -0.666992 3 -1 5 -1c3.33301 0 6.66602 4.33301 9.99902 13l10 25h-8l-5 -15v-5h-1l-1 5zM565.001 16.0029h7.99902v12c0.666992 -1.33301 2.33398 -2 5.00098 -2c9.33301 0 14 5 14 15c0 9.33301 -3.66699 14 -11 14c-3.33301 0 -6.33301 -1.33301 -9 -4h-1l-1 3
h-5v-38zM579 49.0029c3.33301 0 4.99902 -2.66699 4.99902 -8c0 -6 -2.33301 -9 -7 -9c-1.33301 0 -2.66602 0.666992 -3.99902 2v10c0 3.33301 2 5 6 5zM617.999 34.0029c-1.33301 -1.33301 -3.66699 -2.00098 -7 -2.00098c-4.66699 0 -7.33398 2 -8.00098 6h19v6
c0 4 -1.16699 6.83301 -3.5 8.5s-5.16602 2.5 -8.49902 2.5c-9.33301 0 -14 -5 -14 -15c0 -9.33301 4.66699 -14 14 -14c2 0 4 0.333008 6 1s3.66699 1.33398 5 2.00098zM609.998 49.002c4 0 5.66699 -2 5 -6h-11c0 4 2 6 6 6z" />
    <glyph glyph-name=".null" horiz-adv-x="0" 
 />
    <glyph glyph-name=".null" horiz-adv-x="0" 
 />
    <glyph glyph-name="uni000D" unicode="&#xd;" horiz-adv-x="267" 
 />
    <glyph glyph-name="space" unicode=" " horiz-adv-x="267" 
 />
    <glyph glyph-name="exclam" unicode="!" horiz-adv-x="305" 
d="M127 700h83v-347l-17 -176h-49l-17 176v347zM110 46c0 18 5.16699 32.167 15.5 42.5s24.166 15.5 41.499 15.5c18 0 32.333 -5.16699 43 -15.5s16 -24.5 16 -42.5c0 -17.333 -5.33301 -31.333 -16 -42s-25 -16 -43 -16c-17.333 0 -31.166 5.33301 -41.499 16
s-15.5 24.667 -15.5 42z" />
    <glyph glyph-name="quotedbl" unicode="&#x22;" horiz-adv-x="335" 
d="M207 700h78l-31 -193h-47v193zM90 700h78l-31 -193h-47v193z" />
    <glyph glyph-name="numbersign" unicode="#" horiz-adv-x="545" 
d="M280 225h-105l-39 -167h-69l39 167h-78l14 64h79l31 131h-74l14 64h75l38 158h69l-38 -158h105l38 158h69l-38 -158h77l-16 -64h-76l-31 -131h73l-16 -64h-72l-39 -167h-69zM190 289h105l31 131h-105z" />
    <glyph glyph-name="dollar" unicode="$" horiz-adv-x="545" 
d="M242 -12c-36.667 0.666992 -69.1699 3.83496 -97.5029 9.50195s-51.166 13.167 -68.499 22.5l27 73c13.333 -8 31.5 -15.333 54.5 -22s51.167 -10.334 84.5 -11.001v270c-20 10 -39.833 20.667 -59.5 32s-37.167 24.833 -52.5 40.5s-27.666 34.167 -36.999 55.5
s-14 46.666 -14 75.999c0 48 13.5 87.333 40.5 118s67.833 49.667 122.5 57v91h68v-88c34 -1.33301 61.833 -4.5 83.5 -9.5s41.167 -11.5 58.5 -19.5l-24 -70c-13.333 6.66699 -29.333 12.5 -48 17.5s-42 8.16699 -70 9.5v-247c20.667 -10.667 41.334 -22.167 62.001 -34.5
s39.167 -26.5 55.5 -42.5s29.5 -34.667 39.5 -56s15 -46.333 15 -75c0 -52 -14.5 -94.833 -43.5 -128.5s-71.833 -55.167 -128.5 -64.5v-92h-68v88zM398.997 178.001c0 16 -2.83301 30.333 -8.5 43s-13.167 24 -22.5 34s-20.333 19 -33 27s-26.334 15.667 -41.001 23v-243
c30.667 4.66699 55.834 16.5 75.501 35.5s29.5 45.833 29.5 80.5zM161.997 539.001c0 -28.667 9.16699 -52 27.5 -70s41.166 -34.333 68.499 -49v219c-35.333 -4 -60.166 -15.667 -74.499 -35s-21.5 -41 -21.5 -65z" />
    <glyph glyph-name="percent" unicode="%" horiz-adv-x="773" 
d="M70 542c0 30 4 55.667 12 77s18.833 39 32.5 53s30 24.167 49 30.5s39.5 9.5 61.5 9.5s42.5 -3 61.5 -9s35.333 -15.667 49 -29s24.5 -30.833 32.5 -52.5s12 -48.167 12 -79.5s-4 -57.833 -12 -79.5s-18.833 -39.167 -32.5 -52.5s-30 -23 -49 -29s-39.5 -9 -61.5 -9
s-42.5 3 -61.5 9s-35.333 15.667 -49 29s-24.5 30.833 -32.5 52.5s-12 48.167 -12 79.5zM144 542c0 -40 7.16699 -68.665 21.5 -85.998s34.166 -26 59.499 -26c12.667 0 24 1.83301 34 5.5s18.5 9.66699 25.5 18s12.333 19.666 16 33.999s5.5 32.5 5.5 54.5
s-1.83301 40.167 -5.5 54.5s-9 25.666 -16 33.999s-15.5 14.333 -25.5 18s-21.333 5.5 -34 5.5c-25.333 0 -45.166 -7.83301 -59.499 -23.5s-21.5 -45.167 -21.5 -88.5zM427 171.002c0 30 4 55.667 12 77s18.833 39 32.5 53s30 24.167 49 30.5s39.5 9.5 61.5 9.5
s42.5 -3 61.5 -9s35.333 -15.667 49 -29s24.5 -30.833 32.5 -52.5s12 -48.167 12 -79.5s-4 -57.833 -12 -79.5s-18.833 -39.167 -32.5 -52.5s-30 -23 -49 -29s-39.5 -9 -61.5 -9s-42.5 3 -61.5 9s-35.333 15.667 -49 29s-24.5 30.833 -32.5 52.5s-12 48.167 -12 79.5z
M501 171.002c0 -40 7.16699 -68.665 21.5 -85.998s34.166 -26 59.499 -26c12.667 0 24 1.83301 34 5.5s18.5 9.66699 25.5 18s12.333 19.666 16 33.999s5.5 32.5 5.5 54.5s-1.83301 40.167 -5.5 54.5s-9 25.666 -16 33.999s-15.5 14.333 -25.5 18s-21.333 5.5 -34 5.5
c-25.333 0 -45.166 -7.83301 -59.499 -23.5s-21.5 -45.167 -21.5 -88.5zM637 713.004l49 -38l-513 -687l-50 39z" />
    <glyph glyph-name="ampersand" unicode="&#x26;" horiz-adv-x="814" 
d="M118 187c0 26.667 4.66699 52.167 14 76.5s22 46.833 38 67.5s34.167 39.667 54.5 57s41.5 32.666 63.5 45.999c-16 24 -29.833 48 -41.5 72s-17.5 50 -17.5 78c0 16 2.66699 31.667 8 47s13.833 29 25.5 41s26.667 21.667 45 29s40.5 11 66.5 11
c27.333 0 50.333 -3.5 69 -10.5s33.667 -16.167 45 -27.5s19.5 -24 24.5 -38s7.5 -28.333 7.5 -43c0 -28 -10.833 -56.833 -32.5 -86.5s-55.834 -58.167 -102.501 -85.5c10.667 -19.333 23.167 -39.166 37.5 -59.499s29.5 -40.5 45.5 -60.5l49 -59.5
c16.667 -19.667 33.334 -37.834 50.001 -54.501c7.33301 8 14.666 18.167 21.999 30.5s14.5 25.333 21.5 39s13.333 27.834 19 42.501s10.834 28.667 15.501 42l62 -29c-4 -11.333 -9.66699 -24.833 -17 -40.5s-15.5 -31.667 -24.5 -48s-18.167 -32 -27.5 -47
s-18 -27.5 -26 -37.5c14 -13.333 26.667 -24.833 38 -34.5s21.833 -18 31.5 -25s19 -13.333 28 -19l27.5 -16.5l-50 -56c-35.333 17.333 -75.666 48.333 -120.999 93c-12 -12 -25.167 -23.5 -39.5 -34.5s-30.5 -20.833 -48.5 -29.5s-37.833 -15.667 -59.5 -21
s-45.5 -8 -71.5 -8c-31.333 0 -60.833 4.33301 -88.5 13s-51.834 21.5 -72.501 38.5s-37.167 37.833 -49.5 62.5s-18.5 53 -18.5 85zM519 131c-19.333 19.333 -38.333 40.332 -57 62.999l-53.5 68c-17 22.667 -32.667 44.5 -47 65.5s-26.5 39.5 -36.5 55.5
c-18 -13.333 -34.667 -27 -50 -41s-28.833 -28.833 -40.5 -44.5s-20.667 -32.5 -27 -50.5s-9.5 -37.333 -9.5 -58s4.33301 -39.167 13 -55.5s20.5 -30 35.5 -41s32.167 -19.5 51.5 -25.5s39.666 -9 60.999 -9c16.667 0 32.834 2.16699 48.501 6.5s30.5 9.83301 44.5 16.5
s26.833 14.334 38.5 23.001s21.167 17.667 28.5 27zM307 583.999c0 -20 4.16699 -39.833 12.5 -59.5s19.166 -39.167 32.499 -58.5c35.333 22.667 59.833 43.334 73.5 62.001s20.5 35 20.5 49c0 21.333 -5.16699 38.666 -15.5 51.999s-28.166 20 -53.499 20
c-24 0 -41.667 -6 -53 -18s-17 -27.667 -17 -47z" />
    <glyph glyph-name="quotesingle" unicode="'" horiz-adv-x="218" 
d="M90 700h78l-31 -193h-47v193z" />
    <glyph glyph-name="parenleft" unicode="(" horiz-adv-x="280" 
d="M227 -220c-30.667 32 -56.666 67.167 -77.999 105.5s-38.5 77.666 -51.5 117.999s-22.5 81 -28.5 122s-9 80.167 -9 117.5c0 36.667 3 75.334 9 116.001s15.667 81.5 29 122.5s30.833 81.167 52.5 120.5s48.167 76 79.5 110l48 -35
c-26.667 -34 -48.834 -69.167 -66.501 -105.5s-31.834 -73.166 -42.501 -110.499s-18.167 -74.5 -22.5 -111.5s-6.5 -72.5 -6.5 -106.5c0 -32 2.5 -66.833 7.5 -104.5s13 -75.334 24 -113.001s25.333 -74.5 43 -110.5s38.834 -68.667 63.501 -98z" />
    <glyph glyph-name="parenright" unicode=")" horiz-adv-x="280" 
d="M53 712c30.667 -32 56.668 -67.167 78.001 -105.5s38.5 -77.666 51.5 -117.999s22.5 -81 28.5 -122s9 -80.167 9 -117.5c0 -36.667 -3 -75.334 -9 -116.001s-15.667 -81.5 -29 -122.5s-30.833 -81.167 -52.5 -120.5s-48.167 -76 -79.5 -110l-48 35
c26.667 34 49 69.333 67 106s32.167 73.667 42.5 111s17.666 74.333 21.999 111s6.5 72 6.5 106c0 32 -2.66699 66.667 -8 104s-13.5 75 -24.5 113s-25.167 75 -42.5 111s-38.333 68.667 -63 98z" />
    <glyph glyph-name="asterisk" unicode="*" horiz-adv-x="351" 
d="M130 715l25 -42l18 -56l21 57l24 40l48 -26l-26 -43l-46 -48l68 12h48v-56h-46l-64 12l46 -48l23 -39l-47 -28l-26 42l-23 61l-19 -58l-25 -42l-50 28l27 42l42 42l-58 -12h-50v56h50l62 -12l-45 44l-26 46z" />
    <glyph glyph-name="plus" unicode="+" horiz-adv-x="505" 
d="M40 374h176v181h72v-181h176v-72h-176v-180h-72v180h-176v72z" />
    <glyph glyph-name="comma" unicode="," horiz-adv-x="225" 
d="M49 43c0 16 5.33496 29 16.002 39s24.334 15 41.001 15c20.667 0 37.5 -7.33301 50.5 -22s19.5 -36 19.5 -64c0 -24 -3.33301 -45 -10 -63s-15.334 -33.5 -26.001 -46.5s-22.334 -23.667 -35.001 -32s-25.334 -14.5 -38.001 -18.5l-25 39
c24 9.33301 41.833 23.833 53.5 43.5s17.5 39.5 17.5 59.5c-6 -2 -11.667 -3 -17 -3c-13.333 0 -24.5 4.5 -33.5 13.5s-13.5 22.167 -13.5 39.5z" />
    <glyph glyph-name="hyphen" unicode="-" horiz-adv-x="360" 
d="M59 325h242v-74h-242v74z" />
    <glyph glyph-name="period" unicode="." horiz-adv-x="214" 
d="M49 46c0 18 5.16699 32.167 15.5 42.5s24.166 15.5 41.499 15.5c18 0 32.333 -5.16699 43 -15.5s16 -24.5 16 -42.5c0 -17.333 -5.33301 -31.333 -16 -42s-25 -16 -43 -16c-17.333 0 -31.166 5.33301 -41.499 16s-15.5 24.667 -15.5 42z" />
    <glyph glyph-name="slash" unicode="/" horiz-adv-x="354" 
d="M328 712l63 -28l-365 -824l-63 28z" />
    <glyph glyph-name="zero" unicode="0" horiz-adv-x="545" 
d="M43 350c0 120 19.5 210.333 58.5 271s95.833 91 170.5 91c80.667 0 139.167 -29.833 175.5 -89.5s54.5 -150.5 54.5 -272.5c0 -120 -19.5 -210.333 -58.5 -271s-96.167 -91 -171.5 -91c-79.333 0 -137.333 31.667 -174 95s-55 152.333 -55 267zM126 350
c0 -43.333 2.83398 -82.832 8.50098 -118.499s14.5 -66.334 26.5 -92.001s27.167 -45.667 45.5 -60s40.166 -21.5 65.499 -21.5c50.667 0 87.834 23.5 111.501 70.5s35.5 120.833 35.5 221.5c0 42.667 -2.5 82 -7.5 118s-13.333 67 -25 93s-26.834 46 -45.501 60
s-41.667 21 -69 21c-50 0 -86.833 -23.667 -110.5 -71s-35.5 -121 -35.5 -221z" />
    <glyph glyph-name="one" unicode="1" horiz-adv-x="545" 
d="M108 74h140v484l10 59l-40 -47l-110 -79l-38 51l220 170h36v-638h137v-74h-355v74z" />
    <glyph glyph-name="two" unicode="2" horiz-adv-x="545" 
d="M446 541c0 -35.333 -6.50195 -71.5039 -19.502 -108.504s-30 -74.167 -51 -111.5s-44.5 -73.833 -70.5 -109.5s-52 -69.5 -78 -101.5l-49 -43v-4l64 11h218v-74h-398v29l53 57c20.667 22.667 42.167 47.834 64.5 75.501s44.333 57 66 88s41.334 62.5 59.001 94.5
s31.834 63.667 42.501 95s16 61 16 89c0 32.667 -9.33301 59.834 -28 81.501s-47 32.5 -85 32.5c-25.333 0 -50 -5.16699 -74 -15.5s-44.667 -22.166 -62 -35.499l-33 57c23.333 20 51 35.667 83 47s66.333 17 103 17c28.667 0 54 -4.16699 76 -12.5
s40.667 -20.166 56 -35.499s27 -33.5 35 -54.5s12 -43.833 12 -68.5z" />
    <glyph glyph-name="three" unicode="3" horiz-adv-x="545" 
d="M234 58c22.667 0 43.667 3.33203 63 9.99902s36 16.5 50 29.5s25 28.5 33 46.5s12 37.667 12 59c0 46.667 -13.833 81.334 -41.5 104.001s-65.834 34 -114.501 34h-74v29l144 222l46 44l-65 -10h-198v74h357v-29l-159 -239l-35 -29v-2l34 7
c26.667 -0.666992 51.334 -5.5 74.001 -14.5s42.334 -22 59.001 -39s29.667 -37.333 39 -61s14 -50.5 14 -80.5c0 -36 -6.33301 -68 -19 -96s-29.834 -51.5 -51.501 -70.5s-47.167 -33.5 -76.5 -43.5s-60.333 -15 -93 -15c-30 0 -57 2.33301 -81 7s-45 10.667 -63 18l21 71
c15.333 -7.33301 33.5 -13.5 54.5 -18.5s44.5 -7.5 70.5 -7.5z" />
    <glyph glyph-name="four" unicode="4" horiz-adv-x="545" 
d="M524 215h-118v-215h-78v215h-308v33l332 463h54v-426h118v-70zM328 503l10 82h-3l-35 -68l-141 -191l-48 -49l70 8h147v218z" />
    <glyph glyph-name="five" unicode="5" horiz-adv-x="545" 
d="M213 58c46 0 84 13.332 114 39.999s45 65.334 45 116.001c0 48.667 -14.833 85 -44.5 109s-70.5 36 -122.5 36l-84 -5v346h312v-74h-237v-199l43 2c66 -0.666992 118 -19 156 -55s57 -87.667 57 -155c0 -37.333 -6.33301 -70.5 -19 -99.5s-29.834 -53.167 -51.501 -72.5
s-47.167 -34 -76.5 -44s-60.666 -15 -93.999 -15c-30 0 -55.333 1.66699 -76 5s-40 8.33301 -58 15l21 68c15.333 -6 31.833 -10.5 49.5 -13.5s39.5 -4.5 65.5 -4.5z" />
    <glyph glyph-name="six" unicode="6" horiz-adv-x="545" 
d="M492 211c0 -30.667 -4.66895 -59.5 -14.002 -86.5s-23 -50.667 -41 -71s-40.333 -36.333 -67 -48s-57 -17.5 -91 -17.5c-33.333 0 -63.333 5.33301 -90 16s-49.667 26.5 -69 47.5s-34.166 46.833 -44.499 77.5s-15.5 66 -15.5 106c0 66 8.5 126.833 25.5 182.5
s40.5 104.167 70.5 145.5s65.5 74.833 106.5 100.5s85.5 41.834 133.5 48.501l17 -64c-37.333 -6.66699 -71.333 -19.334 -102 -38.001s-57.5 -41.667 -80.5 -69s-41.833 -58 -56.5 -92s-24.667 -69 -30 -105c10.667 18 28.667 34.5 54 49.5s56.333 22.5 93 22.5
c62.667 0 111.834 -18 147.501 -54s53.5 -86.333 53.5 -151zM408.998 203c0 47.333 -10.998 83.001 -32.998 107.001s-56 36 -102 36c-32.667 0 -60.834 -8 -84.501 -24s-40.167 -34 -49.5 -54c-1.33301 -9.33301 -2 -17 -2 -23v-20c0 -20.667 2.83301 -41 8.5 -61
s14.5 -37.833 26.5 -53.5s26.833 -28.334 44.5 -38.001s38.5 -14.5 62.5 -14.5c19.333 0 36.833 3.66699 52.5 11s29.167 17.333 40.5 30s20.166 28 26.499 46s9.5 37.333 9.5 58z" />
    <glyph glyph-name="seven" unicode="7" horiz-adv-x="545" 
d="M110 0l251 586l44 49l-59 -9h-285v74h418v-27l-288 -673h-81z" />
    <glyph glyph-name="eight" unicode="8" horiz-adv-x="545" 
d="M68 167c0 42 10.9961 78.5 32.9961 109.5s56.333 59.167 103 84.5c-16.667 10 -32.167 20.5 -46.5 31.5s-27 23.5 -38 37.5s-19.667 29.667 -26 47s-9.5 37.333 -9.5 60c0 26 4.5 49.667 13.5 71s22 39.666 39 54.999s37.333 27.333 61 36s50.5 13 80.5 13
c28 0 53.333 -4 76 -12s41.834 -19 57.501 -33s27.834 -30.667 36.501 -50s13 -40.666 13 -63.999c0 -38 -8.66699 -71.5 -26 -100.5s-46 -57.5 -86 -85.5c17.333 -10 33.833 -21 49.5 -33s29.334 -25.333 41.001 -40s20.834 -31.167 27.501 -49.5s10 -39.166 10 -62.499
c0 -28.667 -4.66699 -54.834 -14 -78.501s-23 -44 -41 -61s-40 -30.333 -66 -40s-55.667 -14.5 -89 -14.5c-32 0 -60.333 4.66699 -85 14s-45.5 22 -62.5 38s-29.833 34.833 -38.5 56.5s-13 45.167 -13 70.5zM398.996 177c0 20 -4.00195 37.501 -12.002 52.501
s-18.5 28.667 -31.5 41s-27.833 23.5 -44.5 33.5s-34 19.667 -52 29c-40.667 -22.667 -69.667 -48 -87 -76s-26 -54.667 -26 -80c0 -16 2.66699 -31.333 8 -46s13.333 -27.334 24 -38.001s23.834 -19.167 39.501 -25.5s33.834 -9.5 54.501 -9.5c16.667 0 32.667 2.5 48 7.5
s28.833 12.333 40.5 22s21 22 28 37s10.5 32.5 10.5 52.5zM161.994 539.001c0 -18.667 3.66797 -35.1689 11.001 -49.502s17.166 -27.166 29.499 -38.499s26.5 -21.833 42.5 -31.5s32.667 -18.834 50 -27.501c30 23.333 52.167 46.333 66.5 69s21.5 47.667 21.5 75
c0 34 -10.5 60.167 -31.5 78.5s-46.167 27.5 -75.5 27.5c-18 0 -34 -3 -48 -9s-26 -13.667 -36 -23s-17.5 -20.166 -22.5 -32.499s-7.5 -25.166 -7.5 -38.499z" />
    <glyph glyph-name="nine" unicode="9" horiz-adv-x="545" 
d="M52 488c0 32 4.66699 61.668 14 89.001s23 51 41 71s40.5 35.667 67.5 47s58.5 17 94.5 17c68 0 121 -22 159 -66s57 -106 57 -186c0 -75.333 -8.5 -141.166 -25.5 -197.499s-40.5 -103.833 -70.5 -142.5s-65.5 -68.834 -106.5 -90.501s-85.5 -35.5 -133.5 -41.5l-18 64
c38.667 6 73.5 17.333 104.5 34s57.667 37.667 80 63s40.5 54.166 54.5 86.499s23.667 67.5 29 105.5c-18 -21.333 -37.833 -36.166 -59.5 -44.499s-50.167 -12.5 -85.5 -12.5c-27.333 0 -53.166 4.5 -77.499 13.5s-45.833 22.167 -64.5 39.5s-33.334 38.666 -44.001 63.999
s-16 54.333 -16 87zM135 496.001c0 -47.333 12.5 -82.834 37.5 -106.501s57.833 -35.5 98.5 -35.5c32.667 0 60.667 5.33301 84 16s40 24.667 50 42c1.33301 8.66699 2 16.334 2 23.001v21c0 24 -2.83301 47.167 -8.5 69.5s-14.167 42.333 -25.5 60
s-26.166 31.5 -44.499 41.5s-39.833 15 -64.5 15c-40.667 0 -72.334 -12.833 -95.001 -38.5s-34 -61.5 -34 -107.5z" />
    <glyph glyph-name="colon" unicode=":" horiz-adv-x="219" 
d="M91 449c0 18 5.16699 32.167 15.5 42.5s24.166 15.5 41.499 15.5c18 0 32.333 -5.16699 43 -15.5s16 -24.5 16 -42.5c0 -17.333 -5.33301 -31.333 -16 -42s-25 -16 -43 -16c-17.333 0 -31.166 5.33301 -41.499 16s-15.5 24.667 -15.5 42zM91 46
c0 18 5.16699 32.167 15.5 42.5s24.166 15.5 41.499 15.5c18 0 32.333 -5.16699 43 -15.5s16 -24.5 16 -42.5c0 -17.333 -5.33301 -31.333 -16 -42s-25 -16 -43 -16c-17.333 0 -31.166 5.33301 -41.499 16s-15.5 24.667 -15.5 42z" />
    <glyph glyph-name="semicolon" unicode=";" horiz-adv-x="256" 
d="M89 43c0 16 5.33496 29 16.002 39s24.334 15 41.001 15c20.667 0 37.5 -7.33301 50.5 -22s19.5 -36 19.5 -64c0 -24 -3.33301 -45 -10 -63s-15.334 -33.5 -26.001 -46.5s-22.334 -23.667 -35.001 -32s-25.334 -14.5 -38.001 -18.5l-25 39
c24 9.33301 41.833 23.833 53.5 43.5s17.5 39.5 17.5 59.5c-6 -2 -11.667 -3 -17 -3c-13.333 0 -24.5 4.5 -33.5 13.5s-13.5 22.167 -13.5 39.5zM96.002 449c0 18 5.16699 32.167 15.5 42.5s24.166 15.5 41.499 15.5c18 0 32.333 -5.16699 43 -15.5s16 -24.5 16 -42.5
c0 -17.333 -5.33301 -31.333 -16 -42s-25 -16 -43 -16c-17.333 0 -31.166 5.33301 -41.499 16s-15.5 24.667 -15.5 42z" />
    <glyph glyph-name="less" unicode="&#x3c;" horiz-adv-x="505" 
d="M42 305v29l378 231l38 -62l-237 -145l-91 -38l90 -32l243 -144l-38 -60z" />
    <glyph glyph-name="equal" unicode="=" horiz-adv-x="505" 
d="M40 457h424v-72h-424v72zM40 291h424v-72h-424v72z" />
    <glyph glyph-name="greater" unicode="&#x3e;" horiz-adv-x="505" 
d="M463 344v-29l-378 -231l-38 61l237 145l91 38l-90 32l-243 144l38 61z" />
    <glyph glyph-name="question" unicode="?" horiz-adv-x="436" 
d="M150 177c-0.666992 3.33301 -0.993164 6.99707 -0.993164 10.9971v11c0 28 4.16699 52.667 12.5 74s18.666 40.833 30.999 58.5s25.666 34.167 39.999 49.5s27.666 30.833 39.999 46.5s22.666 32.334 30.999 50.001s12.5 37.834 12.5 60.501
c0 30.667 -8.83301 55.667 -26.5 75s-47.167 29 -88.5 29c-24 0 -48.333 -4.16699 -73 -12.5s-46 -18.166 -64 -29.499l-27 62c25.333 15.333 52 27.5 80 36.5s62.667 13.5 104 13.5c29.333 0 55.166 -4.16699 77.499 -12.5s41 -19.833 56 -34.5s26.167 -32 33.5 -52
s11 -41.333 11 -64c0 -30 -4.5 -56.167 -13.5 -78.5s-20.333 -42.666 -34 -60.999s-28.334 -35.5 -44.001 -51.5s-30.334 -32.833 -44.001 -50.5s-25 -36.834 -34 -57.501s-13.5 -45 -13.5 -73h-66zM130.007 45.9971c0 18 5.16699 32.167 15.5 42.5s24.166 15.5 41.499 15.5
c18 0 32.333 -5.16699 43 -15.5s16 -24.5 16 -42.5c0 -17.333 -5.33301 -31.333 -16 -42s-25 -16 -43 -16c-17.333 0 -31.166 5.33301 -41.499 16s-15.5 24.667 -15.5 42z" />
    <glyph glyph-name="at" unicode="@" horiz-adv-x="1064" 
d="M707 491l33.9941 0.00488281l-51 -287c-3.33301 -17.333 -5.83301 -32.833 -7.5 -46.5s-2.5 -25.834 -2.5 -36.501c0 -16.667 2.83301 -28.834 8.5 -36.501s15.5 -11.5 29.5 -11.5c22.667 0 45.167 6 67.5 18s42.166 29 59.499 51s31.5 48.5 42.5 79.5
s16.5 65.833 16.5 104.5c0 51.333 -8.66699 96.666 -26 135.999s-41.666 72.5 -72.999 99.5s-68.666 47.5 -111.999 61.5s-91 21 -143 21c-54 0 -104.833 -10 -152.5 -30s-89 -47.667 -124 -83s-62.667 -77.666 -83 -126.999s-30.5 -103 -30.5 -161
c0 -59.333 9.16699 -112.333 27.5 -159s44.5 -86 78.5 -118s74.667 -56.333 122 -73s100 -25 158 -25c19.333 0 41.333 2.16699 66 6.5s47 11.5 67 21.5l20 -64c-30 -12.667 -57.667 -21.167 -83 -25.5s-52.666 -6.5 -81.999 -6.5c-62 0 -120.167 9.33301 -174.5 28
s-101.666 46.334 -141.999 83.001s-72.166 82.167 -95.499 136.5s-35 117.166 -35 188.499c0 72.667 12.5 138.334 37.5 197.001s58.833 108.667 101.5 150s92.334 73.166 149.001 95.499s116.667 33.5 180 33.5c60 0 115.667 -8.83301 167 -26.5s95.833 -43 133.5 -76
s67.334 -73.333 89.001 -121s32.5 -101.834 32.5 -162.501c0 -42.667 -7.33301 -83.5 -22 -122.5s-34.5 -73.167 -59.5 -102.5s-54.167 -52.833 -87.5 -70.5s-68.666 -26.5 -105.999 -26.5c-28 0 -50.333 6 -67 18s-25 34.333 -25 67c0 6 0.333008 12.5 1 19.5
s1.66699 14.5 3 22.5h-4c-9.33301 -15.333 -20.333 -30.5 -33 -45.5s-26.834 -28.5 -42.501 -40.5s-32.334 -21.833 -50.001 -29.5s-36.167 -11.5 -55.5 -11.5c-16 0 -31.333 3.5 -46 10.5s-27.334 17.167 -38.001 30.5s-19.167 29.166 -25.5 47.499
s-9.5 39.166 -9.5 62.499c0 42.667 7 84.667 21 126s32.833 78 56.5 110s51.334 57.833 83.001 77.5s65.167 29.5 100.5 29.5c24.667 0 44.334 -3.66699 59.001 -11s29 -16.333 43 -27zM649.994 393.005c-11.333 13.333 -22.667 22.5 -34 27.5s-25.666 7.5 -42.999 7.5
c-26 0 -50.333 -7.83301 -73 -23.5s-42.167 -36 -58.5 -61s-29.333 -53 -39 -84s-14.5 -61.5 -14.5 -91.5c0 -26 5.33301 -48.167 16 -66.5s30 -27.5 58 -27.5c13.333 0 27.166 4.33301 41.499 13s28.5 20.5 42.5 35.5s27.333 31.833 40 50.5s24 37.667 34 57z" />
    <glyph glyph-name="A" unicode="A" horiz-adv-x="585" 
d="M418 194h-258l-70 -194h-82l265 711h38l266 -711h-87zM187 266h206l-78 213l-25 106h-1l-25 -108z" />
    <glyph glyph-name="B" unicode="B" horiz-adv-x="584" 
d="M507 540c0 -16.667 -2.66602 -33.668 -7.99902 -51.001s-13.333 -33.5 -24 -48.5s-24.334 -28.167 -41.001 -39.5s-36.334 -20 -59.001 -26v-4c20 -3.33301 39.167 -9 57.5 -17s34.5 -19 48.5 -33s25.333 -31 34 -51s13 -43.667 13 -71c0 -36 -7.5 -67.167 -22.5 -93.5
s-34.667 -47.833 -59 -64.5s-52.166 -29 -83.499 -37s-63.333 -12 -96 -12h-40c-15.333 0 -31.333 0.5 -48 1.5s-33.334 2.33301 -50.001 4s-31.334 4.16699 -44.001 7.5v689c24.667 4 53.334 7.33301 86.001 10s68.334 4 107.001 4c26 0 52.5 -2.16699 79.5 -6.5
s51.5 -12.666 73.5 -24.999s40.167 -29.5 54.5 -51.5s21.5 -50.333 21.5 -85zM275.001 63.999c21.333 0 41.999 2.50195 61.999 7.50195s37.667 13 53 24s27.5 24.5 36.5 40.5s13.5 35 13.5 57c0 27.333 -5.5 49.333 -16.5 66s-25.333 29.667 -43 39
s-37.5 15.666 -59.5 18.999s-44 5 -66 5h-87v-251c4.66699 -1.33301 11.334 -2.33301 20.001 -3s18 -1.33398 28 -2.00098s20.333 -1.16699 31 -1.5s20 -0.5 28 -0.5zM220 392.001c11.333 0 24.999 0.332031 40.999 0.999023s29.333 1.66699 40 3
c16 5.33301 31 11.833 45 19.5s26.5 16.667 37.5 27s19.667 22.333 26 36s9.5 28.5 9.5 44.5c0 22 -4.16699 40.167 -12.5 54.5s-19.5 25.833 -33.5 34.5s-30 14.834 -48 18.501s-36.333 5.5 -55 5.5c-22 0 -42.167 -0.5 -60.5 -1.5s-32.166 -2.5 -41.499 -4.5v-238h52z" />
    <glyph glyph-name="C" unicode="C" horiz-adv-x="571" 
d="M533 29c-20 -15.333 -45.3301 -26 -75.9971 -32s-63.334 -9 -98.001 -9c-42 0 -81.333 7.16699 -118 21.5s-68.667 36.166 -96 65.499s-49 66.833 -65 112.5s-24 99.834 -24 162.501c0 65.333 8.83301 120.833 26.5 166.5s41 83 70 112s61.5 50.167 97.5 63.5
s72.667 20 110 20c40 0 72.667 -2.16699 98 -6.5s47 -10.166 65 -17.499l-20 -73c-32 15.333 -77.667 23 -137 23c-27.333 0 -54.333 -5 -81 -15s-50.5 -26.333 -71.5 -49s-37.833 -52.334 -50.5 -89.001s-19 -81.667 -19 -135c0 -48 6 -90 18 -126s28.5 -66 49.5 -90
s45.667 -42 74 -54s59.166 -18 92.499 -18c30 0 56.167 3 78.5 9s41.166 13.667 56.499 23z" />
    <glyph glyph-name="D" unicode="D" horiz-adv-x="654" 
d="M85 700c12.667 2 26.835 3.50098 42.502 4.50098s32 1.66699 49 2l50 1c16.333 0.333008 31.5 0.5 45.5 0.5c56 0 104.5 -8.66699 145.5 -26s74.833 -41.5 101.5 -72.5s46.5 -68.167 59.5 -111.5s19.5 -91 19.5 -143c0 -47.333 -6.16699 -92.833 -18.5 -136.5
s-31.833 -82.334 -58.5 -116.001s-61.334 -60.667 -104.001 -81s-94.334 -30.5 -155.001 -30.5c-10.667 0 -24.5 0.166992 -41.5 0.5s-34.5 1 -52.5 2s-34.667 1.83301 -50 2.5s-26.333 1.66699 -33 3v701zM274.001 634.001l-28.499 0.00195312
c-10.333 0 -20.5 -0.333008 -30.5 -1s-19.167 -1.33398 -27.5 -2.00098s-14.833 -1.33398 -19.5 -2.00098v-560c3.33301 -0.666992 9.66602 -1.16699 18.999 -1.5l29 -1l29 -1c9.33301 -0.333008 15.666 -0.5 18.999 -0.5c46.667 0 85.834 8 117.501 24s57 37.5 76 64.5
s32.5 58 40.5 93s12 71.167 12 108.5c0 32.667 -3.66699 65.5 -11 98.5s-20 62.833 -38 89.5s-42.167 48.5 -72.5 65.5s-68.5 25.5 -114.5 25.5z" />
    <glyph glyph-name="E" unicode="E" 
d="M85 700h381v-74h-298v-229h273v-74h-273v-249h303v-74h-386v700z" />
    <glyph glyph-name="F" unicode="F" horiz-adv-x="517" 
d="M85 700h381v-74h-298v-239h278v-74h-278v-313h-83v700z" />
    <glyph glyph-name="G" unicode="G" horiz-adv-x="612" 
d="M321 349l234.999 0.00195312v-308c-10.667 -8 -23.5 -15.333 -38.5 -22s-31 -12.334 -48 -17.001s-34.667 -8.16699 -53 -10.5s-36.166 -3.5 -53.499 -3.5c-44.667 0 -85.667 7.16699 -123 21.5s-69.666 36.333 -96.999 66s-48.666 67.334 -63.999 113.001
s-23 99.5 -23 161.5c0 64.667 9.33301 120 28 166s43 83.5 73 112.5s63.667 50.167 101 63.5s74.666 20 111.999 20c40 0 73 -2.16699 99 -6.5s48 -10.166 66 -17.499l-21 -73c-32 15.333 -77.667 23 -137 23c-28 0 -55.833 -4.83301 -83.5 -14.5
s-52.5 -25.834 -74.5 -48.501s-40 -52.334 -54 -89.001s-21 -82 -21 -136c0 -49.333 5.66699 -92 17 -128s27.166 -65.833 47.499 -89.5s44.833 -41.334 73.5 -53.001s60 -17.5 94 -17.5c42.667 0 79 8.33301 109 25v195l-164 20v47z" />
    <glyph glyph-name="H" unicode="H" horiz-adv-x="672" 
d="M504 321h-336v-321h-83v700h83v-305h336v305h83v-700h-83v321z" />
    <glyph glyph-name="I" unicode="I" horiz-adv-x="291" 
d="M104 700h83v-700h-83v700z" />
    <glyph glyph-name="J" unicode="J" horiz-adv-x="291" 
d="M112 700h83.001v-546c0 -53.333 -11.833 -94 -35.5 -122s-59.5 -42 -107.5 -42c-5.33301 0 -12 0.333008 -20 1s-16 1.66699 -24 3s-15.833 3 -23.5 5s-13.834 4.33301 -18.501 7l16 71c18.667 -8.66699 39 -13 61 -13c28 0 46.5 9.83301 55.5 29.5s13.5 46.5 13.5 80.5
v526z" />
    <glyph glyph-name="K" unicode="K" horiz-adv-x="610" 
d="M215 324h-47v-324h-83v700h83v-326l45 14l235 312h96l-234 -301l-42 -33l51 -40l256 -326h-105z" />
    <glyph glyph-name="L" unicode="L" horiz-adv-x="517" 
d="M499 0h-414v700h83v-626h331v-74z" />
    <glyph glyph-name="M" unicode="M" horiz-adv-x="791" 
d="M623 470l10 105h-5l-38 -96l-182 -316h-25l-193 317l-36 95h-5l14 -104v-471h-78v700h62l219 -358l33 -78h2l31 80l209 356h65v-700h-83v470z" />
    <glyph glyph-name="N" unicode="N" horiz-adv-x="673" 
d="M211 458l-54 101h-4l10 -101v-458h-78v711h44l335 -467l52 -96h5l-11 96v456h78v-711h-44z" />
    <glyph glyph-name="O" unicode="O" horiz-adv-x="684" 
d="M56 350c0 116.667 24.6699 206.167 74.0029 268.5s119.666 93.5 210.999 93.5c49.333 0 92 -8.66699 128 -26s65.833 -41.833 89.5 -73.5s41.167 -69.667 52.5 -114s17 -93.833 17 -148.5c0 -116.667 -24.833 -206.167 -74.5 -268.5s-120.5 -93.5 -212.5 -93.5
c-48.667 0 -90.834 8.66699 -126.501 26s-65.334 41.833 -89.001 73.5s-41.167 69.667 -52.5 114s-17 93.833 -17 148.5zM144.003 350c0 -38.667 3.83301 -75.333 11.5 -110s19.5 -65.167 35.5 -91.5s36.5 -47.333 61.5 -63s54.5 -23.5 88.5 -23.5
c62 0 110.667 23.5 146 70.5s53 119.5 53 217.5c0 38 -3.83301 74.5 -11.5 109.5s-19.667 65.667 -36 92s-37 47.333 -62 63s-54.833 23.5 -89.5 23.5c-61.333 0 -109.5 -23.5 -144.5 -70.5s-52.5 -119.5 -52.5 -217.5z" />
    <glyph glyph-name="P" unicode="P" horiz-adv-x="559" 
d="M85 693c25.333 6 52.666 9.99805 81.999 11.998s58.333 3 87 3c30.667 0 61.834 -3 93.501 -9s60.5 -17 86.5 -33s47.167 -38 63.5 -66s24.5 -63.667 24.5 -107c0 -42.667 -7.66699 -78.667 -23 -108s-35.666 -53.166 -60.999 -71.499s-54.333 -31.5 -87 -39.5
s-66.334 -12 -101.001 -12h-16.5c-7.66699 0 -15.667 0.166992 -24 0.5s-16.5 0.833008 -24.5 1.5s-13.667 1.33398 -17 2.00098v-266h-83v693zM256 635.998c-17.333 0 -34 -0.331055 -50 -0.998047s-28.667 -2.33398 -38 -5.00098v-290
c3.33301 -1.33301 8.66602 -2.16602 15.999 -2.49902l23 -1c8 -0.333008 15.667 -0.5 23 -0.5h16c22.667 0 45.167 2.16699 67.5 6.5s42.5 12.166 60.5 23.499s32.5 27.333 43.5 48s16.5 47 16.5 79c0 27.333 -5.16699 50.166 -15.5 68.499s-24 33 -41 44
s-36.167 18.833 -57.5 23.5s-42.666 7 -63.999 7z" />
    <glyph glyph-name="Q" unicode="Q" horiz-adv-x="684" 
d="M704 -171c-16 -4.66699 -31.668 -7.83301 -47.001 -9.5s-30.666 -2.5 -45.999 -2.5c-33.333 0 -65.833 3.5 -97.5 10.5s-62.334 14.667 -92.001 23l-85.5 23c-27.333 7 -53.333 10.5 -78 10.5c-16 0 -31.333 -2 -46 -6v73c9.33301 2 18.333 3.66699 27 5s17.667 2 27 2
c28 0 55.833 -3.5 83.5 -10.5s55.834 -14.667 84.501 -23s58 -16 88 -23s61.667 -10.5 95 -10.5c29.333 0 58.333 3.33301 87 10v-72zM55.999 350.001c0 116.667 24.6699 206.167 74.0029 268.5s119.666 93.5 210.999 93.5c49.333 0 92 -8.66699 128 -26
s65.833 -41.833 89.5 -73.5s41.167 -69.667 52.5 -114s17 -93.833 17 -148.5c0 -116.667 -24.833 -206.167 -74.5 -268.5s-120.5 -93.5 -212.5 -93.5c-48.667 0 -90.834 8.66699 -126.501 26s-65.334 41.833 -89.001 73.5s-41.167 69.667 -52.5 114s-17 93.833 -17 148.5z
M144.002 350.001c0 -38.667 3.83301 -75.333 11.5 -110s19.5 -65.167 35.5 -91.5s36.5 -47.333 61.5 -63s54.5 -23.5 88.5 -23.5c62 0 110.667 23.5 146 70.5s53 119.5 53 217.5c0 38 -3.83301 74.5 -11.5 109.5s-19.667 65.667 -36 92s-37 47.333 -62 63
s-54.833 23.5 -89.5 23.5c-61.333 0 -109.5 -23.5 -144.5 -70.5s-52.5 -119.5 -52.5 -217.5z" />
    <glyph glyph-name="R" unicode="R" horiz-adv-x="595" 
d="M85 693c25.333 4.66699 54.499 8.33301 87.499 11s63.167 4 90.5 4c30.667 0 59.834 -3.33301 87.501 -10s52 -17.667 73 -33s37.833 -35.333 50.5 -60s19 -54.667 19 -90c0 -54.667 -15 -99 -45 -133s-68 -56.667 -114 -68l48 -37l174 -277h-97l-193 302l-98 15v-317
h-83v693zM264.999 635.999l-26.998 0.000976562c-9.33301 0 -18.333 -0.333008 -27 -1s-16.834 -1.33398 -24.501 -2.00098s-13.834 -1.66699 -18.501 -3v-258h78c46 0 84 11.333 114 34s45 58 45 106c0 36 -12.333 65.667 -37 89s-59 35 -103 35z" />
    <glyph glyph-name="S" unicode="S" horiz-adv-x="531" 
d="M401 178c0 28 -8.33301 50.833 -25 68.5s-37.5 33.334 -62.5 47.001s-52.167 26.5 -81.5 38.5s-56.5 26.5 -81.5 43.5s-45.833 38 -62.5 63s-25 56.833 -25 95.5c0 54.667 19 98 57 130s92 48 162 48c40.667 0 77.667 -3 111 -9s59.333 -13.667 78 -23l-25 -73
c-15.333 7.33301 -37.833 14.333 -67.5 21s-63.167 10 -100.5 10c-44 0 -77 -9.83301 -99 -29.5s-33 -42.834 -33 -69.501c0 -26 8.33301 -47.667 25 -65s37.5 -32.833 62.5 -46.5s52.167 -27.167 81.5 -40.5s56.5 -28.833 81.5 -46.5s45.833 -38.834 62.5 -63.501
s25 -55.334 25 -92.001c0 -30 -5.33301 -57 -16 -81s-26.334 -44.667 -47.001 -62s-45.667 -30.666 -75 -39.999s-62.666 -14 -99.999 -14c-50 0 -91.333 3.83301 -124 11.5s-58 16.167 -76 25.5l28 75c15.333 -8.66699 38 -17.167 68 -25.5s63.667 -12.5 101 -12.5
c22 0 42.667 2.16699 62 6.5s36 11.333 50 21s25.167 21.834 33.5 36.501s12.5 32 12.5 52z" />
    <glyph glyph-name="T" unicode="T" horiz-adv-x="555" 
d="M537 626h-218v-626h-83v626h-218v74h519v-74z" />
    <glyph glyph-name="U" unicode="U" horiz-adv-x="652" 
d="M487 700h80.001v-467c0 -42 -5.5 -78.333 -16.5 -109s-26.667 -55.834 -47 -75.501s-44.833 -34.167 -73.5 -43.5s-60.334 -14 -95.001 -14c-82.667 0 -145 18.667 -187 56s-63 94 -63 170v483h83v-444c0 -35.333 3.5 -65.166 10.5 -89.499s17.5 -44 31.5 -59
s31.5 -25.833 52.5 -32.5s45.5 -10 73.5 -10c54 0 92.667 14.833 116 44.5s35 78.5 35 146.5v444z" />
    <glyph glyph-name="V" unicode="V" horiz-adv-x="568" 
d="M267 219l24 -106h1l26 108l169 479h83l-265 -711h-37l-270 711h91z" />
    <glyph glyph-name="W" unicode="W" horiz-adv-x="828" 
d="M222 231l16 -116h1l17 118l144 467h40l145 -469l17 -116h1l18 118l118 467h81l-195 -711h-46l-142 469l-18 106h-5l-18 -107l-142 -468h-46l-200 711h88z" />
    <glyph glyph-name="X" unicode="X" horiz-adv-x="618" 
d="M259 356l-213 344h100l142 -237l25 -57l24 57l150 237h92l-220 -337l230 -363h-97l-158 251l-27 60l-26 -60l-162 -251h-93z" />
    <glyph glyph-name="Y" unicode="Y" horiz-adv-x="558" 
d="M239 278l-231 422h97l164 -306l17 -61h1l18 63l157 304h89l-229 -421v-279h-83v278z" />
    <glyph glyph-name="Z" unicode="Z" horiz-adv-x="545" 
d="M38 75l353 511l42 40h-395v74h470v-75l-355 -514l-42 -37h397v-74h-470v75z" />
    <glyph glyph-name="bracketleft" unicode="[" horiz-adv-x="304" 
d="M85 700h181v-70h-103v-790h103v-70h-181v930z" />
    <glyph glyph-name="backslash" unicode="\" horiz-adv-x="380" 
d="M399 -111l-66 -29l-370 824l67 28z" />
    <glyph glyph-name="bracketright" unicode="]" horiz-adv-x="304" 
d="M220 -230h-182v70h104v790h-104v70h182v-930z" />
    <glyph glyph-name="asciicircum" unicode="^" horiz-adv-x="500" 
d="M234 711h29l169 -276h-82l-80 135l-23 69l-31 -70l-92 -134h-76z" />
    <glyph glyph-name="underscore" unicode="_" horiz-adv-x="408" 
d="M0 -135h408v-70h-408v70z" />
    <glyph glyph-name="grave" unicode="`" horiz-adv-x="280" 
d="M220 571h-45l-115 128v21h95z" />
    <glyph glyph-name="a" unicode="a" horiz-adv-x="496" 
d="M69 463c25.333 15.333 54.8311 26.665 88.498 33.998s68.834 11 105.501 11c34.667 0 62.5 -4.66699 83.5 -14s37 -21.5 48 -36.5s18.333 -31.5 22 -49.5s5.5 -36 5.5 -54c0 -40 -1 -79 -3 -117s-3 -74 -3 -108c0 -24.667 1 -48 3 -70s5.66699 -42.333 11 -61h-59l-21 70
h-5c-6 -9.33301 -13.5 -18.5 -22.5 -27.5s-19.833 -17 -32.5 -24s-27.334 -12.833 -44.001 -17.5s-35.667 -7 -57 -7s-41.166 3.33301 -59.499 10s-34.166 16.167 -47.499 28.5s-23.833 27.166 -31.5 44.499s-11.5 37 -11.5 59c0 29.333 6 53.833 18 73.5
s28.833 35.334 50.5 47.001s47.667 20 78 25s63.833 7.5 100.5 7.5h27.5c9 0 18.167 -0.666992 27.5 -2c2 20 3 38 3 54c0 36.667 -7.33301 62.334 -22 77.001s-41.334 22 -80.001 22c-11.333 0 -23.5 -0.833008 -36.5 -2.5s-26.333 -4 -40 -7s-26.667 -6.66699 -39 -11
s-23.166 -9.16602 -32.499 -14.499zM210.998 61.999c18.667 0 35.333 2.49902 50 7.49902s27.334 11.333 38.001 19s19.5 16.167 26.5 25.5s12.167 18.333 15.5 27v83c-9.33301 0.666992 -18.833 1.16699 -28.5 1.5s-19.167 0.5 -28.5 0.5
c-20.667 0 -40.834 -1.16699 -60.501 -3.5s-37 -6.66602 -52 -12.999s-27 -15 -36 -26s-13.5 -24.833 -13.5 -41.5c0 -23.333 8.33301 -42.5 25 -57.5s38 -22.5 64 -22.5z" />
    <glyph glyph-name="b" unicode="b" horiz-adv-x="540" 
d="M77 700l79.998 -0.000976562v-249h4c15.333 19.333 34.833 34.333 58.5 45s49.5 16 77.5 16c64.667 0 113.167 -20.667 145.5 -62s48.5 -105.333 48.5 -192c0 -87.333 -21.333 -153.666 -64 -198.999s-102.667 -68 -180 -68c-37.333 0 -71.166 4 -101.499 12
s-53.166 16.667 -68.499 26v671zM282.998 441.999c-33.333 0 -60.332 -9.33301 -80.999 -28s-35.667 -45 -45 -79v-252c12.667 -7.33301 28 -12.833 46 -16.5s36.667 -5.5 56 -5.5c45.333 0 81.5 16 108.5 48s40.5 82 40.5 150c0 26 -2.33301 50.333 -7 73s-12 42 -22 58
s-22.833 28.667 -38.5 38s-34.834 14 -57.501 14z" />
    <glyph glyph-name="c" unicode="c" horiz-adv-x="451" 
d="M418 33c-20 -14.667 -43.666 -25.8301 -70.999 -33.4971s-56 -11.5 -86 -11.5c-38.667 0 -71.334 6.16699 -98.001 18.5s-48.5 30 -65.5 53s-29.333 50.667 -37 83s-11.5 68.166 -11.5 107.499c0 84.667 18.667 149.5 56 194.5s91 67.5 161 67.5
c32 0 59.167 -2.5 81.5 -7.5s42.5 -12.167 60.5 -21.5l-23 -69c-15.333 8.66699 -32.333 15.5 -51 20.5s-38.667 7.5 -60 7.5c-94.667 0 -142 -64 -142 -192c0 -25.333 2.5 -49.5 7.5 -72.5s13.333 -43.333 25 -61s27 -31.834 46 -42.501s42.5 -16 70.5 -16
c24 0 45.5 3.66699 64.5 11s34.5 15.666 46.5 24.999z" />
    <glyph glyph-name="d" unicode="d" horiz-adv-x="538" 
d="M461 172c0 -34 0.332031 -64.832 0.999023 -92.499s3.66699 -54.834 9 -81.501h-54l-20 71h-4c-13.333 -23.333 -32.666 -42.666 -57.999 -57.999s-55 -23 -89 -23c-66.667 0 -116.167 21 -148.5 63s-48.5 107.667 -48.5 197c0 85.333 20.167 150.166 60.5 194.499
s95.833 66.5 166.5 66.5c24.667 0 44.167 -1.33301 58.5 -4s29.833 -7 46.5 -13v208h80v-528zM258.999 58.001c34 0 61 8.83301 81 26.5s33.667 44.5 41 80.5v248c-12 9.33301 -25.667 16 -41 20s-35.666 6 -60.999 6c-46 0 -82 -15.167 -108 -45.5s-39 -78.833 -39 -145.5
c0 -27.333 2.16699 -52.666 6.5 -75.999s11.5 -43.333 21.5 -60s23.167 -29.834 39.5 -39.501s36.166 -14.5 59.499 -14.5z" />
    <glyph glyph-name="e" unicode="e" horiz-adv-x="508" 
d="M442 40c-20 -16 -45.168 -28.666 -75.501 -37.999s-62.5 -14 -96.5 -14c-38 0 -71 6.16699 -99 18.5s-51 30 -69 53s-31.333 50.5 -40 82.5s-13 68 -13 108c0 85.333 19 150.333 57 195s92.333 67 163 67c22.667 0 45.334 -2.5 68.001 -7.5s43 -14.5 61 -28.5
s32.667 -33.833 44 -59.5s17 -59.5 17 -101.5c0 -22 -2 -46.333 -6 -73h-321c0 -29.333 3 -55.333 9 -78s15.333 -41.834 28 -57.501s29.167 -27.667 49.5 -36s45.166 -12.5 74.499 -12.5c22.667 0 45.334 4 68.001 12s39.667 17.333 51 28zM269.999 442.001
c-39.333 0 -70.833 -10.333 -94.5 -31s-37.834 -56 -42.501 -106h248c0 50.667 -9.66699 86.167 -29 106.5s-46.666 30.5 -81.999 30.5z" />
    <glyph glyph-name="f" unicode="f" horiz-adv-x="319" 
d="M22 500l78.001 -0.00195312v28c0 30.667 2.5 57.334 7.5 80.001s13.167 41.167 24.5 55.5s26 25 44 32s40.333 10.5 67 10.5c21.333 0 40.166 -1.33301 56.499 -4s33.5 -7.66699 51.5 -15l-18 -67c-15.333 6.66699 -29.833 11 -43.5 13s-26.5 3 -38.5 3
c-17.333 0 -30.833 -2.66699 -40.5 -8s-16.667 -13.166 -21 -23.499s-7 -23 -8 -38s-1.5 -32.5 -1.5 -52.5v-14h133v-70h-133v-430h-80v430h-78v70z" />
    <glyph glyph-name="g" unicode="g" horiz-adv-x="537" 
d="M460 -23c0 -64.667 -17.1699 -112.332 -51.5029 -142.999s-85.166 -46 -152.499 -46c-40 0 -72.167 2.5 -96.5 7.5s-45.166 11.5 -62.499 19.5l21 68c15.333 -6 32.333 -11.667 51 -17s43 -8 73 -8c28 0 50.833 2.5 68.5 7.5s31.834 13.333 42.501 25s18 26.667 22 45
s6 40.166 6 65.499v48h-4c-13.333 -19.333 -30.333 -34.166 -51 -44.499s-47.667 -15.5 -81 -15.5c-67.333 0 -116.833 21 -148.5 63s-47.5 107.333 -47.5 196c0 85.333 20.333 150.166 61 194.499s100.667 66.5 180 66.5c38 0 70.5 -3 97.5 -9s51.167 -13 72.5 -21v-502z
M258.997 59.002c34 0 60.667 8.5 80 25.5s33 43.5 41 79.5v256c-26.667 12.667 -60.667 19 -102 19c-45.333 0 -81 -15.333 -107 -46s-39 -78.667 -39 -144c0 -28 2.33301 -53.667 7 -77s12 -43.333 22 -60s23 -29.667 39 -39s35.667 -14 59 -14z" />
    <glyph glyph-name="h" unicode="h" horiz-adv-x="547" 
d="M398 0l-0.00195312 285c0 26 -1.5 48.833 -4.5 68.5s-8.5 36 -16.5 49s-18.833 22.833 -32.5 29.5s-31.5 10 -53.5 10c-31.333 0 -59.666 -10.167 -84.999 -30.5s-41.666 -46.5 -48.999 -78.5v-333h-80v700h80v-256h4c17.333 20.667 38.166 37.167 62.499 49.5
s54.5 18.5 90.5 18.5c28 0 52.333 -3.16699 73 -9.5s37.834 -17.5 51.501 -33.5s23.667 -37.5 30 -64.5s9.5 -61.167 9.5 -102.5v-302h-80z" />
    <glyph glyph-name="i" unicode="i" horiz-adv-x="268" 
d="M94 500h80v-500h-80v500zM77 652c0 15.333 5.16699 28.5 15.5 39.5s23.5 16.5 39.5 16.5s29.667 -5.5 41 -16.5s17 -24.167 17 -39.5s-5.66699 -28 -17 -38s-25 -15 -41 -15s-29.167 5 -39.5 15s-15.5 22.667 -15.5 38z" />
    <glyph glyph-name="j" unicode="j" horiz-adv-x="267" 
d="M93 500h80v-527c0 -62 -10.667 -108.333 -32 -139s-55.333 -46 -102 -46c-5.33301 0 -10.333 0.166992 -15 0.5s-9.66699 0.833008 -15 1.5v68c18.667 0 33.5 2.83301 44.5 8.5s19.5 14.5 25.5 26.5s9.83301 27.167 11.5 45.5s2.5 39.833 2.5 64.5v497zM76 652
c0 15.333 5.16699 28.5 15.5 39.5s23.5 16.5 39.5 16.5s29.667 -5.5 41 -16.5s17 -24.167 17 -39.5s-5.66699 -28 -17 -38s-25 -15 -41 -15s-29.167 5 -39.5 15s-15.5 22.667 -15.5 38z" />
    <glyph glyph-name="k" unicode="k" horiz-adv-x="479" 
d="M203 225h-46v-225h-80v700h80v-426l41 14l155 212h93l-153 -201l-41 -33l50 -40l167 -226h-99z" />
    <glyph glyph-name="l" unicode="l" horiz-adv-x="292" 
d="M166 123c0 -23.333 4 -40.001 12 -50.001s19.333 -15 34 -15c8.66699 0 18 0.666992 28 2s21.333 4.33301 34 9l9 -63c-10.667 -5.33301 -25.5 -9.66602 -44.5 -12.999s-35.5 -5 -49.5 -5c-30 0 -54.667 8.5 -74 25.5s-29 45.833 -29 86.5v600h80v-577z" />
    <glyph glyph-name="m" unicode="m" horiz-adv-x="812" 
d="M370 0v282.998c0 26.667 -1.16699 49.834 -3.5 69.501s-6.83301 36.167 -13.5 49.5s-16.167 23.333 -28.5 30s-28.5 10 -48.5 10c-30.667 0 -56.167 -9.33301 -76.5 -28s-34.5 -42 -42.5 -70v-344h-80v500h56l15 -61h4c18 21.333 38.833 38.833 62.5 52.5
s54.5 20.5 92.5 20.5c32 0 58.167 -6.16699 78.5 -18.5s36.166 -33.833 47.499 -64.5c15.333 26 36.5 46.333 63.5 61s57.5 22 91.5 22c28 0 51.667 -3.16699 71 -9.5s35.333 -17.5 48 -33.5s21.834 -37.667 27.501 -65s8.5 -62 8.5 -104v-300h-80v301
c0 24 -1.16699 44.833 -3.5 62.5s-7 32.334 -14 44.001s-16.667 20.334 -29 26.001s-28.5 8.5 -48.5 8.5c-33.333 0 -59.333 -9.33301 -78 -28s-32 -45.334 -40 -80.001v-334h-80z" />
    <glyph glyph-name="n" unicode="n" horiz-adv-x="547" 
d="M398 0l-0.000976562 285c0 52 -7.5 91.167 -22.5 117.5s-42.5 39.5 -82.5 39.5c-35.333 0 -64.5 -9.5 -87.5 -28.5s-39.167 -42.833 -48.5 -71.5v-342h-80v500h56l15 -61h4c16 21.333 37.5 38.833 64.5 52.5s59.167 20.5 96.5 20.5c27.333 0 51.333 -3.16699 72 -9.5
s37.834 -17.5 51.501 -33.5s24 -37.5 31 -64.5s10.5 -61.167 10.5 -102.5v-302h-80z" />
    <glyph glyph-name="o" unicode="o" 
d="M49 250c0 84.667 18.833 149.5 56.5 194.5s91.834 67.5 162.501 67.5c37.333 0 69.833 -6.16699 97.5 -18.5s50.5 -30 68.5 -53s31.333 -50.667 40 -83s13 -68.166 13 -107.499c0 -84.667 -18.833 -149.5 -56.5 -194.5s-91.834 -67.5 -162.501 -67.5
c-37.333 0 -69.833 6.16699 -97.5 18.5s-50.5 30 -68.5 53s-31.333 50.667 -40 83s-13 68.166 -13 107.499zM132 250c0 -25.333 2.5 -49.666 7.5 -72.999s12.833 -43.666 23.5 -60.999s24.667 -31.333 42 -42s38.333 -16 63 -16c90.667 -0.666992 136 63.333 136 192
c0 26 -2.5 50.667 -7.5 74s-12.833 43.666 -23.5 60.999s-24.667 31.166 -42 41.499s-38.333 15.5 -63 15.5c-90.667 0.666992 -136 -63.333 -136 -192z" />
    <glyph glyph-name="p" unicode="p" horiz-adv-x="541" 
d="M77 500h55.001l15 -60h4c15.333 23.333 35.166 41.166 59.499 53.499s52.166 18.5 83.499 18.5c66.667 0 116.334 -19.667 149.001 -59s49 -103.666 49 -192.999c0 -42 -5.5 -79.833 -16.5 -113.5s-26.5 -62.167 -46.5 -85.5s-44.167 -41.333 -72.5 -54
s-59.833 -19 -94.5 -19c-24.667 0 -44.167 1.5 -58.5 4.5s-29.833 8.16699 -46.5 15.5v-208h-80v700zM279.001 442c-34 0 -60.833 -8.83301 -80.5 -26.5s-33.5 -44.5 -41.5 -80.5v-248c12 -9.33301 25.667 -16.5 41 -21.5s35.666 -7.5 60.999 -7.5
c46 0 82.5 17.167 109.5 51.5s40.5 84.833 40.5 151.5c0 27.333 -2.33301 52.166 -7 74.499s-12.167 41.333 -22.5 57s-23.666 27.834 -39.999 36.501s-36.5 13 -60.5 13z" />
    <glyph glyph-name="q" unicode="q" horiz-adv-x="537" 
d="M460 -200h-80.001v250h-4c-13.333 -20 -30.166 -35.333 -50.499 -46s-47.166 -16 -80.499 -16c-66.667 0 -116 21.167 -148 63.5s-48 107.833 -48 196.5c0 86 20.667 151 62 195s101.666 66 180.999 66c35.333 0 68.5 -3.33301 99.5 -10s53.833 -13.667 68.5 -21v-678z
M258.999 58c34 0 60.667 8.66797 80 26.001s33 44 41 80v256c-24.667 12.667 -58.667 19 -102 19c-46 0 -81.833 -15.5 -107.5 -46.5s-38.5 -78.833 -38.5 -143.5c0 -28 2.33301 -53.833 7 -77.5s12 -43.834 22 -60.501s23 -29.667 39 -39s35.667 -14 59 -14z" />
    <glyph glyph-name="r" unicode="r" horiz-adv-x="340" 
d="M313 423c-20 6.66699 -39 10 -57 10c-28.667 0 -51.334 -7.83301 -68.001 -23.5s-27 -35.5 -31 -59.5v-350h-80v500h56l15 -61h4c12.667 22.667 27.834 40.167 45.501 52.5s40.167 18.5 67.5 18.5c19.333 0 41 -3.33301 65 -10z" />
    <glyph glyph-name="s" unicode="s" horiz-adv-x="421" 
d="M297 136c0 20 -5.99902 35.6699 -17.999 47.0029s-26.833 20.833 -44.5 28.5s-37 15 -58 22s-40.333 16 -58 27s-32.5 25.167 -44.5 42.5s-18 40.666 -18 69.999c0 48 13.667 83.167 41 105.5s65.333 33.5 114 33.5c36 0 66.167 -3.16699 90.5 -9.5
s45.5 -13.833 63.5 -22.5l-19 -66c-15.333 7.33301 -33.833 13.833 -55.5 19.5s-44.834 8.5 -69.501 8.5c-29.333 0 -50.833 -5 -64.5 -15s-20.5 -27.333 -20.5 -52c0 -17.333 6 -30.833 18 -40.5s26.833 -18.334 44.5 -26.001s37 -15.167 58 -22.5s40.333 -17 58 -29
s32.5 -27.167 44.5 -45.5s18 -42.5 18 -72.5c0 -21.333 -3.5 -41.333 -10.5 -60s-17.833 -34.667 -32.5 -48s-32.834 -23.833 -54.501 -31.5s-47.167 -11.5 -76.5 -11.5c-38 0 -70.333 3.66699 -97 11s-49 16 -67 26l24 68c15.333 -8.66699 35.333 -16.667 60 -24
s49.667 -11 75 -11c28.667 0 52.334 5.66699 71.001 17s28 31.666 28 60.999z" />
    <glyph glyph-name="t" unicode="t" horiz-adv-x="339" 
d="M11 500h78v99l80 23v-122h136v-70h-136v-277c0 -34.667 4.33301 -59.167 13 -73.5s23.334 -21.5 44.001 -21.5c17.333 0 32 1.83301 44 5.5s25.333 8.5 40 14.5l18 -61c-18 -8.66699 -37.667 -15.667 -59 -21s-44.333 -8 -69 -8c-40.667 0 -69.334 11.5 -86.001 34.5
s-25 61.5 -25 115.5v292h-78v70z" />
    <glyph glyph-name="u" unicode="u" horiz-adv-x="539" 
d="M149 500l0.000976562 -285c0 -26 1.5 -48.833 4.5 -68.5s8.16699 -36 15.5 -49s17.333 -22.833 30 -29.5s28.667 -10 48 -10c18 0 34 2.83301 48 8.5s26.5 13.5 37.5 23.5s20.667 21.5 29 34.5s15.166 26.833 20.499 41.5v334h80v-358c0 -24 0.833008 -48.833 2.5 -74.5
s4.5 -48.167 8.5 -67.5h-55l-20 79h-5c-15.333 -26 -36 -47.667 -62 -65s-59 -26 -99 -26c-26.667 0 -50.167 3.16699 -70.5 9.5s-37.333 17.5 -51 33.5s-24 37.5 -31 64.5s-10.5 61.167 -10.5 102.5v302h80z" />
    <glyph glyph-name="v" unicode="v" horiz-adv-x="482" 
d="M221 207l28 -95h1l25 97l112 291h86l-213 -511h-34l-217 511h92z" />
    <glyph glyph-name="w" unicode="w" horiz-adv-x="735" 
d="M401 500l115 -292l25 -96h2l19 98l89 290h76l-168 -511h-39l-131 330l-19 82h-3l-20 -83l-126 -329h-39l-174 511h87l99 -291l17 -97h1l24 99l107 289h58z" />
    <glyph glyph-name="x" unicode="x" horiz-adv-x="515" 
d="M208 256l-168 244h98l95 -138l28 -57l29 57l97 138h90l-169 -240l179 -260h-95l-106 152l-30 60l-31 -60l-108 -152h-89z" />
    <glyph glyph-name="y" unicode="y" horiz-adv-x="466" 
d="M224 176l28.001 -96h5l22 97l97 323h81l-148 -449l-33.5 -95c-11 -30.667 -23.167 -58 -36.5 -82s-28.333 -43.167 -45 -57.5s-36 -21.5 -58 -21.5c-24 0 -43.667 3.33301 -59 10l14 69c8.66699 -3.33301 17 -5 25 -5c18.667 0 36.667 9.83301 54 29.5
s31.666 53.5 42.999 101.5l-201 500h92z" />
    <glyph glyph-name="z" unicode="z" horiz-adv-x="447" 
d="M42 70l231 318l42 42h-273v70h356v-70l-233 -321l-41 -39h274v-70h-356v70z" />
    <glyph glyph-name="braceleft" unicode="{" horiz-adv-x="346" 
d="M137 112c0 34 -7 57.168 -21 69.501s-33.667 18.5 -59 18.5v70c25.333 0 45 6.66699 59 20s21 34.666 21 63.999v242c0 31.333 7.83301 56.666 23.5 75.999s39.5 29 71.5 29h85v-70h-50c-18 0 -31.167 -4.5 -39.5 -13.5s-12.5 -24.167 -12.5 -45.5v-237
c0 -29.333 -7 -51.666 -21 -66.999s-30.333 -24.666 -49 -27.999v-6c18 -2.66699 34.167 -12.834 48.5 -30.501s21.5 -40.5 21.5 -68.5v-236c0 -20.667 4 -35.667 12 -45s21.667 -14 41 -14h49v-70h-85c-30 0 -53.333 8.83301 -70 26.5s-25 43.5 -25 77.5v238z" />
    <glyph glyph-name="bar" unicode="|" horiz-adv-x="238" 
d="M85 700h68v-830h-68v830z" />
    <glyph glyph-name="braceright" unicode="}" horiz-adv-x="346" 
d="M235 359c0 -34 6.99902 -57.168 20.999 -69.501s33.667 -18.5 59 -18.5v-70c-25.333 0 -45 -6.66699 -59 -20s-21 -34.666 -21 -63.999v-242c0 -31.333 -7.83301 -56.666 -23.5 -75.999s-39.5 -29 -71.5 -29h-85v70h50c18 0 31.167 4.5 39.5 13.5s12.5 24.167 12.5 45.5
v237c0 29.333 6.83301 51.666 20.5 66.999s29.834 24.666 48.501 27.999v6c-18 2.66699 -34 12.834 -48 30.501s-21 40.5 -21 68.5v236c0 20.667 -4 35.667 -12 45s-21.333 14 -40 14h-50v70h86c29.333 0 52.333 -8.83301 69 -26.5s25 -43.5 25 -77.5v-238z" />
    <glyph glyph-name="asciitilde" unicode="~" horiz-adv-x="505" 
d="M31 361c28.667 22 54.667 37.334 78 46.001s44.666 13 63.999 13c18.667 0 36 -2.83301 52 -8.5s31.333 -12 46 -19s29 -13.333 43 -19s28.667 -8.5 44 -8.5c12.667 0 25.667 2.66699 39 8s27.666 14.666 42.999 27.999l34 -61
c-25.333 -17.333 -48.166 -29.5 -68.499 -36.5s-38.833 -10.5 -55.5 -10.5c-18 0 -34.5 2.83301 -49.5 8.5s-29.333 12 -43 19s-27.334 13.333 -41.001 19s-28.5 8.5 -44.5 8.5c-15.333 0 -31.666 -3.5 -48.999 -10.5s-36.666 -19.167 -57.999 -36.5z" />
    <glyph glyph-name="uni00A0" unicode="&#xa0;" horiz-adv-x="267" 
 />
    <glyph glyph-name="exclamdown" unicode="&#xa1;" horiz-adv-x="304" 
d="M176 -200h-83v347l17 176h49l17 -176v-347zM77 453c0 18 5.16699 32.167 15.5 42.5s24.166 15.5 41.499 15.5c18 0 32.333 -5.16699 43 -15.5s16 -24.5 16 -42.5c0 -17.333 -5.33301 -31.333 -16 -42s-25 -16 -43 -16c-17.333 0 -31.166 5.33301 -41.499 16
s-15.5 24.667 -15.5 42z" />
    <glyph glyph-name="cent" unicode="&#xa2;" horiz-adv-x="545" 
d="M461 33c-16 -11.333 -34.168 -20.501 -54.501 -27.501s-42.166 -11.833 -65.499 -14.5v-91h-71v90c-33.333 3.33301 -61.5 11.833 -84.5 25.5s-41.833 31.667 -56.5 54s-25.334 48.833 -32.001 79.5s-10 64.334 -10 101.001c0 76.667 15.833 137.167 47.5 181.5
s76.834 70.166 135.501 77.499v91h71v-89c23.333 -1.33301 44 -4.5 62 -9.5s34.333 -11.167 49 -18.5l-23 -68c-13.333 6.66699 -28.166 12.334 -44.499 17.001s-33.166 7.66699 -50.499 9v-383c21.333 1.33301 40.666 5.5 57.999 12.5s31.666 14.833 42.999 23.5z
M169.999 249.999c0 -22 1.83203 -43.167 5.49902 -63.5s9.83398 -39 18.501 -56s20 -31.5 34 -43.5s31.333 -20.333 52 -25v377c-73.333 -14 -110 -77 -110 -189z" />
    <glyph glyph-name="sterling" unicode="&#xa3;" horiz-adv-x="545" 
d="M50 383h66.001c-8 17.333 -14.667 36.333 -20 57s-8 45 -8 73c0 65.333 18.667 114.833 56 148.5s88.333 50.5 153 50.5c40.667 0 76 -3 106 -9s54.667 -13.667 74 -23l-26 -71c-15.333 7.33301 -35.833 14 -61.5 20s-56.834 9 -93.501 9
c-40 0 -70.833 -10.833 -92.5 -32.5s-32.5 -50.834 -32.5 -87.501c0 -28 3.33301 -52.667 10 -74s14.667 -41.666 24 -60.999h161v-70h-131c5.33301 -15.333 9.66602 -31.333 12.999 -48s5 -35 5 -55s-3 -40.5 -9 -61.5s-15 -38.167 -27 -51.5l-39 -33v-4l62 14h256v-74
h-446v72c21.333 0 39.5 3.83301 54.5 11.5s27.333 17.667 37 30s16.834 26.333 21.501 42s7 31.5 7 47.5c0 22 -2.16699 41.833 -6.5 59.5s-9.83301 34.5 -16.5 50.5h-97v70z" />
    <glyph glyph-name="currency" unicode="&#xa4;" horiz-adv-x="545" 
d="M70 596l78.001 -76.999l21 -35c28 22 62.333 33 103 33c39.333 0 73.666 -11 102.999 -33l22 35l78 77l49 -49l-77 -78l-35 -22c21.333 -28.667 32 -62.667 32 -102c0 -40 -10.667 -74.333 -32 -103l35 -21l77 -78l-49 -48l-78 77l-21 33
c-28.667 -20.667 -63.334 -31 -104.001 -31c-41.333 0 -75.666 10.333 -102.999 31l-21 -33l-78 -77l-49 48l77 78l34 22c-20.667 28 -31 62 -31 102c0 19.333 2.83301 37.666 8.5 54.999s13.167 33.333 22.5 48l-34 21l-77 78zM170.001 345.001c0 -30 9.5 -55 28.5 -75
s43.5 -30 73.5 -30s54.667 10 74 30s29 45 29 75s-9.66699 55.167 -29 75.5s-44 30.5 -74 30.5s-54.5 -10.167 -73.5 -30.5s-28.5 -45.5 -28.5 -75.5z" />
    <glyph glyph-name="yen" unicode="&#xa5;" horiz-adv-x="545" 
d="M111 328h94l-203 372h97l164 -306l17 -61h1l18 63l157 304h89l-203 -372h96v-60h-122v-71h122v-60h-122v-137h-83v137h-122v60h122v71h-122v60z" />
    <glyph glyph-name="brokenbar" unicode="&#xa6;" horiz-adv-x="238" 
d="M85 206h68v-336h-68v336zM153 364h-68v336h68v-336z" />
    <glyph glyph-name="section" unicode="&#xa7;" horiz-adv-x="497" 
d="M57 353c0 20.667 5.16699 40.8369 15.5 60.5039s24.166 37.167 41.499 52.5l41 14c-17.333 10.667 -31.833 24.167 -43.5 40.5s-17.5 38.166 -17.5 65.499c0 37.333 13.833 67.666 41.5 90.999s66.167 35 115.5 35c36 0 66.5 -3 91.5 -9s46.5 -13.333 64.5 -22l-19 -67
c-16 7.33301 -35 13.833 -57 19.5s-45 8.5 -69 8.5c-30 0 -52.167 -5.33301 -66.5 -16s-21.5 -25 -21.5 -43c0 -17.333 6.5 -30.833 19.5 -40.5s29.5 -18.167 49.5 -25.5s41.333 -14.666 64 -21.999s44 -16.833 64 -28.5s36.5 -27 49.5 -46s19.5 -43.5 19.5 -73.5
c0 -20.667 -5 -40.667 -15 -60s-23.667 -36.666 -41 -51.999l-45 -14c18 -10.667 33.167 -24.334 45.5 -41.001s18.5 -38.667 18.5 -66c0 -20.667 -4 -38.834 -12 -54.501s-19.167 -28.834 -33.5 -39.501s-31.166 -18.667 -50.499 -24s-40 -8 -62 -8
c-37.333 0 -68 3.16699 -92 9.5s-45.333 14.166 -64 23.499l20 65c15.333 -7.33301 33.833 -13.833 55.5 -19.5s45.167 -8.5 70.5 -8.5c28 0 49.667 4.5 65 13.5s23 24.167 23 45.5c0 17.333 -6.5 31 -19.5 41s-29.5 18.667 -49.5 26s-41.333 14.666 -64 21.999
s-44 16.833 -64 28.5s-36.5 26.834 -49.5 45.501s-19.5 43 -19.5 73zM360 345.003c0 16.667 -4.33398 30.3311 -13.001 40.998s-20.167 19.834 -34.5 27.501s-30.5 14.334 -48.5 20.001s-36 11.834 -54 18.501c-19.333 -8.66699 -36.333 -21 -51 -37s-22 -36 -22 -60
c0 -16.667 4.33301 -30.334 13 -41.001s19.834 -19.834 33.501 -27.501s29.334 -14.167 47.001 -19.5s35.5 -11.333 53.5 -18c9.33301 4 18.5 9.33301 27.5 16s17.167 14.167 24.5 22.5s13.166 17.333 17.499 27s6.5 19.834 6.5 30.501z" />
    <glyph glyph-name="dieresis" unicode="&#xa8;" horiz-adv-x="411" 
d="M60 653c0 15.333 4.5 27.666 13.5 36.999s20.833 14 35.5 14s26.5 -4.66699 35.5 -14s13.5 -21.666 13.5 -36.999c0 -14 -4.5 -25.667 -13.5 -35s-20.833 -14 -35.5 -14s-26.5 4.66699 -35.5 14s-13.5 21 -13.5 35zM252 653c0 15.333 4.5 27.666 13.5 36.999
s20.833 14 35.5 14c15.333 0 27.5 -4.66699 36.5 -14s13.5 -21.666 13.5 -36.999c0 -14 -4.5 -25.667 -13.5 -35s-21.167 -14 -36.5 -14c-14.667 0 -26.5 4.66699 -35.5 14s-13.5 21 -13.5 35z" />
    <glyph glyph-name="copyright" unicode="&#xa9;" horiz-adv-x="806" 
d="M51 290c0 55.333 9.33301 104.833 28 148.5s44 80.5 76 110.5s69.333 53 112 69s88 24 136 24s93.333 -8 136 -24s80 -39 112 -69s57.333 -66.833 76 -110.5s28 -93.167 28 -148.5s-9.33301 -104.833 -28 -148.5s-44 -80.5 -76 -110.5s-69.333 -53 -112 -69
s-88 -24 -136 -24c-53.333 0 -101.666 8 -144.999 24s-80.333 39 -111 69s-54.334 66.833 -71.001 110.5s-25 93.167 -25 148.5zM121 290c0 -46 7.33301 -86.833 22 -122.5s34.667 -65.5 60 -89.5s55.166 -42.333 89.499 -55s71.166 -19 110.499 -19
s76.166 6.33301 110.499 19s64.166 31 89.499 55s45.333 53.833 60 89.5s22 76.5 22 122.5s-7.33301 86.833 -22 122.5s-34.667 65.5 -60 89.5s-55.166 42.333 -89.499 55s-71.166 19 -110.499 19s-76.166 -6.33301 -110.499 -19s-64.166 -31 -89.499 -55
s-45.333 -53.833 -60 -89.5s-22 -76.5 -22 -122.5zM519 127c-15.333 -8.66699 -32.501 -15.335 -51.501 -20.002s-41.167 -7 -66.5 -7c-54 0 -95.167 17 -123.5 51s-42.5 80.333 -42.5 139c0 60.667 15.167 107.5 45.5 140.5s70.5 49.5 120.5 49.5
c12 0 22.833 -0.666992 32.5 -2s18.667 -3.16602 27 -5.49902s16.5 -5.16602 24.5 -8.49902l27 -11l-26 -61c-14.667 7.33301 -28.667 12.333 -42 15s-24.666 4 -33.999 4c-28 0 -50.833 -8.66699 -68.5 -26s-26.5 -49 -26.5 -95c0 -38.667 8.66699 -68.5 26 -89.5
s43 -31.833 77 -32.5c31.333 0 58 6 80 18z" />
    <glyph glyph-name="ordfeminine" unicode="&#xaa;" horiz-adv-x="386" 
d="M68 677c16.667 8.66699 38.6699 15.999 66.0029 21.999s57.666 9 90.999 9c41.333 0 69.666 -8.66699 84.999 -26s23 -42.333 23 -75c0 -25.333 -0.5 -49.666 -1.5 -72.999s-1.5 -45.666 -1.5 -66.999c0 -16 0.5 -31.333 1.5 -46s3.16699 -28.334 6.5 -41.001h-55l-13 46
h-4c-8.66699 -11.333 -21 -22.5 -37 -33.5s-38.333 -16.5 -67 -16.5c-34.667 0 -62.334 8.5 -83.001 25.5s-31 40.167 -31 69.5c0 20.667 5 38 15 52s23.5 25.333 40.5 34s37 15 60 19s47.833 6 74.5 6c4.66699 0 9.16699 -0.166992 13.5 -0.5s8.83301 -0.5 13.5 -0.5
c0.666992 4 1 7.83301 1 11.5v10.5c0 18 -4 30.667 -12 38s-23.333 11 -46 11c-26.667 0 -51 -2.5 -73 -7.5s-39.333 -10.833 -52 -17.5zM173.003 431.999c14 0 26.1689 1.66699 36.502 5s19.166 7.83301 26.499 13.5s13.333 11.667 18 18s8.33398 12.5 11.001 18.5v42
c-7.33301 0.666992 -14.333 1 -21 1h-21c-14 0 -27.333 -0.666992 -40 -2s-23.834 -4 -33.501 -8s-17.334 -9.5 -23.001 -16.5s-8.5 -16.167 -8.5 -27.5c0 -13.333 4.83301 -24 14.5 -32s23.167 -12 40.5 -12z" />
    <glyph glyph-name="guillemotleft" unicode="&#xab;" horiz-adv-x="478" 
d="M222 259l158 228l53 -42l-97 -144l-48 -41l48 -36l103 -141l-52 -43zM39 259l160 230l54 -43l-98 -145l-48 -41l48 -36l104 -142l-54 -44z" />
    <glyph glyph-name="logicalnot" unicode="&#xac;" horiz-adv-x="505" 
d="M41 392h424v-192h-72v120h-352v72z" />
    <glyph glyph-name="uni00AD" unicode="&#xad;" horiz-adv-x="360" 
d="M58 325h244v-74h-244v74z" />
    <glyph glyph-name="registered" unicode="&#xae;" horiz-adv-x="700" 
d="M85 451c0 42.667 7 80.5 21 113.5s33.167 60.667 57.5 83s52.5 39.333 84.5 51s66 17.5 102 17.5c36.667 0 71.167 -5.83301 103.5 -17.5s60.5 -28.667 84.5 -51s42.833 -50 56.5 -83s20.5 -70.833 20.5 -113.5s-7 -80.5 -21 -113.5s-33.167 -60.667 -57.5 -83
s-52.5 -39.333 -84.5 -51s-66 -17.5 -102 -17.5c-37.333 0 -72 5.83301 -104 17.5s-60 28.667 -84 51s-42.833 50 -56.5 83s-20.5 70.833 -20.5 113.5zM148 451c0 -34.667 5.33105 -64.833 15.998 -90.5s25.167 -47 43.5 -64s39.833 -29.833 64.5 -38.5s50.667 -13 78 -13
c28.667 0 55.334 4.16699 80.001 12.5s46 21 64 38s32.167 38.333 42.5 64s15.5 56.167 15.5 91.5c0 34.667 -5.33301 64.834 -16 90.501s-25.167 47 -43.5 64s-39.666 29.833 -63.999 38.5s-50.5 13 -78.5 13c-29.333 0 -56.333 -4.33301 -81 -13s-46 -21.5 -64 -38.5
s-32 -38.333 -42 -64s-15 -55.834 -15 -90.501zM246.998 581.001c10.667 3.33301 25.668 5.83203 45.001 7.49902s37.666 2.5 54.999 2.5c28 0 52 -5.83301 72 -17.5s30 -31.834 30 -60.501c0 -21.333 -6.83301 -37.666 -20.5 -48.999s-30.5 -17.666 -50.5 -18.999l28 -14
l74 -109h-61l-72 104l-48 15v-119h-52v259zM335.999 546c-7.33301 0 -14.333 -0.166992 -21 -0.5s-12 -1.5 -16 -3.5v-71h34c19.333 0 34.333 3 45 9s16 16.333 16 31c0 23.333 -19.333 35 -58 35z" />
    <glyph glyph-name="macron" unicode="&#xaf;" horiz-adv-x="416" 
d="M60 643h296v-62h-296v62z" />
    <glyph glyph-name="degree" unicode="&#xb0;" horiz-adv-x="425" 
d="M85 571c0 20.667 3.66699 39.666 11 56.999s17.333 32.166 30 44.499s27.667 22 45 29s35.666 10.5 54.999 10.5s37.666 -3.16699 54.999 -9.5s32.333 -15.666 45 -27.999s22.667 -27.166 30 -44.499s11 -37 11 -59s-3.66699 -41.667 -11 -59
s-17.333 -32.166 -30 -44.499s-27.667 -21.666 -45 -27.999s-35.666 -9.5 -54.999 -9.5s-37.666 3.16699 -54.999 9.5s-32.333 15.666 -45 27.999s-22.667 27.166 -30 44.499s-11 37 -11 59zM148 570.999c0 -25.333 7.83301 -45.166 23.5 -59.499s33.834 -21.5 54.501 -21.5
s38.834 7.16699 54.501 21.5s23.5 34.166 23.5 59.499s-7.83301 45.166 -23.5 59.499s-33.834 21.5 -54.501 21.5s-38.834 -7.16699 -54.501 -21.5s-23.5 -34.166 -23.5 -59.499z" />
    <glyph glyph-name="plusminus" unicode="&#xb1;" horiz-adv-x="505" 
d="M40 493h176v181h72v-181h176v-72h-176v-120h-72v120h-176v72zM40 250h424v-72h-424v72z" />
    <glyph glyph-name="twosuperior" unicode="&#xb2;" horiz-adv-x="394" 
d="M319 690c0 -20.667 -3.50098 -40.666 -10.501 -59.999s-16.333 -38.333 -28 -57s-25.5 -37.167 -41.5 -55.5s-33 -36.833 -51 -55.5l-46 -32v-2l57 15h140v-63h-291v33c15.333 12.667 34.5 29.667 57.5 51s45.167 44.333 66.5 69s39.5 50 54.5 76s22.5 50 22.5 72
c0 20.667 -6.66699 36.167 -20 46.5s-29.666 15.5 -48.999 15.5c-18 0 -35.5 -3.16699 -52.5 -9.5s-31.833 -13.5 -44.5 -21.5l-22 57c17.333 12 37.5 21.333 60.5 28s46.5 10 70.5 10c42 0 73.667 -10.333 95 -31s32 -49.334 32 -86.001z" />
    <glyph glyph-name="threesuperior" unicode="&#xb3;" horiz-adv-x="394" 
d="M169 433c32 0 56.499 6.33398 73.499 19.001s25.5 31.334 25.5 56.001c0 21.333 -7.66699 38.666 -23 51.999s-40 20 -74 20h-55v23l97 116l34 27l-49 -6h-130v60h256v-33l-103 -123l-25 -18v-2l23 3c36.667 -0.666992 65.667 -11.667 87 -33s32 -50 32 -86
c0 -40.667 -14.833 -73.334 -44.5 -98.001s-69.167 -37 -118.5 -37c-24 0 -44.667 2 -62 6s-32.666 8.33301 -45.999 13l15 60c11.333 -5.33301 24.333 -9.83301 39 -13.5s30.667 -5.5 48 -5.5z" />
    <glyph glyph-name="acute" unicode="&#xb4;" horiz-adv-x="268" 
d="M119 720h89v-21l-101 -128h-47z" />
    <glyph glyph-name="mu" unicode="&#xb5;" horiz-adv-x="552" 
d="M148 500l-0.000976562 -282.999c0 -52.667 8.16699 -92.334 24.5 -119.001s44.833 -40 85.5 -40c36.667 0 67.667 10.833 93 32.5s43 50.167 53 85.5v324h80v-337c0 -27.333 0.833008 -54.833 2.5 -82.5s5.83398 -54.5 12.501 -80.5h-55l-28 74h-4
c-13.333 -23.333 -33.833 -43.5 -61.5 -60.5s-61.5 -25.5 -101.5 -25.5c-32 0 -56.5 4.66699 -73.5 14s-31.5 21.333 -43.5 36h-5l21 -105v-133h-80v700h80z" />
    <glyph glyph-name="mu" unicode="&#x3bc;" horiz-adv-x="552" 
d="M148 500l-0.000976562 -282.999c0 -52.667 8.16699 -92.334 24.5 -119.001s44.833 -40 85.5 -40c36.667 0 67.667 10.833 93 32.5s43 50.167 53 85.5v324h80v-337c0 -27.333 0.833008 -54.833 2.5 -82.5s5.83398 -54.5 12.501 -80.5h-55l-28 74h-4
c-13.333 -23.333 -33.833 -43.5 -61.5 -60.5s-61.5 -25.5 -101.5 -25.5c-32 0 -56.5 4.66699 -73.5 14s-31.5 21.333 -43.5 36h-5l21 -105v-133h-80v700h80z" />
    <glyph glyph-name="paragraph" unicode="&#xb6;" horiz-adv-x="494" 
d="M341 700h68v-830h-68v830zM185 310c-21.333 0 -41.001 5.49902 -59.001 16.499s-33.5 25.667 -46.5 44s-23.333 39.333 -31 63s-11.5 47.834 -11.5 72.501s3.83301 48.667 11.5 72s18.834 44 33.501 62s32.667 32.5 54 43.5s45.333 16.5 72 16.5h45v-830h-68v440z" />
    <glyph glyph-name="periodcentered" unicode="&#xb7;" horiz-adv-x="267" 
d="M76 296c0 18 5.16699 32.167 15.5 42.5s24.166 15.5 41.499 15.5c18 0 32.333 -5.16699 43 -15.5s16 -24.5 16 -42.5c0 -17.333 -5.33301 -31.333 -16 -42s-25 -16 -43 -16c-17.333 0 -31.166 5.33301 -41.499 16s-15.5 24.667 -15.5 42z" />
    <glyph glyph-name="cedilla" unicode="&#xb8;" horiz-adv-x="287" 
d="M172 0l-24 -43.002c28 -5.33301 48.167 -14 60.5 -26s18.5 -28.333 18.5 -49c0 -26 -10.667 -47.5 -32 -64.5s-51.333 -25.5 -90 -25.5c-7.33301 0 -14.666 0.333008 -21.999 1s-15 1.66699 -23 3l9 39c4 -0.666992 7.66699 -1 11 -1h10c14.667 0 26.167 1.33301 34.5 4
s14.666 5.83398 18.999 9.50098s7 7.83398 8 12.501s1.5 9 1.5 13c0 18.667 -28.667 31 -86 37l48 90h57z" />
    <glyph glyph-name="onesuperior" unicode="&#xb9;" horiz-adv-x="394" 
d="M72 441h106v254l7 36l-27 -28l-78 -47l-27 49l154 102h41v-366h95v-61h-271v61z" />
    <glyph glyph-name="ordmasculine" unicode="&#xba;" horiz-adv-x="398" 
d="M44 542c0 30 4 55.667 12 77s18.833 39 32.5 53s30 24.167 49 30.5s39.5 9.5 61.5 9.5s42.5 -3 61.5 -9s35.333 -15.667 49 -29s24.5 -30.833 32.5 -52.5s12 -48.167 12 -79.5s-4 -57.833 -12 -79.5s-18.833 -39.167 -32.5 -52.5s-30 -23 -49 -29s-39.5 -9 -61.5 -9
s-42.5 3 -61.5 9s-35.333 15.667 -49 29s-24.5 30.833 -32.5 52.5s-12 48.167 -12 79.5zM118 542c0 -40 7.16699 -68.665 21.5 -85.998s34.166 -26 59.499 -26c12.667 0 24 1.83301 34 5.5s18.5 9.66699 25.5 18s12.333 19.666 16 33.999s5.5 32.5 5.5 54.5
s-1.83301 40.167 -5.5 54.5s-9 25.666 -16 33.999s-15.5 14.333 -25.5 18s-21.333 5.5 -34 5.5c-25.333 0 -45.166 -7.83301 -59.499 -23.5s-21.5 -45.167 -21.5 -88.5z" />
    <glyph glyph-name="guillemotright" unicode="&#xbb;" horiz-adv-x="478" 
d="M257 268l-160 -228l-52 42l96 144l49 41l-49 36l-102 141l52 43zM439 268l-160 -230l-54 43l98 145l48 41l-48 36l-104 142l53 44z" />
    <glyph glyph-name="onequarter" unicode="&#xbc;" horiz-adv-x="837" 
d="M628 713l52 -35l-487 -690l-52 36zM797 96h-83v-96h-67v96h-204v37l226 302h45v-280h83v-59zM647 283l6 49h-2l-22 -46l-78 -105l-33 -31l50 5h79v128zM179 595l7 36l-28 -28l-78 -47l-27 49l154 102h42v-427h-70v315z" />
    <glyph glyph-name="onehalf" unicode="&#xbd;" horiz-adv-x="850" 
d="M628 713l52 -35l-487 -690l-52 36zM790 310c0 -20.667 -3.50098 -40.666 -10.501 -59.999s-16.333 -38.333 -28 -57s-25.5 -37.167 -41.5 -55.5s-33 -36.833 -51 -55.5l-46 -32v-2l57 15h140v-63h-291v33c15.333 12.667 34.5 29.667 57.5 51s45.167 44.333 66.5 69
s39.5 50 54.5 76s22.5 50 22.5 72c0 20.667 -6.66699 36.167 -20 46.5s-29.666 15.5 -48.999 15.5c-18 0 -35.5 -3.16699 -52.5 -9.5s-31.833 -13.5 -44.5 -21.5l-22 57c17.333 12 37.5 21.333 60.5 28s46.5 10 70.5 10c42 0 73.667 -10.333 95 -31s32 -49.334 32 -86.001z
M178.999 595.001l7 36l-28 -28l-78 -47l-27 49l154 102h42v-427h-70v315z" />
    <glyph glyph-name="threequarters" unicode="&#xbe;" horiz-adv-x="876" 
d="M667 713l52 -35l-487 -690l-52 36zM836 96h-83v-96h-67v96h-204v37l226 302h45v-280h83v-59zM686 283l6 49h-2l-22 -46l-78 -105l-33 -31l50 5h79v128zM178 333c32 0 56.499 6.33398 73.499 19.001s25.5 31.334 25.5 56.001c0 21.333 -7.66699 38.666 -23 51.999
s-40 20 -74 20h-55v23l97 116l34 27l-49 -6h-130v60h256v-33l-103 -123l-25 -18v-2l23 3c36.667 -0.666992 65.667 -11.667 87 -33s32 -50 32 -86c0 -40.667 -14.833 -73.334 -44.5 -98.001s-69.167 -37 -118.5 -37c-24 0 -44.667 2 -62 6s-32.666 8.33301 -45.999 13l15 60
c11.333 -5.33301 24.333 -9.83301 39 -13.5s30.667 -5.5 48 -5.5z" />
    <glyph glyph-name="questiondown" unicode="&#xbf;" horiz-adv-x="436" 
d="M286 323c0.666992 -3.33301 0.993164 -6.99805 0.993164 -10.998v-11c0 -28 -4.16699 -52.667 -12.5 -74s-18.666 -40.833 -30.999 -58.5s-25.666 -34.167 -39.999 -49.5s-27.666 -30.833 -39.999 -46.5s-22.666 -32.334 -30.999 -50.001s-12.5 -37.834 -12.5 -60.501
c0 -30.667 8.83301 -55.667 26.5 -75s47.167 -29 88.5 -29c24 0 48.333 4.16699 73 12.5s46 18.166 64 29.499l27 -62c-25.333 -15.333 -52 -27.5 -80 -36.5s-62.667 -13.5 -104 -13.5c-29.333 0 -55.166 4.16699 -77.499 12.5s-41 19.833 -56 34.5
s-26.167 31.834 -33.5 51.501s-11 41.167 -11 64.5c0 30 4.5 56.167 13.5 78.5s20.333 42.666 34 60.999s28.334 35.5 44.001 51.5s30.334 32.833 44.001 50.5s25 36.834 34 57.501s13.5 45 13.5 73h66zM190.993 454.002c0 18 5.16699 32.167 15.5 42.5
s24.166 15.5 41.499 15.5c18 0 32.333 -5.16699 43 -15.5s16 -24.5 16 -42.5c0 -17.333 -5.33301 -31.333 -16 -42s-25 -16 -43 -16c-17.333 0 -31.166 5.33301 -41.499 16s-15.5 24.667 -15.5 42z" />
    <glyph glyph-name="Agrave" unicode="&#xc0;" horiz-adv-x="585" 
d="M418 194h-258l-70 -194h-82l265 711h38l266 -711h-87zM187 266h206l-78 213l-25 106h-1l-25 -108zM367 752h-74l-158 97v21h114z" />
    <glyph glyph-name="Aacute" unicode="&#xc1;" horiz-adv-x="585" 
d="M418 194h-258l-70 -194h-82l265 711h38l266 -711h-87zM187 266h206l-78 213l-25 106h-1l-25 -108zM331 870h114v-21l-163 -97h-69z" />
    <glyph glyph-name="Acircumflex" unicode="&#xc2;" horiz-adv-x="585" 
d="M418 194h-258l-70 -194h-82l265 711h38l266 -711h-87zM187 266h206l-78 213l-25 106h-1l-25 -108zM265 870h60l127 -102v-21h-81l-60 49l-17 35l-19 -34l-64 -50h-79v22z" />
    <glyph glyph-name="Atilde" unicode="&#xc3;" horiz-adv-x="585" 
d="M418 194h-258l-70 -194h-82l265 711h38l266 -711h-87zM187 266h206l-78 213l-25 106h-1l-25 -108zM135 785c20.667 21.333 39.833 35.832 57.5 43.499s34.5 11.5 50.5 11.5c12.667 0 25 -1.66699 37 -5s23.5 -7.16602 34.5 -11.499s21.833 -8.16602 32.5 -11.499
s21 -5 31 -5c17.333 0 34 7 50 21l25 -43c-18 -16.667 -35 -28.167 -51 -34.5s-31 -9.5 -45 -9.5c-12.667 0 -24.667 1.66699 -36 5s-22.5 7.16602 -33.5 11.499s-21.833 8.16602 -32.5 11.499s-21.334 5 -32.001 5s-21.167 -2.16699 -31.5 -6.5
s-21.166 -12.166 -32.499 -23.499z" />
    <glyph glyph-name="Adieresis" unicode="&#xc4;" horiz-adv-x="585" 
d="M418 194h-258l-70 -194h-82l265 711h38l266 -711h-87zM187 266h206l-78 213l-25 106h-1l-25 -108zM144 794c0 14 5 25.333 15 34s23 13 39 13c15.333 0 27.833 -4.33301 37.5 -13s14.5 -20 14.5 -34c0 -13.333 -4.83301 -24.333 -14.5 -33s-22.167 -13 -37.5 -13
c-16 0 -29 4.33301 -39 13s-15 19.667 -15 33zM336 794c0 14 4.83301 25.333 14.5 34s22.167 13 37.5 13c16 0 29 -4.33301 39 -13s15 -20 15 -34c0 -13.333 -5 -24.333 -15 -33s-23 -13 -39 -13c-15.333 0 -27.833 4.33301 -37.5 13s-14.5 19.667 -14.5 33z" />
    <glyph glyph-name="Aring" unicode="&#xc5;" horiz-adv-x="585" 
d="M188 768c0 24.667 8.33203 45 24.999 61s43.334 24 80.001 24c33.333 0 59.333 -7.16699 78 -21.5s28 -35.5 28 -63.5c0 -21.333 -6.66699 -39.166 -20 -53.499s-33 -23.5 -59 -27.5l257 -687h-87l-72 194h-258l-70 -194h-82l256 687c-25.333 4 -44.333 13.167 -57 27.5
s-19 32.166 -19 53.499zM186.999 266h206l-78 213l-25 106h-1l-25 -108zM248.999 768c0 -11.333 3.49805 -20.833 10.498 -28.5s18.167 -11.5 33.5 -11.5c14.667 0 25.834 3.66699 33.501 11s11.5 17 11.5 29c0 12.667 -3.66699 22.834 -11 30.501
s-18.666 11.5 -33.999 11.5c-14.667 0 -25.667 -3.83301 -33 -11.5s-11 -17.834 -11 -30.501z" />
    <glyph glyph-name="AE" unicode="&#xc6;" horiz-adv-x="846" 
d="M391 600l-34 -103l-133 -229h171v332h-4zM395 198h-214l-112 -198h-91l415 700h383v-74h-298v-229h273v-74h-273v-249h303v-74h-386v198z" />
    <glyph glyph-name="Ccedilla" unicode="&#xc7;" horiz-adv-x="571" 
d="M533 29c-17.333 -13.333 -38.665 -23.0029 -63.998 -29.0029s-53 -9.66699 -83 -11l-17 -32c28 -5.33301 48.167 -14 60.5 -26s18.5 -28.333 18.5 -49c0 -26 -10.667 -47.5 -32 -64.5s-51.333 -25.5 -90 -25.5c-7.33301 0 -14.666 0.333008 -21.999 1s-15 1.66699 -23 3
l9 39c4 -0.666992 7.66699 -1 11 -1h10c14.667 0 26.167 1.33301 34.5 4s14.666 5.83398 18.999 9.50098s7 7.83398 8 12.501s1.5 9 1.5 13c0 18.667 -28.667 31 -86 37l42 80c-38.667 2.66699 -74.667 11.834 -108 27.501s-62.333 38.167 -87 67.5s-44 66 -58 110
s-21 95.667 -21 155c0 65.333 8.83301 120.833 26.5 166.5s41 83 70 112s61.5 50.167 97.5 63.5s72.667 20 110 20c40 0 72.667 -2.16699 98 -6.5s47 -10.166 65 -17.499l-20 -73c-32 15.333 -77.667 23 -137 23c-27.333 0 -54.333 -5 -81 -15s-50.5 -26.333 -71.5 -49
s-37.833 -52.334 -50.5 -89.001s-19 -81.667 -19 -135c0 -48 6 -90 18 -126s28.5 -66 49.5 -90s45.667 -42 74 -54s59.166 -18 92.499 -18c30 0 56.167 3 78.5 9s41.166 13.667 56.499 23z" />
    <glyph glyph-name="Egrave" unicode="&#xc8;" 
d="M85 700h381v-74h-298v-229h273v-74h-273v-249h303v-74h-386v700zM326 752h-74l-158 97v21h114z" />
    <glyph glyph-name="Eacute" unicode="&#xc9;" 
d="M85 700h381v-74h-298v-229h273v-74h-273v-249h303v-74h-386v700zM330 870h114v-21l-163 -97h-69z" />
    <glyph glyph-name="Ecircumflex" unicode="&#xca;" 
d="M85 700h381v-74h-298v-229h273v-74h-273v-249h303v-74h-386v700zM242 870h60l127 -102v-21h-81l-60 49l-17 35l-19 -34l-64 -50h-79v22z" />
    <glyph glyph-name="Edieresis" unicode="&#xcb;" 
d="M85 700h381v-74h-298v-229h273v-74h-273v-249h303v-74h-386v700zM120 794c0 14 5 25.333 15 34s23 13 39 13c15.333 0 27.833 -4.33301 37.5 -13s14.5 -20 14.5 -34c0 -13.333 -4.83301 -24.333 -14.5 -33s-22.167 -13 -37.5 -13c-16 0 -29 4.33301 -39 13
s-15 19.667 -15 33zM312 794c0 14 4.83301 25.333 14.5 34s22.167 13 37.5 13c16 0 29 -4.33301 39 -13s15 -20 15 -34c0 -13.333 -5 -24.333 -15 -33s-23 -13 -39 -13c-15.333 0 -27.833 4.33301 -37.5 13s-14.5 19.667 -14.5 33z" />
    <glyph glyph-name="Igrave" unicode="&#xcc;" horiz-adv-x="291" 
d="M104 700h83v-700h-83v700zM233 752h-74l-158 97v21h114z" />
    <glyph glyph-name="Iacute" unicode="&#xcd;" horiz-adv-x="291" 
d="M104 700h83v-700h-83v700zM180 870h114v-21l-163 -97h-69z" />
    <glyph glyph-name="Icircumflex" unicode="&#xce;" horiz-adv-x="291" 
d="M104 700h83v-700h-83v700zM118 870h60l127 -102v-21h-81l-60 49l-17 35l-19 -34l-64 -50h-79v22z" />
    <glyph glyph-name="Idieresis" unicode="&#xcf;" horiz-adv-x="291" 
d="M104 700h83v-700h-83v700zM-2 794c0 14 5 25.333 15 34s23 13 39 13c15.333 0 27.833 -4.33301 37.5 -13s14.5 -20 14.5 -34c0 -13.333 -4.83301 -24.333 -14.5 -33s-22.167 -13 -37.5 -13c-16 0 -29 4.33301 -39 13s-15 19.667 -15 33zM190 794
c0 14 4.83301 25.333 14.5 34s22.167 13 37.5 13c16 0 29 -4.33301 39 -13s15 -20 15 -34c0 -13.333 -5 -24.333 -15 -33s-23 -13 -39 -13c-15.333 0 -27.833 4.33301 -37.5 13s-14.5 19.667 -14.5 33z" />
    <glyph glyph-name="Eth" unicode="&#xd0;" horiz-adv-x="658" 
d="M-1 392l90.001 0.000976562v308c12.667 2 26.834 3.5 42.501 4.5s32 1.66699 49 2l50 1c16.333 0.333008 31.5 0.5 45.5 0.5c56 0 104.5 -8.66699 145.5 -26s74.833 -41.5 101.5 -72.5s46.5 -68.167 59.5 -111.5s19.5 -91 19.5 -143
c0 -47.333 -6.16699 -92.833 -18.5 -136.5s-31.833 -82.334 -58.5 -116.001s-61.334 -60.667 -104.001 -81s-94.334 -30.5 -155.001 -30.5c-10.667 0 -24.5 0.166992 -41.5 0.5s-34.5 1 -52.5 2s-34.667 1.83301 -50 2.5s-26.333 1.66699 -33 3v333h-90v60zM278.001 634.001
l-28.499 0.00195312c-10.333 0 -20.5 -0.333008 -30.5 -1s-19.167 -1.33398 -27.5 -2.00098s-14.833 -1.33398 -19.5 -2.00098v-237h147v-60h-147v-263c3.33301 -0.666992 9.66602 -1.16699 18.999 -1.5l29 -1l29 -1c9.33301 -0.333008 15.666 -0.5 18.999 -0.5
c46.667 0 85.834 8 117.501 24s57 37.5 76 64.5s32.5 58 40.5 93s12 71.167 12 108.5c0 32.667 -3.66699 65.5 -11 98.5s-20 62.833 -38 89.5s-42.167 48.5 -72.5 65.5s-68.5 25.5 -114.5 25.5z" />
    <glyph glyph-name="Ntilde" unicode="&#xd1;" horiz-adv-x="673" 
d="M211 458l-54 101h-4l10 -101v-458h-78v711h44l335 -467l52 -96h5l-11 96v456h78v-711h-44zM179 785c20.667 21.333 39.833 35.832 57.5 43.499s34.5 11.5 50.5 11.5c12.667 0 25 -1.66699 37 -5s23.5 -7.16602 34.5 -11.499s21.833 -8.16602 32.5 -11.499s21 -5 31 -5
c17.333 0 34 7 50 21l25 -43c-18 -16.667 -35 -28.167 -51 -34.5s-31 -9.5 -45 -9.5c-12.667 0 -24.667 1.66699 -36 5s-22.5 7.16602 -33.5 11.499s-21.833 8.16602 -32.5 11.499s-21.334 5 -32.001 5s-21.167 -2.16699 -31.5 -6.5s-21.166 -12.166 -32.499 -23.499z" />
    <glyph glyph-name="Ograve" unicode="&#xd2;" horiz-adv-x="684" 
d="M56 350c0 116.667 24.6699 206.167 74.0029 268.5s119.666 93.5 210.999 93.5c49.333 0 92 -8.66699 128 -26s65.833 -41.833 89.5 -73.5s41.167 -69.667 52.5 -114s17 -93.833 17 -148.5c0 -116.667 -24.833 -206.167 -74.5 -268.5s-120.5 -93.5 -212.5 -93.5
c-48.667 0 -90.834 8.66699 -126.501 26s-65.334 41.833 -89.001 73.5s-41.167 69.667 -52.5 114s-17 93.833 -17 148.5zM144.003 350c0 -38.667 3.83301 -75.333 11.5 -110s19.5 -65.167 35.5 -91.5s36.5 -47.333 61.5 -63s54.5 -23.5 88.5 -23.5
c62 0 110.667 23.5 146 70.5s53 119.5 53 217.5c0 38 -3.83301 74.5 -11.5 109.5s-19.667 65.667 -36 92s-37 47.333 -62 63s-54.833 23.5 -89.5 23.5c-61.333 0 -109.5 -23.5 -144.5 -70.5s-52.5 -119.5 -52.5 -217.5zM410.003 752.001h-74l-158 97v21h114z" />
    <glyph glyph-name="Oacute" unicode="&#xd3;" horiz-adv-x="684" 
d="M56 350c0 116.667 24.6699 206.167 74.0029 268.5s119.666 93.5 210.999 93.5c49.333 0 92 -8.66699 128 -26s65.833 -41.833 89.5 -73.5s41.167 -69.667 52.5 -114s17 -93.833 17 -148.5c0 -116.667 -24.833 -206.167 -74.5 -268.5s-120.5 -93.5 -212.5 -93.5
c-48.667 0 -90.834 8.66699 -126.501 26s-65.334 41.833 -89.001 73.5s-41.167 69.667 -52.5 114s-17 93.833 -17 148.5zM144.003 350c0 -38.667 3.83301 -75.333 11.5 -110s19.5 -65.167 35.5 -91.5s36.5 -47.333 61.5 -63s54.5 -23.5 88.5 -23.5
c62 0 110.667 23.5 146 70.5s53 119.5 53 217.5c0 38 -3.83301 74.5 -11.5 109.5s-19.667 65.667 -36 92s-37 47.333 -62 63s-54.833 23.5 -89.5 23.5c-61.333 0 -109.5 -23.5 -144.5 -70.5s-52.5 -119.5 -52.5 -217.5zM415.003 870.001h114v-21l-163 -97h-69z" />
    <glyph glyph-name="Ocircumflex" unicode="&#xd4;" horiz-adv-x="684" 
d="M56 350c0 116.667 24.6699 206.167 74.0029 268.5s119.666 93.5 210.999 93.5c49.333 0 92 -8.66699 128 -26s65.833 -41.833 89.5 -73.5s41.167 -69.667 52.5 -114s17 -93.833 17 -148.5c0 -116.667 -24.833 -206.167 -74.5 -268.5s-120.5 -93.5 -212.5 -93.5
c-48.667 0 -90.834 8.66699 -126.501 26s-65.334 41.833 -89.001 73.5s-41.167 69.667 -52.5 114s-17 93.833 -17 148.5zM144.003 350c0 -38.667 3.83301 -75.333 11.5 -110s19.5 -65.167 35.5 -91.5s36.5 -47.333 61.5 -63s54.5 -23.5 88.5 -23.5
c62 0 110.667 23.5 146 70.5s53 119.5 53 217.5c0 38 -3.83301 74.5 -11.5 109.5s-19.667 65.667 -36 92s-37 47.333 -62 63s-54.833 23.5 -89.5 23.5c-61.333 0 -109.5 -23.5 -144.5 -70.5s-52.5 -119.5 -52.5 -217.5zM312.003 870.001h60l127 -102v-21h-81l-60 49l-17 35
l-19 -34l-64 -50h-79v22z" />
    <glyph glyph-name="Otilde" unicode="&#xd5;" horiz-adv-x="684" 
d="M56 350c0 116.667 24.6699 206.167 74.0029 268.5s119.666 93.5 210.999 93.5c49.333 0 92 -8.66699 128 -26s65.833 -41.833 89.5 -73.5s41.167 -69.667 52.5 -114s17 -93.833 17 -148.5c0 -116.667 -24.833 -206.167 -74.5 -268.5s-120.5 -93.5 -212.5 -93.5
c-48.667 0 -90.834 8.66699 -126.501 26s-65.334 41.833 -89.001 73.5s-41.167 69.667 -52.5 114s-17 93.833 -17 148.5zM144.003 350c0 -38.667 3.83301 -75.333 11.5 -110s19.5 -65.167 35.5 -91.5s36.5 -47.333 61.5 -63s54.5 -23.5 88.5 -23.5
c62 0 110.667 23.5 146 70.5s53 119.5 53 217.5c0 38 -3.83301 74.5 -11.5 109.5s-19.667 65.667 -36 92s-37 47.333 -62 63s-54.833 23.5 -89.5 23.5c-61.333 0 -109.5 -23.5 -144.5 -70.5s-52.5 -119.5 -52.5 -217.5zM182.003 785.001
c20.667 21.333 39.833 35.832 57.5 43.499s34.5 11.5 50.5 11.5c12.667 0 25 -1.66699 37 -5s23.5 -7.16602 34.5 -11.499s21.833 -8.16602 32.5 -11.499s21 -5 31 -5c17.333 0 34 7 50 21l25 -43c-18 -16.667 -35 -28.167 -51 -34.5s-31 -9.5 -45 -9.5
c-12.667 0 -24.667 1.66699 -36 5s-22.5 7.16602 -33.5 11.499s-21.833 8.16602 -32.5 11.499s-21.334 5 -32.001 5s-21.167 -2.16699 -31.5 -6.5s-21.166 -12.166 -32.499 -23.499z" />
    <glyph glyph-name="Odieresis" unicode="&#xd6;" horiz-adv-x="684" 
d="M56 350c0 116.667 24.6699 206.167 74.0029 268.5s119.666 93.5 210.999 93.5c49.333 0 92 -8.66699 128 -26s65.833 -41.833 89.5 -73.5s41.167 -69.667 52.5 -114s17 -93.833 17 -148.5c0 -116.667 -24.833 -206.167 -74.5 -268.5s-120.5 -93.5 -212.5 -93.5
c-48.667 0 -90.834 8.66699 -126.501 26s-65.334 41.833 -89.001 73.5s-41.167 69.667 -52.5 114s-17 93.833 -17 148.5zM144.003 350c0 -38.667 3.83301 -75.333 11.5 -110s19.5 -65.167 35.5 -91.5s36.5 -47.333 61.5 -63s54.5 -23.5 88.5 -23.5
c62 0 110.667 23.5 146 70.5s53 119.5 53 217.5c0 38 -3.83301 74.5 -11.5 109.5s-19.667 65.667 -36 92s-37 47.333 -62 63s-54.833 23.5 -89.5 23.5c-61.333 0 -109.5 -23.5 -144.5 -70.5s-52.5 -119.5 -52.5 -217.5zM190.003 794.001c0 14 5 25.333 15 34s23 13 39 13
c15.333 0 27.833 -4.33301 37.5 -13s14.5 -20 14.5 -34c0 -13.333 -4.83301 -24.333 -14.5 -33s-22.167 -13 -37.5 -13c-16 0 -29 4.33301 -39 13s-15 19.667 -15 33zM382.003 794.001c0 14 4.83301 25.333 14.5 34s22.167 13 37.5 13c16 0 29 -4.33301 39 -13
s15 -20 15 -34c0 -13.333 -5 -24.333 -15 -33s-23 -13 -39 -13c-15.333 0 -27.833 4.33301 -37.5 13s-14.5 19.667 -14.5 33z" />
    <glyph glyph-name="multiply" unicode="&#xd7;" horiz-adv-x="505" 
d="M127 517l126 -127l127 127l51 -53l-126 -126l126 -127l-51 -52l-127 128l-127 -128l-52 51l128 129l-126 125z" />
    <glyph glyph-name="Oslash" unicode="&#xd8;" horiz-adv-x="684" 
d="M122 91c-22.667 32 -39.333 69.667 -50 113s-16 92 -16 146c0 116.667 24.667 206.167 74 268.5s119.666 93.5 210.999 93.5c38 0 71.667 -5 101 -15s55.333 -24.667 78 -44l42 60l52 -35l-51 -72c22 -32 38.333 -69.5 49 -112.5s16 -90.833 16 -143.5
c0 -116.667 -24.833 -206.167 -74.5 -268.5s-120.5 -93.5 -212.5 -93.5c-71.333 0 -129.666 18.667 -174.999 56l-39 -56l-52 36zM144.001 350c0 -34 2.83301 -66 8.5 -96s14.5 -57.667 26.5 -83l290 411c-15.333 17.333 -33.5 31 -54.5 41s-45.5 15 -73.5 15
c-61.333 0 -109.5 -23.5 -144.5 -70.5s-52.5 -119.5 -52.5 -217.5zM540.001 350c0 32 -2.83398 63 -8.50098 93s-14.167 57.333 -25.5 82l-290 -411c15.333 -16.667 33.333 -29.5 54 -38.5s44.334 -13.5 71.001 -13.5c62 0 110.667 23.5 146 70.5s53 119.5 53 217.5z" />
    <glyph glyph-name="Ugrave" unicode="&#xd9;" horiz-adv-x="652" 
d="M487 700h80.001v-467c0 -42 -5.5 -78.333 -16.5 -109s-26.667 -55.834 -47 -75.501s-44.833 -34.167 -73.5 -43.5s-60.334 -14 -95.001 -14c-82.667 0 -145 18.667 -187 56s-63 94 -63 170v483h83v-444c0 -35.333 3.5 -65.166 10.5 -89.499s17.5 -44 31.5 -59
s31.5 -25.833 52.5 -32.5s45.5 -10 73.5 -10c54 0 92.667 14.833 116 44.5s35 78.5 35 146.5v444zM407.001 752h-74l-158 97v21h114z" />
    <glyph glyph-name="Uacute" unicode="&#xda;" horiz-adv-x="652" 
d="M487 700h80.001v-467c0 -42 -5.5 -78.333 -16.5 -109s-26.667 -55.834 -47 -75.501s-44.833 -34.167 -73.5 -43.5s-60.334 -14 -95.001 -14c-82.667 0 -145 18.667 -187 56s-63 94 -63 170v483h83v-444c0 -35.333 3.5 -65.166 10.5 -89.499s17.5 -44 31.5 -59
s31.5 -25.833 52.5 -32.5s45.5 -10 73.5 -10c54 0 92.667 14.833 116 44.5s35 78.5 35 146.5v444zM390.001 870h114v-21l-163 -97h-69z" />
    <glyph glyph-name="Ucircumflex" unicode="&#xdb;" horiz-adv-x="652" 
d="M487 700h80.001v-467c0 -42 -5.5 -78.333 -16.5 -109s-26.667 -55.834 -47 -75.501s-44.833 -34.167 -73.5 -43.5s-60.334 -14 -95.001 -14c-82.667 0 -145 18.667 -187 56s-63 94 -63 170v483h83v-444c0 -35.333 3.5 -65.166 10.5 -89.499s17.5 -44 31.5 -59
s31.5 -25.833 52.5 -32.5s45.5 -10 73.5 -10c54 0 92.667 14.833 116 44.5s35 78.5 35 146.5v444zM301.001 870h60l127 -102v-21h-81l-60 49l-17 35l-19 -34l-64 -50h-79v22z" />
    <glyph glyph-name="Udieresis" unicode="&#xdc;" horiz-adv-x="652" 
d="M487 700h80.001v-467c0 -42 -5.5 -78.333 -16.5 -109s-26.667 -55.834 -47 -75.501s-44.833 -34.167 -73.5 -43.5s-60.334 -14 -95.001 -14c-82.667 0 -145 18.667 -187 56s-63 94 -63 170v483h83v-444c0 -35.333 3.5 -65.166 10.5 -89.499s17.5 -44 31.5 -59
s31.5 -25.833 52.5 -32.5s45.5 -10 73.5 -10c54 0 92.667 14.833 116 44.5s35 78.5 35 146.5v444zM178.001 794c0 14 5 25.333 15 34s23 13 39 13c15.333 0 27.833 -4.33301 37.5 -13s14.5 -20 14.5 -34c0 -13.333 -4.83301 -24.333 -14.5 -33s-22.167 -13 -37.5 -13
c-16 0 -29 4.33301 -39 13s-15 19.667 -15 33zM370.001 794c0 14 4.83301 25.333 14.5 34s22.167 13 37.5 13c16 0 29 -4.33301 39 -13s15 -20 15 -34c0 -13.333 -5 -24.333 -15 -33s-23 -13 -39 -13c-15.333 0 -27.833 4.33301 -37.5 13s-14.5 19.667 -14.5 33z" />
    <glyph glyph-name="Yacute" unicode="&#xdd;" horiz-adv-x="558" 
d="M239 278l-231 422h97l164 -306l17 -61h1l18 63l157 304h89l-229 -421v-279h-83v278zM355 870h114v-21l-163 -97h-69z" />
    <glyph glyph-name="Thorn" unicode="&#xde;" horiz-adv-x="559" 
d="M85 700l82.999 -0.00292969v-75c28 2 56.667 3 86 3c30.667 0 61.834 -3 93.501 -9s60.5 -17 86.5 -33s47.167 -38 63.5 -66s24.5 -63.667 24.5 -107c0 -42.667 -7.66699 -78.667 -23 -108s-35.666 -53.166 -60.999 -71.499s-54.333 -31.666 -87 -39.999
s-66.334 -12.5 -101.001 -12.5h-16.5c-7.66699 0 -15.667 0.166992 -24 0.5s-16.5 0.833008 -24.5 1.5s-13.667 1.33398 -17 2.00098v-185h-83v700zM255.999 555.997c-17.333 0 -34 -0.333008 -50 -1s-28.667 -2.33398 -38 -5.00098v-290
c3.33301 -1.33301 8.66602 -2.16602 15.999 -2.49902s15 -0.833008 23 -1.5s15.667 -1 23 -1h16c22.667 0 45.167 2.16699 67.5 6.5s42.5 12.333 60.5 24s32.5 27.834 43.5 48.501s16.5 47 16.5 79c0 27.333 -5.16699 50.166 -15.5 68.499s-24 33 -41 44
s-36.167 18.833 -57.5 23.5s-42.666 7 -63.999 7z" />
    <glyph glyph-name="germandbls" unicode="&#xdf;" horiz-adv-x="592" 
d="M384 559c0 11.333 -3.16504 21.833 -9.49805 31.5s-14.5 17.834 -24.5 24.501s-21 11.834 -33 15.501s-23.667 5.5 -35 5.5c-18.667 0 -34.5 -2.33301 -47.5 -7s-23.5 -12.334 -31.5 -23.001s-13.833 -24.834 -17.5 -42.501s-5.5 -39.5 -5.5 -65.5v-498h-80v430h-78v70
h78v23c0 64.667 15.833 111.334 47.5 140.001s75.5 43 131.5 43c27.333 0 52.333 -3.5 75 -10.5s42.167 -17 58.5 -30s29 -28.333 38 -46s13.5 -37.5 13.5 -59.5c0 -25.333 -6.33301 -45.666 -19 -60.999s-26.5 -29 -41.5 -41s-28.833 -23.667 -41.5 -35
s-19 -25.333 -19 -42c0 -14.667 5 -26.334 15 -35.001s22.667 -16.334 38 -23.001l49 -20.5c17.333 -7 33.666 -16.167 48.999 -27.5s28 -26.166 38 -44.499s15 -42.166 15 -71.499c0 -21.333 -4 -42.166 -12 -62.499s-19.5 -38.5 -34.5 -54.5s-33.833 -29 -56.5 -39
s-48.334 -15 -77.001 -15c-15.333 0 -28.833 0.5 -40.5 1.5s-22.334 2.66699 -32.001 5s-18.834 5.16602 -27.501 8.49902s-17.334 7.66602 -26.001 12.999l23 65c8 -4 15 -7.66699 21 -11s12.5 -6 19.5 -8s14.833 -3.5 23.5 -4.5s19.334 -1.5 32.001 -1.5
c14 0 27.5 2.5 40.5 7.5s24.5 11.833 34.5 20.5s17.833 19.167 23.5 31.5s8.5 25.833 8.5 40.5c0 20 -5 35.833 -15 47.5s-22.667 21.5 -38 29.5s-31.666 15.167 -48.999 21.5s-33.666 14.333 -48.999 24s-28 22 -38 37s-15 35.167 -15 60.5c0 26 6.33301 46.833 19 62.5
s26.5 29.667 41.5 42l41.5 35.5c12.667 11.333 19 25.666 19 42.999z" />
    <glyph glyph-name="agrave" unicode="&#xe0;" horiz-adv-x="496" 
d="M69 463c25.333 15.333 54.8311 26.665 88.498 33.998s68.834 11 105.501 11c34.667 0 62.5 -4.66699 83.5 -14s37 -21.5 48 -36.5s18.333 -31.5 22 -49.5s5.5 -36 5.5 -54c0 -40 -1 -79 -3 -117s-3 -74 -3 -108c0 -24.667 1 -48 3 -70s5.66699 -42.333 11 -61h-59l-21 70
h-5c-6 -9.33301 -13.5 -18.5 -22.5 -27.5s-19.833 -17 -32.5 -24s-27.334 -12.833 -44.001 -17.5s-35.667 -7 -57 -7s-41.166 3.33301 -59.499 10s-34.166 16.167 -47.499 28.5s-23.833 27.166 -31.5 44.499s-11.5 37 -11.5 59c0 29.333 6 53.833 18 73.5
s28.833 35.334 50.5 47.001s47.667 20 78 25s63.833 7.5 100.5 7.5h27.5c9 0 18.167 -0.666992 27.5 -2c2 20 3 38 3 54c0 36.667 -7.33301 62.334 -22 77.001s-41.334 22 -80.001 22c-11.333 0 -23.5 -0.833008 -36.5 -2.5s-26.333 -4 -40 -7s-26.667 -6.66699 -39 -11
s-23.166 -9.16602 -32.499 -14.499zM210.998 61.999c18.667 0 35.333 2.49902 50 7.49902s27.334 11.333 38.001 19s19.5 16.167 26.5 25.5s12.167 18.333 15.5 27v83c-9.33301 0.666992 -18.833 1.16699 -28.5 1.5s-19.167 0.5 -28.5 0.5
c-20.667 0 -40.834 -1.16699 -60.501 -3.5s-37 -6.66602 -52 -12.999s-27 -15 -36 -26s-13.5 -24.833 -13.5 -41.5c0 -23.333 8.33301 -42.5 25 -57.5s38 -22.5 64 -22.5zM304.997 570.998h-45l-115 128v21h95z" />
    <glyph glyph-name="aacute" unicode="&#xe1;" horiz-adv-x="496" 
d="M69 463c25.333 15.333 54.8311 26.665 88.498 33.998s68.834 11 105.501 11c34.667 0 62.5 -4.66699 83.5 -14s37 -21.5 48 -36.5s18.333 -31.5 22 -49.5s5.5 -36 5.5 -54c0 -40 -1 -79 -3 -117s-3 -74 -3 -108c0 -24.667 1 -48 3 -70s5.66699 -42.333 11 -61h-59l-21 70
h-5c-6 -9.33301 -13.5 -18.5 -22.5 -27.5s-19.833 -17 -32.5 -24s-27.334 -12.833 -44.001 -17.5s-35.667 -7 -57 -7s-41.166 3.33301 -59.499 10s-34.166 16.167 -47.499 28.5s-23.833 27.166 -31.5 44.499s-11.5 37 -11.5 59c0 29.333 6 53.833 18 73.5
s28.833 35.334 50.5 47.001s47.667 20 78 25s63.833 7.5 100.5 7.5h27.5c9 0 18.167 -0.666992 27.5 -2c2 20 3 38 3 54c0 36.667 -7.33301 62.334 -22 77.001s-41.334 22 -80.001 22c-11.333 0 -23.5 -0.833008 -36.5 -2.5s-26.333 -4 -40 -7s-26.667 -6.66699 -39 -11
s-23.166 -9.16602 -32.499 -14.499zM210.998 61.999c18.667 0 35.333 2.49902 50 7.49902s27.334 11.333 38.001 19s19.5 16.167 26.5 25.5s12.167 18.333 15.5 27v83c-9.33301 0.666992 -18.833 1.16699 -28.5 1.5s-19.167 0.5 -28.5 0.5
c-20.667 0 -40.834 -1.16699 -60.501 -3.5s-37 -6.66602 -52 -12.999s-27 -15 -36 -26s-13.5 -24.833 -13.5 -41.5c0 -23.333 8.33301 -42.5 25 -57.5s38 -22.5 64 -22.5zM237.997 719.998h89v-21l-101 -128h-47z" />
    <glyph glyph-name="acircumflex" unicode="&#xe2;" horiz-adv-x="496" 
d="M69 463c25.333 15.333 54.8311 26.665 88.498 33.998s68.834 11 105.501 11c34.667 0 62.5 -4.66699 83.5 -14s37 -21.5 48 -36.5s18.333 -31.5 22 -49.5s5.5 -36 5.5 -54c0 -40 -1 -79 -3 -117s-3 -74 -3 -108c0 -24.667 1 -48 3 -70s5.66699 -42.333 11 -61h-59l-21 70
h-5c-6 -9.33301 -13.5 -18.5 -22.5 -27.5s-19.833 -17 -32.5 -24s-27.334 -12.833 -44.001 -17.5s-35.667 -7 -57 -7s-41.166 3.33301 -59.499 10s-34.166 16.167 -47.499 28.5s-23.833 27.166 -31.5 44.499s-11.5 37 -11.5 59c0 29.333 6 53.833 18 73.5
s28.833 35.334 50.5 47.001s47.667 20 78 25s63.833 7.5 100.5 7.5h27.5c9 0 18.167 -0.666992 27.5 -2c2 20 3 38 3 54c0 36.667 -7.33301 62.334 -22 77.001s-41.334 22 -80.001 22c-11.333 0 -23.5 -0.833008 -36.5 -2.5s-26.333 -4 -40 -7s-26.667 -6.66699 -39 -11
s-23.166 -9.16602 -32.499 -14.499zM210.998 61.999c18.667 0 35.333 2.49902 50 7.49902s27.334 11.333 38.001 19s19.5 16.167 26.5 25.5s12.167 18.333 15.5 27v83c-9.33301 0.666992 -18.833 1.16699 -28.5 1.5s-19.167 0.5 -28.5 0.5
c-20.667 0 -40.834 -1.16699 -60.501 -3.5s-37 -6.66602 -52 -12.999s-27 -15 -36 -26s-13.5 -24.833 -13.5 -41.5c0 -23.333 8.33301 -42.5 25 -57.5s38 -22.5 64 -22.5zM238.997 731.998h32l111 -182h-72l-39 66l-21 58l-22 -58l-45 -66h-67z" />
    <glyph glyph-name="atilde" unicode="&#xe3;" horiz-adv-x="496" 
d="M69 463c25.333 15.333 54.8311 26.665 88.498 33.998s68.834 11 105.501 11c34.667 0 62.5 -4.66699 83.5 -14s37 -21.5 48 -36.5s18.333 -31.5 22 -49.5s5.5 -36 5.5 -54c0 -40 -1 -79 -3 -117s-3 -74 -3 -108c0 -24.667 1 -48 3 -70s5.66699 -42.333 11 -61h-59l-21 70
h-5c-6 -9.33301 -13.5 -18.5 -22.5 -27.5s-19.833 -17 -32.5 -24s-27.334 -12.833 -44.001 -17.5s-35.667 -7 -57 -7s-41.166 3.33301 -59.499 10s-34.166 16.167 -47.499 28.5s-23.833 27.166 -31.5 44.499s-11.5 37 -11.5 59c0 29.333 6 53.833 18 73.5
s28.833 35.334 50.5 47.001s47.667 20 78 25s63.833 7.5 100.5 7.5h27.5c9 0 18.167 -0.666992 27.5 -2c2 20 3 38 3 54c0 36.667 -7.33301 62.334 -22 77.001s-41.334 22 -80.001 22c-11.333 0 -23.5 -0.833008 -36.5 -2.5s-26.333 -4 -40 -7s-26.667 -6.66699 -39 -11
s-23.166 -9.16602 -32.499 -14.499zM210.998 61.999c18.667 0 35.333 2.49902 50 7.49902s27.334 11.333 38.001 19s19.5 16.167 26.5 25.5s12.167 18.333 15.5 27v83c-9.33301 0.666992 -18.833 1.16699 -28.5 1.5s-19.167 0.5 -28.5 0.5
c-20.667 0 -40.834 -1.16699 -60.501 -3.5s-37 -6.66602 -52 -12.999s-27 -15 -36 -26s-13.5 -24.833 -13.5 -41.5c0 -23.333 8.33301 -42.5 25 -57.5s38 -22.5 64 -22.5zM108.997 655.998c19.333 22 37 37.167 53 45.5s30.667 12.5 44 12.5
c11.333 0 21.833 -2.16699 31.5 -6.5s19 -9 28 -14s17.667 -9.5 26 -13.5s17.166 -6 26.499 -6c14.667 0 30 8 46 24l24 -43c-17.333 -19.333 -33.166 -32.5 -47.499 -39.5s-27.5 -10.5 -39.5 -10.5c-10.667 0 -20.667 2 -30 6s-18.5 8.5 -27.5 13.5s-18 9.66699 -27 14
s-18.167 6.5 -27.5 6.5c-8.66699 0 -17.5 -2.33301 -26.5 -7s-19.167 -12.667 -30.5 -24z" />
    <glyph glyph-name="adieresis" unicode="&#xe4;" horiz-adv-x="496" 
d="M69 463c25.333 15.333 54.8311 26.665 88.498 33.998s68.834 11 105.501 11c34.667 0 62.5 -4.66699 83.5 -14s37 -21.5 48 -36.5s18.333 -31.5 22 -49.5s5.5 -36 5.5 -54c0 -40 -1 -79 -3 -117s-3 -74 -3 -108c0 -24.667 1 -48 3 -70s5.66699 -42.333 11 -61h-59l-21 70
h-5c-6 -9.33301 -13.5 -18.5 -22.5 -27.5s-19.833 -17 -32.5 -24s-27.334 -12.833 -44.001 -17.5s-35.667 -7 -57 -7s-41.166 3.33301 -59.499 10s-34.166 16.167 -47.499 28.5s-23.833 27.166 -31.5 44.499s-11.5 37 -11.5 59c0 29.333 6 53.833 18 73.5
s28.833 35.334 50.5 47.001s47.667 20 78 25s63.833 7.5 100.5 7.5h27.5c9 0 18.167 -0.666992 27.5 -2c2 20 3 38 3 54c0 36.667 -7.33301 62.334 -22 77.001s-41.334 22 -80.001 22c-11.333 0 -23.5 -0.833008 -36.5 -2.5s-26.333 -4 -40 -7s-26.667 -6.66699 -39 -11
s-23.166 -9.16602 -32.499 -14.499zM210.998 61.999c18.667 0 35.333 2.49902 50 7.49902s27.334 11.333 38.001 19s19.5 16.167 26.5 25.5s12.167 18.333 15.5 27v83c-9.33301 0.666992 -18.833 1.16699 -28.5 1.5s-19.167 0.5 -28.5 0.5
c-20.667 0 -40.834 -1.16699 -60.501 -3.5s-37 -6.66602 -52 -12.999s-27 -15 -36 -26s-13.5 -24.833 -13.5 -41.5c0 -23.333 8.33301 -42.5 25 -57.5s38 -22.5 64 -22.5zM104.997 652.998c0 15.333 4.5 27.666 13.5 36.999s20.833 14 35.5 14s26.5 -4.66699 35.5 -14
s13.5 -21.666 13.5 -36.999c0 -14 -4.5 -25.667 -13.5 -35s-20.833 -14 -35.5 -14s-26.5 4.66699 -35.5 14s-13.5 21 -13.5 35zM296.997 652.998c0 15.333 4.5 27.666 13.5 36.999s20.833 14 35.5 14c15.333 0 27.5 -4.66699 36.5 -14s13.5 -21.666 13.5 -36.999
c0 -14 -4.5 -25.667 -13.5 -35s-21.167 -14 -36.5 -14c-14.667 0 -26.5 4.66699 -35.5 14s-13.5 21 -13.5 35z" />
    <glyph glyph-name="aring" unicode="&#xe5;" horiz-adv-x="496" 
d="M69 463c25.333 15.333 54.8311 26.665 88.498 33.998s68.834 11 105.501 11c34.667 0 62.5 -4.66699 83.5 -14s37 -21.5 48 -36.5s18.333 -31.5 22 -49.5s5.5 -36 5.5 -54c0 -40 -1 -79 -3 -117s-3 -74 -3 -108c0 -24.667 1 -48 3 -70s5.66699 -42.333 11 -61h-59l-21 70
h-5c-6 -9.33301 -13.5 -18.5 -22.5 -27.5s-19.833 -17 -32.5 -24s-27.334 -12.833 -44.001 -17.5s-35.667 -7 -57 -7s-41.166 3.33301 -59.499 10s-34.166 16.167 -47.499 28.5s-23.833 27.166 -31.5 44.499s-11.5 37 -11.5 59c0 29.333 6 53.833 18 73.5
s28.833 35.334 50.5 47.001s47.667 20 78 25s63.833 7.5 100.5 7.5h27.5c9 0 18.167 -0.666992 27.5 -2c2 20 3 38 3 54c0 36.667 -7.33301 62.334 -22 77.001s-41.334 22 -80.001 22c-11.333 0 -23.5 -0.833008 -36.5 -2.5s-26.333 -4 -40 -7s-26.667 -6.66699 -39 -11
s-23.166 -9.16602 -32.499 -14.499zM210.998 61.999c18.667 0 35.333 2.49902 50 7.49902s27.334 11.333 38.001 19s19.5 16.167 26.5 25.5s12.167 18.333 15.5 27v83c-9.33301 0.666992 -18.833 1.16699 -28.5 1.5s-19.167 0.5 -28.5 0.5
c-20.667 0 -40.834 -1.16699 -60.501 -3.5s-37 -6.66602 -52 -12.999s-27 -15 -36 -26s-13.5 -24.833 -13.5 -41.5c0 -23.333 8.33301 -42.5 25 -57.5s38 -22.5 64 -22.5zM151.997 642.998c0 28 8.83301 50.166 26.5 66.499s41.167 24.5 70.5 24.5
c28 0 51.333 -7.33301 70 -22s28 -37.667 28 -69c0 -26 -9.33301 -47.5 -28 -64.5s-42 -25.5 -70 -25.5s-51.167 7.83301 -69.5 23.5s-27.5 37.834 -27.5 66.501zM205.997 642.997c0 -13.333 4.33301 -23.668 13 -31.001s18.667 -11 30 -11c12.667 0 23.167 3.33301 31.5 10
s12.5 17.334 12.5 32.001s-4.5 25.5 -13.5 32.5s-19.167 10.5 -30.5 10.5s-21.333 -3.33301 -30 -10s-13 -17.667 -13 -33z" />
    <glyph glyph-name="ae" unicode="&#xe6;" horiz-adv-x="796" 
d="M211 62c18.667 0 35.333 2.49902 50 7.49902s27.334 11.333 38.001 19s19.5 16.167 26.5 25.5s12.167 18.333 15.5 27v83c-9.33301 0.666992 -18.833 1.16699 -28.5 1.5s-19.167 0.5 -28.5 0.5c-20.667 0 -40.834 -1.16699 -60.501 -3.5s-37 -6.66602 -52 -12.999
s-27 -15 -36 -26s-13.5 -24.833 -13.5 -41.5c0 -23.333 8.33301 -42.5 25 -57.5s38 -22.5 64 -22.5zM366.999 83.999c-8.66699 -12 -18.6709 -23.501 -30.0039 -34.501s-24.166 -20.667 -38.499 -29s-30.666 -15.166 -48.999 -20.499s-38.5 -8 -60.5 -8
c-21.333 0 -41.166 3.33301 -59.499 10s-34.166 16.167 -47.499 28.5s-23.833 27.166 -31.5 44.499s-11.5 37 -11.5 59c0 29.333 6 53.833 18 73.5s28.833 35.334 50.5 47.001s47.667 20 78 25s63.833 7.5 100.5 7.5h27.5c9 0 18.167 -0.666992 27.5 -2
c0.666992 10 1.33398 19.5 2.00098 28.5s1 17.5 1 25.5c0 36.667 -7.33301 62.5 -22 77.5s-41.334 22.167 -80.001 21.5c-11.333 0 -23.5 -0.833008 -36.5 -2.5s-26.333 -4 -40 -7s-26.667 -6.66699 -39 -11s-23.166 -9.16602 -32.499 -14.499l-25 60
c25.333 15.333 54.833 26.666 88.5 33.999s68.834 11 105.501 11c70 0 115.333 -21.667 136 -65c17.333 24 40.666 41.5 69.999 52.5s58.666 16.5 87.999 16.5c22.667 0 45.334 -2.5 68.001 -7.5s43 -14.667 61 -29s32.667 -34.5 44 -60.5s17 -60 17 -102
c0 -10.667 -0.5 -21.834 -1.5 -33.501s-2.16699 -24.167 -3.5 -37.5h-323c0 -58 12.167 -103.167 36.5 -135.5s65.833 -48.5 124.5 -48.5c23.333 0 46.166 4.16699 68.499 12.5s39.5 17.5 51.5 27.5l30 -58c-20 -16 -45.167 -28.667 -75.5 -38s-62.5 -14 -96.5 -14
c-40.667 0 -77.5 8.33301 -110.5 25s-57.5 40.334 -73.5 71.001h-7zM557.995 441.998c-39.333 0 -71.001 -10.333 -95.001 -31s-38 -56 -42 -106h248v12c0 45.333 -10.167 77.5 -30.5 96.5s-47.166 28.5 -80.499 28.5z" />
    <glyph glyph-name="ccedilla" unicode="&#xe7;" horiz-adv-x="451" 
d="M418 33c-32.667 -23.333 -73 -37.6689 -121 -43.002l-18 -33c28 -5.33301 48.167 -14 60.5 -26s18.5 -28.333 18.5 -49c0 -26 -10.667 -47.5 -32 -64.5s-51.333 -25.5 -90 -25.5c-7.33301 0 -14.666 0.333008 -21.999 1s-15 1.66699 -23 3l9 39
c4 -0.666992 7.66699 -1 11 -1h10c14.667 0 26.167 1.33301 34.5 4s14.666 5.83398 18.999 9.50098s7 7.83398 8 12.501s1.5 9 1.5 13c0 18.667 -28.667 31 -86 37l42 79c-34.667 2 -64 9.66699 -88 23s-43.667 31.333 -59 54s-26.5 49.5 -33.5 80.5s-10.5 65.5 -10.5 103.5
c0 84.667 18.667 149.5 56 194.5s91 67.5 161 67.5c32 0 59.167 -2.5 81.5 -7.5s42.5 -12.167 60.5 -21.5l-23 -69c-15.333 8.66699 -32.333 15.5 -51 20.5s-38.667 7.5 -60 7.5c-94.667 0 -142 -64 -142 -192c0 -25.333 2.5 -49.5 7.5 -72.5s13.333 -43.333 25 -61
s27 -31.667 46 -42s42.5 -15.5 70.5 -15.5c24 0 45.5 3.5 64.5 10.5s34.5 15.167 46.5 24.5z" />
    <glyph glyph-name="egrave" unicode="&#xe8;" horiz-adv-x="508" 
d="M442 40c-20 -16 -45.168 -28.666 -75.501 -37.999s-62.5 -14 -96.5 -14c-38 0 -71 6.16699 -99 18.5s-51 30 -69 53s-31.333 50.5 -40 82.5s-13 68 -13 108c0 85.333 19 150.333 57 195s92.333 67 163 67c22.667 0 45.334 -2.5 68.001 -7.5s43 -14.5 61 -28.5
s32.667 -33.833 44 -59.5s17 -59.5 17 -101.5c0 -22 -2 -46.333 -6 -73h-321c0 -29.333 3 -55.333 9 -78s15.333 -41.834 28 -57.501s29.167 -27.667 49.5 -36s45.166 -12.5 74.499 -12.5c22.667 0 45.334 4 68.001 12s39.667 17.333 51 28zM269.999 442.001
c-39.333 0 -70.833 -10.333 -94.5 -31s-37.834 -56 -42.501 -106h248c0 50.667 -9.66699 86.167 -29 106.5s-46.666 30.5 -81.999 30.5zM329.999 571.001h-45l-115 128v21h95z" />
    <glyph glyph-name="eacute" unicode="&#xe9;" horiz-adv-x="508" 
d="M442 40c-20 -16 -45.168 -28.666 -75.501 -37.999s-62.5 -14 -96.5 -14c-38 0 -71 6.16699 -99 18.5s-51 30 -69 53s-31.333 50.5 -40 82.5s-13 68 -13 108c0 85.333 19 150.333 57 195s92.333 67 163 67c22.667 0 45.334 -2.5 68.001 -7.5s43 -14.5 61 -28.5
s32.667 -33.833 44 -59.5s17 -59.5 17 -101.5c0 -22 -2 -46.333 -6 -73h-321c0 -29.333 3 -55.333 9 -78s15.333 -41.834 28 -57.501s29.167 -27.667 49.5 -36s45.166 -12.5 74.499 -12.5c22.667 0 45.334 4 68.001 12s39.667 17.333 51 28zM269.999 442.001
c-39.333 0 -70.833 -10.333 -94.5 -31s-37.834 -56 -42.501 -106h248c0 50.667 -9.66699 86.167 -29 106.5s-46.666 30.5 -81.999 30.5zM290.999 720.001h89v-21l-101 -128h-47z" />
    <glyph glyph-name="ecircumflex" unicode="&#xea;" horiz-adv-x="508" 
d="M442 40c-20 -16 -45.168 -28.666 -75.501 -37.999s-62.5 -14 -96.5 -14c-38 0 -71 6.16699 -99 18.5s-51 30 -69 53s-31.333 50.5 -40 82.5s-13 68 -13 108c0 85.333 19 150.333 57 195s92.333 67 163 67c22.667 0 45.334 -2.5 68.001 -7.5s43 -14.5 61 -28.5
s32.667 -33.833 44 -59.5s17 -59.5 17 -101.5c0 -22 -2 -46.333 -6 -73h-321c0 -29.333 3 -55.333 9 -78s15.333 -41.834 28 -57.501s29.167 -27.667 49.5 -36s45.166 -12.5 74.499 -12.5c22.667 0 45.334 4 68.001 12s39.667 17.333 51 28zM269.999 442.001
c-39.333 0 -70.833 -10.333 -94.5 -31s-37.834 -56 -42.501 -106h248c0 50.667 -9.66699 86.167 -29 106.5s-46.666 30.5 -81.999 30.5zM244.999 732.001h32l111 -182h-72l-39 66l-21 58l-22 -58l-45 -66h-67z" />
    <glyph glyph-name="edieresis" unicode="&#xeb;" horiz-adv-x="508" 
d="M442 40c-20 -16 -45.168 -28.666 -75.501 -37.999s-62.5 -14 -96.5 -14c-38 0 -71 6.16699 -99 18.5s-51 30 -69 53s-31.333 50.5 -40 82.5s-13 68 -13 108c0 85.333 19 150.333 57 195s92.333 67 163 67c22.667 0 45.334 -2.5 68.001 -7.5s43 -14.5 61 -28.5
s32.667 -33.833 44 -59.5s17 -59.5 17 -101.5c0 -22 -2 -46.333 -6 -73h-321c0 -29.333 3 -55.333 9 -78s15.333 -41.834 28 -57.501s29.167 -27.667 49.5 -36s45.166 -12.5 74.499 -12.5c22.667 0 45.334 4 68.001 12s39.667 17.333 51 28zM269.999 442.001
c-39.333 0 -70.833 -10.333 -94.5 -31s-37.834 -56 -42.501 -106h248c0 50.667 -9.66699 86.167 -29 106.5s-46.666 30.5 -81.999 30.5zM118.999 653.001c0 15.333 4.5 27.666 13.5 36.999s20.833 14 35.5 14s26.5 -4.66699 35.5 -14s13.5 -21.666 13.5 -36.999
c0 -14 -4.5 -25.667 -13.5 -35s-20.833 -14 -35.5 -14s-26.5 4.66699 -35.5 14s-13.5 21 -13.5 35zM310.999 653.001c0 15.333 4.5 27.666 13.5 36.999s20.833 14 35.5 14c15.333 0 27.5 -4.66699 36.5 -14s13.5 -21.666 13.5 -36.999c0 -14 -4.5 -25.667 -13.5 -35
s-21.167 -14 -36.5 -14c-14.667 0 -26.5 4.66699 -35.5 14s-13.5 21 -13.5 35z" />
    <glyph glyph-name="igrave" unicode="&#xec;" horiz-adv-x="268" 
d="M94 500h80v-500h-80v500zM172 571h-45l-115 128v21h95z" />
    <glyph glyph-name="iacute" unicode="&#xed;" horiz-adv-x="268" 
d="M94 500h80v-500h-80v500zM154 720h89v-21l-101 -128h-47z" />
    <glyph glyph-name="icircumflex" unicode="&#xee;" horiz-adv-x="268" 
d="M94 500h80v-500h-80v500zM121 732h32l111 -182h-72l-39 66l-21 58l-22 -58l-45 -66h-67z" />
    <glyph glyph-name="idieresis" unicode="&#xef;" horiz-adv-x="268" 
d="M94 500h80v-500h-80v500zM-12 653c0 15.333 4.5 27.666 13.5 36.999s20.833 14 35.5 14s26.5 -4.66699 35.5 -14s13.5 -21.666 13.5 -36.999c0 -14 -4.5 -25.667 -13.5 -35s-20.833 -14 -35.5 -14s-26.5 4.66699 -35.5 14s-13.5 21 -13.5 35zM180 653
c0 15.333 4.5 27.666 13.5 36.999s20.833 14 35.5 14c15.333 0 27.5 -4.66699 36.5 -14s13.5 -21.666 13.5 -36.999c0 -14 -4.5 -25.667 -13.5 -35s-21.167 -14 -36.5 -14c-14.667 0 -26.5 4.66699 -35.5 14s-13.5 21 -13.5 35z" />
    <glyph glyph-name="eth" unicode="&#xf0;" horiz-adv-x="561" 
d="M220 596l56.999 30.999c-25.333 15.333 -50.666 26 -75.999 32l35 54c12 -4.66699 27.333 -11 46 -19s38 -19 58 -33l68 37l26 -45l-50 -27c16 -15.333 31.333 -33.166 46 -53.499s27.667 -44 39 -71s20.333 -57.5 27 -91.5s10 -72.333 10 -115
c0 -54 -6 -100.333 -18 -139s-28.167 -70.5 -48.5 -95.5s-44 -43.333 -71 -55s-55.833 -17.5 -86.5 -17.5c-40.667 0 -75.334 7 -104.001 21s-52 33 -70 57s-31.167 51.833 -39.5 83.5s-12.5 65.5 -12.5 101.5c0 34.667 4.83301 67.667 14.5 99s24 58.833 43 82.5
s42.333 42.5 70 56.5s59.834 21 96.501 21c30 0 56.333 -4.66699 79 -14s38.667 -20 48 -32c-7.33301 24.667 -18.333 48 -33 70s-31.667 41.667 -51 59l-76 -41zM138.999 249.999c0 -65.333 13.6699 -113.666 41.0029 -144.999s62.666 -47 105.999 -47
c20 0 38.5 4.33301 55.5 13s31.667 22.334 44 41.001s22.166 42.667 29.499 72s11 64.666 11 105.999c0 6.66699 -0.166992 14.167 -0.5 22.5l-1 25c-0.333008 8.33301 -1 16.333 -2 24s-2.16699 14.167 -3.5 19.5c-5.33301 9.33301 -12.833 17.666 -22.5 24.999
s-20.334 13.5 -32.001 18.5s-24.167 8.83301 -37.5 11.5s-26.333 4 -39 4c-26 0 -48.5 -5 -67.5 -15s-34.5 -23.5 -46.5 -40.5s-20.833 -37 -26.5 -60s-8.5 -47.833 -8.5 -74.5z" />
    <glyph glyph-name="ntilde" unicode="&#xf1;" horiz-adv-x="547" 
d="M398 0l-0.000976562 285c0 52 -7.5 91.167 -22.5 117.5s-42.5 39.5 -82.5 39.5c-35.333 0 -64.5 -9.5 -87.5 -28.5s-39.167 -42.833 -48.5 -71.5v-342h-80v500h56l15 -61h4c16 21.333 37.5 38.833 64.5 52.5s59.167 20.5 96.5 20.5c27.333 0 51.333 -3.16699 72 -9.5
s37.834 -17.5 51.501 -33.5s24 -37.5 31 -64.5s10.5 -61.167 10.5 -102.5v-302h-80zM133.999 656c19.333 22 37 37.167 53 45.5s30.667 12.5 44 12.5c11.333 0 21.833 -2.16699 31.5 -6.5s19 -9 28 -14s17.667 -9.5 26 -13.5s17.166 -6 26.499 -6c14.667 0 30 8 46 24
l24 -43c-17.333 -19.333 -33.166 -32.5 -47.499 -39.5s-27.5 -10.5 -39.5 -10.5c-10.667 0 -20.667 2 -30 6s-18.5 8.5 -27.5 13.5s-18 9.66699 -27 14s-18.167 6.5 -27.5 6.5c-8.66699 0 -17.5 -2.33301 -26.5 -7s-19.167 -12.667 -30.5 -24z" />
    <glyph glyph-name="ograve" unicode="&#xf2;" 
d="M49 250c0 84.667 18.833 149.5 56.5 194.5s91.834 67.5 162.501 67.5c37.333 0 69.833 -6.16699 97.5 -18.5s50.5 -30 68.5 -53s31.333 -50.667 40 -83s13 -68.166 13 -107.499c0 -84.667 -18.833 -149.5 -56.5 -194.5s-91.834 -67.5 -162.501 -67.5
c-37.333 0 -69.833 6.16699 -97.5 18.5s-50.5 30 -68.5 53s-31.333 50.667 -40 83s-13 68.166 -13 107.499zM132 250c0 -25.333 2.5 -49.666 7.5 -72.999s12.833 -43.666 23.5 -60.999s24.667 -31.333 42 -42s38.333 -16 63 -16c90.667 -0.666992 136 63.333 136 192
c0 26 -2.5 50.667 -7.5 74s-12.833 43.666 -23.5 60.999s-24.667 31.166 -42 41.499s-38.333 15.5 -63 15.5c-90.667 0.666992 -136 -63.333 -136 -192zM317 571h-45l-115 128v21h95z" />
    <glyph glyph-name="oacute" unicode="&#xf3;" 
d="M49 250c0 84.667 18.833 149.5 56.5 194.5s91.834 67.5 162.501 67.5c37.333 0 69.833 -6.16699 97.5 -18.5s50.5 -30 68.5 -53s31.333 -50.667 40 -83s13 -68.166 13 -107.499c0 -84.667 -18.833 -149.5 -56.5 -194.5s-91.834 -67.5 -162.501 -67.5
c-37.333 0 -69.833 6.16699 -97.5 18.5s-50.5 30 -68.5 53s-31.333 50.667 -40 83s-13 68.166 -13 107.499zM132 250c0 -25.333 2.5 -49.666 7.5 -72.999s12.833 -43.666 23.5 -60.999s24.667 -31.333 42 -42s38.333 -16 63 -16c90.667 -0.666992 136 63.333 136 192
c0 26 -2.5 50.667 -7.5 74s-12.833 43.666 -23.5 60.999s-24.667 31.166 -42 41.499s-38.333 15.5 -63 15.5c-90.667 0.666992 -136 -63.333 -136 -192zM286 720h89v-21l-101 -128h-47z" />
    <glyph glyph-name="ocircumflex" unicode="&#xf4;" 
d="M49 250c0 84.667 18.833 149.5 56.5 194.5s91.834 67.5 162.501 67.5c37.333 0 69.833 -6.16699 97.5 -18.5s50.5 -30 68.5 -53s31.333 -50.667 40 -83s13 -68.166 13 -107.499c0 -84.667 -18.833 -149.5 -56.5 -194.5s-91.834 -67.5 -162.501 -67.5
c-37.333 0 -69.833 6.16699 -97.5 18.5s-50.5 30 -68.5 53s-31.333 50.667 -40 83s-13 68.166 -13 107.499zM132 250c0 -25.333 2.5 -49.666 7.5 -72.999s12.833 -43.666 23.5 -60.999s24.667 -31.333 42 -42s38.333 -16 63 -16c90.667 -0.666992 136 63.333 136 192
c0 26 -2.5 50.667 -7.5 74s-12.833 43.666 -23.5 60.999s-24.667 31.166 -42 41.499s-38.333 15.5 -63 15.5c-90.667 0.666992 -136 -63.333 -136 -192zM258 732h32l111 -182h-72l-39 66l-21 58l-22 -58l-45 -66h-67z" />
    <glyph glyph-name="otilde" unicode="&#xf5;" 
d="M49 250c0 84.667 18.833 149.5 56.5 194.5s91.834 67.5 162.501 67.5c37.333 0 69.833 -6.16699 97.5 -18.5s50.5 -30 68.5 -53s31.333 -50.667 40 -83s13 -68.166 13 -107.499c0 -84.667 -18.833 -149.5 -56.5 -194.5s-91.834 -67.5 -162.501 -67.5
c-37.333 0 -69.833 6.16699 -97.5 18.5s-50.5 30 -68.5 53s-31.333 50.667 -40 83s-13 68.166 -13 107.499zM132 250c0 -25.333 2.5 -49.666 7.5 -72.999s12.833 -43.666 23.5 -60.999s24.667 -31.333 42 -42s38.333 -16 63 -16c90.667 -0.666992 136 63.333 136 192
c0 26 -2.5 50.667 -7.5 74s-12.833 43.666 -23.5 60.999s-24.667 31.166 -42 41.499s-38.333 15.5 -63 15.5c-90.667 0.666992 -136 -63.333 -136 -192zM129 656c19.333 22 37 37.167 53 45.5s30.667 12.5 44 12.5c11.333 0 21.833 -2.16699 31.5 -6.5s19 -9 28 -14
s17.667 -9.5 26 -13.5s17.166 -6 26.499 -6c14.667 0 30 8 46 24l24 -43c-17.333 -19.333 -33.166 -32.5 -47.499 -39.5s-27.5 -10.5 -39.5 -10.5c-10.667 0 -20.667 2 -30 6s-18.5 8.5 -27.5 13.5s-18 9.66699 -27 14s-18.167 6.5 -27.5 6.5
c-8.66699 0 -17.5 -2.33301 -26.5 -7s-19.167 -12.667 -30.5 -24z" />
    <glyph glyph-name="odieresis" unicode="&#xf6;" 
d="M49 250c0 84.667 18.833 149.5 56.5 194.5s91.834 67.5 162.501 67.5c37.333 0 69.833 -6.16699 97.5 -18.5s50.5 -30 68.5 -53s31.333 -50.667 40 -83s13 -68.166 13 -107.499c0 -84.667 -18.833 -149.5 -56.5 -194.5s-91.834 -67.5 -162.501 -67.5
c-37.333 0 -69.833 6.16699 -97.5 18.5s-50.5 30 -68.5 53s-31.333 50.667 -40 83s-13 68.166 -13 107.499zM132 250c0 -25.333 2.5 -49.666 7.5 -72.999s12.833 -43.666 23.5 -60.999s24.667 -31.333 42 -42s38.333 -16 63 -16c90.667 -0.666992 136 63.333 136 192
c0 26 -2.5 50.667 -7.5 74s-12.833 43.666 -23.5 60.999s-24.667 31.166 -42 41.499s-38.333 15.5 -63 15.5c-90.667 0.666992 -136 -63.333 -136 -192zM124 653c0 15.333 4.5 27.666 13.5 36.999s20.833 14 35.5 14s26.5 -4.66699 35.5 -14s13.5 -21.666 13.5 -36.999
c0 -14 -4.5 -25.667 -13.5 -35s-20.833 -14 -35.5 -14s-26.5 4.66699 -35.5 14s-13.5 21 -13.5 35zM316 653c0 15.333 4.5 27.666 13.5 36.999s20.833 14 35.5 14c15.333 0 27.5 -4.66699 36.5 -14s13.5 -21.666 13.5 -36.999c0 -14 -4.5 -25.667 -13.5 -35
s-21.167 -14 -36.5 -14c-14.667 0 -26.5 4.66699 -35.5 14s-13.5 21 -13.5 35z" />
    <glyph glyph-name="divide" unicode="&#xf7;" horiz-adv-x="505" 
d="M40 374h424v-72h-424v72zM194 525c0 18 5.16699 32.167 15.5 42.5s24.166 15.5 41.499 15.5c18 0 32.333 -5.16699 43 -15.5s16 -24.5 16 -42.5c0 -17.333 -5.33301 -31.333 -16 -42s-25 -16 -43 -16c-17.333 0 -31.166 5.33301 -41.499 16s-15.5 24.667 -15.5 42z
M194 150c0 18 5.16699 32.167 15.5 42.5s24.166 15.5 41.499 15.5c18 0 32.333 -5.16699 43 -15.5s16 -24.5 16 -42.5c0 -17.333 -5.33301 -31.333 -16 -42s-25 -16 -43 -16c-17.333 0 -31.166 5.33301 -41.499 16s-15.5 24.667 -15.5 42z" />
    <glyph glyph-name="oslash" unicode="&#xf8;" 
d="M49 250c0 84.667 18.8311 149.5 56.498 194.5s91.834 67.5 162.501 67.5c48.667 0 89.334 -10.667 122.001 -32l26 35l50 -37l-29 -42c17.333 -22.667 30 -49.667 38 -81s12 -66.333 12 -105c0 -84.667 -18.833 -149.5 -56.5 -194.5s-91.834 -67.5 -162.501 -67.5
c-52 0 -94.667 11.667 -128 35l-27 -37l-52 38l33 46c-15.333 22.667 -26.666 49.167 -33.999 79.5s-11 63.833 -11 100.5zM403.998 250c0 21.333 -1.66895 41.834 -5.00195 61.501s-8.66602 37.5 -15.999 53.5l-199 -277c10.667 -8.66699 22.834 -15.834 36.501 -21.501
s29.5 -8.5 47.5 -8.5c90.667 -0.666992 136 63.333 136 192zM131.996 250.001c0 -20 1.5 -39.333 4.5 -58s7.5 -35.667 13.5 -51l197 274c-10 8 -21.5 14.5 -34.5 19.5s-27.833 7.5 -44.5 7.5c-90.667 0.666992 -136 -63.333 -136 -192z" />
    <glyph glyph-name="ugrave" unicode="&#xf9;" horiz-adv-x="539" 
d="M149 500l0.000976562 -285c0 -26 1.5 -48.833 4.5 -68.5s8.16699 -36 15.5 -49s17.333 -22.833 30 -29.5s28.667 -10 48 -10c18 0 34 2.83301 48 8.5s26.5 13.5 37.5 23.5s20.667 21.5 29 34.5s15.166 26.833 20.499 41.5v334h80v-358c0 -24 0.833008 -48.833 2.5 -74.5
s4.5 -48.167 8.5 -67.5h-55l-20 79h-5c-15.333 -26 -36 -47.667 -62 -65s-59 -26 -99 -26c-26.667 0 -50.167 3.16699 -70.5 9.5s-37.333 17.5 -51 33.5s-24 37.5 -31 64.5s-10.5 61.167 -10.5 102.5v302h80zM308.001 571h-45l-115 128v21h95z" />
    <glyph glyph-name="uacute" unicode="&#xfa;" horiz-adv-x="539" 
d="M149 500l0.000976562 -285c0 -26 1.5 -48.833 4.5 -68.5s8.16699 -36 15.5 -49s17.333 -22.833 30 -29.5s28.667 -10 48 -10c18 0 34 2.83301 48 8.5s26.5 13.5 37.5 23.5s20.667 21.5 29 34.5s15.166 26.833 20.499 41.5v334h80v-358c0 -24 0.833008 -48.833 2.5 -74.5
s4.5 -48.167 8.5 -67.5h-55l-20 79h-5c-15.333 -26 -36 -47.667 -62 -65s-59 -26 -99 -26c-26.667 0 -50.167 3.16699 -70.5 9.5s-37.333 17.5 -51 33.5s-24 37.5 -31 64.5s-10.5 61.167 -10.5 102.5v302h80zM285.001 720h89v-21l-101 -128h-47z" />
    <glyph glyph-name="ucircumflex" unicode="&#xfb;" horiz-adv-x="539" 
d="M149 500l0.000976562 -285c0 -26 1.5 -48.833 4.5 -68.5s8.16699 -36 15.5 -49s17.333 -22.833 30 -29.5s28.667 -10 48 -10c18 0 34 2.83301 48 8.5s26.5 13.5 37.5 23.5s20.667 21.5 29 34.5s15.166 26.833 20.499 41.5v334h80v-358c0 -24 0.833008 -48.833 2.5 -74.5
s4.5 -48.167 8.5 -67.5h-55l-20 79h-5c-15.333 -26 -36 -47.667 -62 -65s-59 -26 -99 -26c-26.667 0 -50.167 3.16699 -70.5 9.5s-37.333 17.5 -51 33.5s-24 37.5 -31 64.5s-10.5 61.167 -10.5 102.5v302h80zM260.001 732h32l111 -182h-72l-39 66l-21 58l-22 -58l-45 -66
h-67z" />
    <glyph glyph-name="udieresis" unicode="&#xfc;" horiz-adv-x="539" 
d="M149 500l0.000976562 -285c0 -26 1.5 -48.833 4.5 -68.5s8.16699 -36 15.5 -49s17.333 -22.833 30 -29.5s28.667 -10 48 -10c18 0 34 2.83301 48 8.5s26.5 13.5 37.5 23.5s20.667 21.5 29 34.5s15.166 26.833 20.499 41.5v334h80v-358c0 -24 0.833008 -48.833 2.5 -74.5
s4.5 -48.167 8.5 -67.5h-55l-20 79h-5c-15.333 -26 -36 -47.667 -62 -65s-59 -26 -99 -26c-26.667 0 -50.167 3.16699 -70.5 9.5s-37.333 17.5 -51 33.5s-24 37.5 -31 64.5s-10.5 61.167 -10.5 102.5v302h80zM125.001 653c0 15.333 4.5 27.666 13.5 36.999
s20.833 14 35.5 14s26.5 -4.66699 35.5 -14s13.5 -21.666 13.5 -36.999c0 -14 -4.5 -25.667 -13.5 -35s-20.833 -14 -35.5 -14s-26.5 4.66699 -35.5 14s-13.5 21 -13.5 35zM317.001 653c0 15.333 4.5 27.666 13.5 36.999s20.833 14 35.5 14c15.333 0 27.5 -4.66699 36.5 -14
s13.5 -21.666 13.5 -36.999c0 -14 -4.5 -25.667 -13.5 -35s-21.167 -14 -36.5 -14c-14.667 0 -26.5 4.66699 -35.5 14s-13.5 21 -13.5 35z" />
    <glyph glyph-name="yacute" unicode="&#xfd;" horiz-adv-x="466" 
d="M224 176l28.001 -96h5l22 97l97 323h81l-148 -449l-33.5 -95c-11 -30.667 -23.167 -58 -36.5 -82s-28.333 -43.167 -45 -57.5s-36 -21.5 -58 -21.5c-24 0 -43.667 3.33301 -59 10l14 69c8.66699 -3.33301 17 -5 25 -5c18.667 0 36.667 9.83301 54 29.5
s31.666 53.5 42.999 101.5l-201 500h92zM277.001 720h89v-21l-101 -128h-47z" />
    <glyph glyph-name="thorn" unicode="&#xfe;" horiz-adv-x="541" 
d="M77 700l79.999 -0.000976562v-250h4c13.333 19.333 31 34.5 53 45.5s48.667 16.5 80 16.5c66.667 0 116.334 -19.667 149.001 -59s49 -103.666 49 -192.999c0 -42 -5.5 -79.833 -16.5 -113.5s-26.5 -62.167 -46.5 -85.5s-44.167 -41.333 -72.5 -54s-59.833 -19 -94.5 -19
c-24.667 0 -44.167 1.5 -58.5 4.5s-29.833 8.16699 -46.5 15.5v-208h-80v900zM278.999 441.999c-65.333 0.666992 -106 -35 -122 -107v-249c12 -9.33301 25.667 -16.333 41 -21s35.666 -7 60.999 -7c46 0 82.5 17.167 109.5 51.5s40.5 84.833 40.5 151.5
c0 27.333 -2.33301 52.166 -7 74.499s-12.167 41.333 -22.5 57s-23.666 27.834 -39.999 36.501s-36.5 13 -60.5 13z" />
    <glyph glyph-name="ydieresis" unicode="&#xff;" horiz-adv-x="466" 
d="M224 176l28.001 -96h5l22 97l97 323h81l-148 -449l-33.5 -95c-11 -30.667 -23.167 -58 -36.5 -82s-28.333 -43.167 -45 -57.5s-36 -21.5 -58 -21.5c-24 0 -43.667 3.33301 -59 10l14 69c8.66699 -3.33301 17 -5 25 -5c18.667 0 36.667 9.83301 54 29.5
s31.666 53.5 42.999 101.5l-201 500h92zM89.001 653c0 15.333 4.5 27.666 13.5 36.999s20.833 14 35.5 14s26.5 -4.66699 35.5 -14s13.5 -21.666 13.5 -36.999c0 -14 -4.5 -25.667 -13.5 -35s-20.833 -14 -35.5 -14s-26.5 4.66699 -35.5 14s-13.5 21 -13.5 35zM281.001 653
c0 15.333 4.5 27.666 13.5 36.999s20.833 14 35.5 14c15.333 0 27.5 -4.66699 36.5 -14s13.5 -21.666 13.5 -36.999c0 -14 -4.5 -25.667 -13.5 -35s-21.167 -14 -36.5 -14c-14.667 0 -26.5 4.66699 -35.5 14s-13.5 21 -13.5 35z" />
    <glyph glyph-name="Amacron" unicode="&#x100;" horiz-adv-x="585" 
d="M418 194h-258l-70 -194h-82l265 711h38l266 -711h-87zM187 266h206l-78 213l-25 106h-1l-25 -108zM133 843h316v-62h-316v62z" />
    <glyph glyph-name="amacron" unicode="&#x101;" horiz-adv-x="496" 
d="M69 463c25.333 15.333 54.8311 26.665 88.498 33.998s68.834 11 105.501 11c34.667 0 62.5 -4.66699 83.5 -14s37 -21.5 48 -36.5s18.333 -31.5 22 -49.5s5.5 -36 5.5 -54c0 -40 -1 -79 -3 -117s-3 -74 -3 -108c0 -24.667 1 -48 3 -70s5.66699 -42.333 11 -61h-59l-21 70
h-5c-6 -9.33301 -13.5 -18.5 -22.5 -27.5s-19.833 -17 -32.5 -24s-27.334 -12.833 -44.001 -17.5s-35.667 -7 -57 -7s-41.166 3.33301 -59.499 10s-34.166 16.167 -47.499 28.5s-23.833 27.166 -31.5 44.499s-11.5 37 -11.5 59c0 29.333 6 53.833 18 73.5
s28.833 35.334 50.5 47.001s47.667 20 78 25s63.833 7.5 100.5 7.5h27.5c9 0 18.167 -0.666992 27.5 -2c2 20 3 38 3 54c0 36.667 -7.33301 62.334 -22 77.001s-41.334 22 -80.001 22c-11.333 0 -23.5 -0.833008 -36.5 -2.5s-26.333 -4 -40 -7s-26.667 -6.66699 -39 -11
s-23.166 -9.16602 -32.499 -14.499zM210.998 61.999c18.667 0 35.333 2.49902 50 7.49902s27.334 11.333 38.001 19s19.5 16.167 26.5 25.5s12.167 18.333 15.5 27v83c-9.33301 0.666992 -18.833 1.16699 -28.5 1.5s-19.167 0.5 -28.5 0.5
c-20.667 0 -40.834 -1.16699 -60.501 -3.5s-37 -6.66602 -52 -12.999s-27 -15 -36 -26s-13.5 -24.833 -13.5 -41.5c0 -23.333 8.33301 -42.5 25 -57.5s38 -22.5 64 -22.5zM100.997 642.998h296v-62h-296v62z" />
    <glyph glyph-name="Abreve" unicode="&#x102;" horiz-adv-x="585" 
d="M418 194h-258l-70 -194h-82l265 711h38l266 -711h-87zM187 266h206l-78 213l-25 106h-1l-25 -108zM164 871c11.333 -22.667 28.668 -40.167 52.001 -52.5s50.666 -18.5 81.999 -18.5c32 0 59 7 81 21s37.667 30.667 47 50l40 -19c-6 -19.333 -14.5 -36.5 -25.5 -51.5
s-24 -27.833 -39 -38.5s-31.5 -18.667 -49.5 -24s-36.333 -8 -55 -8c-18 0 -35.833 2.33301 -53.5 7s-34.167 11.667 -49.5 21s-29.333 21.5 -42 36.5s-23 32.5 -31 52.5z" />
    <glyph glyph-name="abreve" unicode="&#x103;" horiz-adv-x="496" 
d="M69 463c25.333 15.333 54.8311 26.665 88.498 33.998s68.834 11 105.501 11c34.667 0 62.5 -4.66699 83.5 -14s37 -21.5 48 -36.5s18.333 -31.5 22 -49.5s5.5 -36 5.5 -54c0 -40 -1 -79 -3 -117s-3 -74 -3 -108c0 -24.667 1 -48 3 -70s5.66699 -42.333 11 -61h-59l-21 70
h-5c-6 -9.33301 -13.5 -18.5 -22.5 -27.5s-19.833 -17 -32.5 -24s-27.334 -12.833 -44.001 -17.5s-35.667 -7 -57 -7s-41.166 3.33301 -59.499 10s-34.166 16.167 -47.499 28.5s-23.833 27.166 -31.5 44.499s-11.5 37 -11.5 59c0 29.333 6 53.833 18 73.5
s28.833 35.334 50.5 47.001s47.667 20 78 25s63.833 7.5 100.5 7.5h27.5c9 0 18.167 -0.666992 27.5 -2c2 20 3 38 3 54c0 36.667 -7.33301 62.334 -22 77.001s-41.334 22 -80.001 22c-11.333 0 -23.5 -0.833008 -36.5 -2.5s-26.333 -4 -40 -7s-26.667 -6.66699 -39 -11
s-23.166 -9.16602 -32.499 -14.499zM210.998 61.999c18.667 0 35.333 2.49902 50 7.49902s27.334 11.333 38.001 19s19.5 16.167 26.5 25.5s12.167 18.333 15.5 27v83c-9.33301 0.666992 -18.833 1.16699 -28.5 1.5s-19.167 0.5 -28.5 0.5
c-20.667 0 -40.834 -1.16699 -60.501 -3.5s-37 -6.66602 -52 -12.999s-27 -15 -36 -26s-13.5 -24.833 -13.5 -41.5c0 -23.333 8.33301 -42.5 25 -57.5s38 -22.5 64 -22.5zM140.997 719.998c12 -24 28.0029 -42.833 48.0029 -56.5s41.333 -20.5 64 -20.5
s43.167 6.66699 61.5 20s33.166 32.333 44.499 57l42 -18c-2 -16 -7.16699 -31.833 -15.5 -47.5s-19 -29.5 -32 -41.5s-28.167 -21.667 -45.5 -29s-36 -11 -56 -11c-18.667 0 -36.334 2.83301 -53.001 8.5s-31.834 14 -45.501 25s-25.5 24 -35.5 39s-17.333 32.167 -22 51.5
z" />
    <glyph glyph-name="Aogonek" unicode="&#x104;" horiz-adv-x="585" 
d="M418 194l-258.001 0.000976562l-70 -194h-82l265 711h38l266 -711h-22c-17.333 -10.667 -31.166 -23.167 -41.499 -37.5s-15.5 -31.166 -15.5 -50.499c0 -13.333 4.5 -25 13.5 -35s21.833 -15 38.5 -15c12.667 0 26 3 40 9l11 -42c-10 -8 -23.333 -14 -40 -18
s-32 -6 -46 -6c-29.333 0 -53.166 7.83301 -71.499 23.5s-27.5 37.167 -27.5 64.5c0 23.333 7.16699 44.166 21.5 62.499s34.166 33.166 59.499 44.499h-7zM186.999 266.001h206l-78 213l-25 106h-1l-25 -108z" />
    <glyph glyph-name="aogonek" unicode="&#x105;" horiz-adv-x="496" 
d="M69 463c25.333 15.333 54.8301 26.6641 88.4971 33.9971s68.834 11 105.501 11c34.667 0 62.5 -4.66699 83.5 -14s37 -21.5 48 -36.5s18.333 -31.5 22 -49.5s5.5 -36 5.5 -54c0 -40 -1 -79 -3 -117s-3 -74 -3 -108c0 -24.667 1 -48 3 -70s5.66699 -42.333 11 -61h-23
c-16.667 -10.667 -29.667 -23.167 -39 -37.5s-14 -30.166 -14 -47.499c0 -13.333 4.33301 -25.166 13 -35.499s21.334 -15.5 38.001 -15.5c12.667 0 26 3.33301 40 10l11 -43c-10 -8 -23.333 -14 -40 -18s-32 -6 -46 -6c-30 0 -54 8 -72 24s-27 37.667 -27 65
c0 26 8.66699 48.5 26 67.5s41 34.167 71 45.5l-18 61h-5c-6 -9.33301 -13.5 -18.5 -22.5 -27.5s-19.833 -17 -32.5 -24s-27.334 -12.833 -44.001 -17.5s-35.667 -7 -57 -7s-41.166 3.33301 -59.499 10s-34.166 16.167 -47.499 28.5s-23.833 27.166 -31.5 44.499
s-11.5 37 -11.5 59c0 29.333 6 53.833 18 73.5s28.833 35.334 50.5 47.001s47.667 20 78 25s63.833 7.5 100.5 7.5h27.5c9 0 18.167 -0.666992 27.5 -2c2 20 3 38 3 54c0 36.667 -7.33301 62.334 -22 77.001s-41.334 22 -80.001 22c-11.333 0 -23.5 -0.666992 -36.5 -2
s-26.333 -3.5 -40 -6.5s-26.667 -6.5 -39 -10.5s-23.166 -8.66699 -32.499 -14zM210.997 61.998c18.667 0 35.333 2.49902 50 7.49902s27.334 11.333 38.001 19s19.5 16.167 26.5 25.5s12.167 18.333 15.5 27v83c-9.33301 0.666992 -18.833 1.16699 -28.5 1.5
s-19.167 0.5 -28.5 0.5c-20.667 0 -40.834 -1.16699 -60.501 -3.5s-37 -6.66602 -52 -12.999s-27 -15 -36 -26s-13.5 -24.833 -13.5 -41.5c0 -23.333 8.33301 -42.5 25 -57.5s38 -22.5 64 -22.5z" />
    <glyph glyph-name="Cacute" unicode="&#x106;" horiz-adv-x="571" 
d="M533 29c-20 -15.333 -45.3301 -26 -75.9971 -32s-63.334 -9 -98.001 -9c-42 0 -81.333 7.16699 -118 21.5s-68.667 36.166 -96 65.499s-49 66.833 -65 112.5s-24 99.834 -24 162.501c0 65.333 8.83301 120.833 26.5 166.5s41 83 70 112s61.5 50.167 97.5 63.5
s72.667 20 110 20c40 0 72.667 -2.16699 98 -6.5s47 -10.166 65 -17.499l-20 -73c-32 15.333 -77.667 23 -137 23c-27.333 0 -54.333 -5 -81 -15s-50.5 -26.333 -71.5 -49s-37.833 -52.334 -50.5 -89.001s-19 -81.667 -19 -135c0 -48 6 -90 18 -126s28.5 -66 49.5 -90
s45.667 -42 74 -54s59.166 -18 92.499 -18c30 0 56.167 3 78.5 9s41.166 13.667 56.499 23zM417.003 870h114v-21l-163 -97h-69z" />
    <glyph glyph-name="cacute" unicode="&#x107;" horiz-adv-x="451" 
d="M418 33c-20 -14.667 -43.666 -25.8301 -70.999 -33.4971s-56 -11.5 -86 -11.5c-38.667 0 -71.334 6.16699 -98.001 18.5s-48.5 30 -65.5 53s-29.333 50.667 -37 83s-11.5 68.166 -11.5 107.499c0 84.667 18.667 149.5 56 194.5s91 67.5 161 67.5
c32 0 59.167 -2.5 81.5 -7.5s42.5 -12.167 60.5 -21.5l-23 -69c-15.333 8.66699 -32.333 15.5 -51 20.5s-38.667 7.5 -60 7.5c-94.667 0 -142 -64 -142 -192c0 -25.333 2.5 -49.5 7.5 -72.5s13.333 -43.333 25 -61s27 -31.834 46 -42.501s42.5 -16 70.5 -16
c24 0 45.5 3.66699 64.5 11s34.5 15.666 46.5 24.999zM290.001 720.004h89v-21l-101 -128h-47z" />
    <glyph glyph-name="Ccircumflex" unicode="&#x108;" horiz-adv-x="571" 
d="M533 29c-20 -15.333 -45.3301 -26 -75.9971 -32s-63.334 -9 -98.001 -9c-42 0 -81.333 7.16699 -118 21.5s-68.667 36.166 -96 65.499s-49 66.833 -65 112.5s-24 99.834 -24 162.501c0 65.333 8.83301 120.833 26.5 166.5s41 83 70 112s61.5 50.167 97.5 63.5
s72.667 20 110 20c40 0 72.667 -2.16699 98 -6.5s47 -10.166 65 -17.499l-20 -73c-32 15.333 -77.667 23 -137 23c-27.333 0 -54.333 -5 -81 -15s-50.5 -26.333 -71.5 -49s-37.833 -52.334 -50.5 -89.001s-19 -81.667 -19 -135c0 -48 6 -90 18 -126s28.5 -66 49.5 -90
s45.667 -42 74 -54s59.166 -18 92.499 -18c30 0 56.167 3 78.5 9s41.166 13.667 56.499 23zM320.003 870h60l127 -102v-21h-81l-60 49l-17 35l-19 -34l-64 -50h-79v22z" />
    <glyph glyph-name="ccircumflex" unicode="&#x109;" horiz-adv-x="451" 
d="M418 33c-20 -14.667 -43.666 -25.8301 -70.999 -33.4971s-56 -11.5 -86 -11.5c-38.667 0 -71.334 6.16699 -98.001 18.5s-48.5 30 -65.5 53s-29.333 50.667 -37 83s-11.5 68.166 -11.5 107.499c0 84.667 18.667 149.5 56 194.5s91 67.5 161 67.5
c32 0 59.167 -2.5 81.5 -7.5s42.5 -12.167 60.5 -21.5l-23 -69c-15.333 8.66699 -32.333 15.5 -51 20.5s-38.667 7.5 -60 7.5c-94.667 0 -142 -64 -142 -192c0 -25.333 2.5 -49.5 7.5 -72.5s13.333 -43.333 25 -61s27 -31.834 46 -42.501s42.5 -16 70.5 -16
c24 0 45.5 3.66699 64.5 11s34.5 15.666 46.5 24.999zM237.001 732.004h32l111 -182h-72l-39 66l-21 58l-22 -58l-45 -66h-67z" />
    <glyph glyph-name="Ccaron" unicode="&#x10c;" horiz-adv-x="571" 
d="M533 29c-20 -15.333 -45.3301 -26 -75.9971 -32s-63.334 -9 -98.001 -9c-42 0 -81.333 7.16699 -118 21.5s-68.667 36.166 -96 65.499s-49 66.833 -65 112.5s-24 99.834 -24 162.501c0 65.333 8.83301 120.833 26.5 166.5s41 83 70 112s61.5 50.167 97.5 63.5
s72.667 20 110 20c40 0 72.667 -2.16699 98 -6.5s47 -10.166 65 -17.499l-20 -73c-32 15.333 -77.667 23 -137 23c-27.333 0 -54.333 -5 -81 -15s-50.5 -26.333 -71.5 -49s-37.833 -52.334 -50.5 -89.001s-19 -81.667 -19 -135c0 -48 6 -90 18 -126s28.5 -66 49.5 -90
s45.667 -42 74 -54s59.166 -18 92.499 -18c30 0 56.167 3 78.5 9s41.166 13.667 56.499 23zM382.003 746h-58l-127 103v21h82l59 -50l17 -34l19 33l63 51h78v-22z" />
    <glyph glyph-name="ccaron" unicode="&#x10d;" horiz-adv-x="451" 
d="M418 33c-20 -14.667 -43.666 -25.8301 -70.999 -33.4971s-56 -11.5 -86 -11.5c-38.667 0 -71.334 6.16699 -98.001 18.5s-48.5 30 -65.5 53s-29.333 50.667 -37 83s-11.5 68.166 -11.5 107.499c0 84.667 18.667 149.5 56 194.5s91 67.5 161 67.5
c32 0 59.167 -2.5 81.5 -7.5s42.5 -12.167 60.5 -21.5l-23 -69c-15.333 8.66699 -32.333 15.5 -51 20.5s-38.667 7.5 -60 7.5c-94.667 0 -142 -64 -142 -192c0 -25.333 2.5 -49.5 7.5 -72.5s13.333 -43.333 25 -61s27 -31.834 46 -42.501s42.5 -16 70.5 -16
c24 0 45.5 3.66699 64.5 11s34.5 15.666 46.5 24.999zM270.001 550.004h-37l-115 182h78l39 -66l21 -58l22 58l45 66h70z" />
    <glyph glyph-name="Dcaron" unicode="&#x10e;" horiz-adv-x="654" 
d="M85 700c12.667 2 26.835 3.50098 42.502 4.50098s32 1.66699 49 2l50 1c16.333 0.333008 31.5 0.5 45.5 0.5c56 0 104.5 -8.66699 145.5 -26s74.833 -41.5 101.5 -72.5s46.5 -68.167 59.5 -111.5s19.5 -91 19.5 -143c0 -47.333 -6.16699 -92.833 -18.5 -136.5
s-31.833 -82.334 -58.5 -116.001s-61.334 -60.667 -104.001 -81s-94.334 -30.5 -155.001 -30.5c-10.667 0 -24.5 0.166992 -41.5 0.5s-34.5 1 -52.5 2s-34.667 1.83301 -50 2.5s-26.333 1.66699 -33 3v701zM274.001 634.001l-28.499 0.00195312
c-10.333 0 -20.5 -0.333008 -30.5 -1s-19.167 -1.33398 -27.5 -2.00098s-14.833 -1.33398 -19.5 -2.00098v-560c3.33301 -0.666992 9.66602 -1.16699 18.999 -1.5l29 -1l29 -1c9.33301 -0.333008 15.666 -0.5 18.999 -0.5c46.667 0 85.834 8 117.501 24s57 37.5 76 64.5
s32.5 58 40.5 93s12 71.167 12 108.5c0 32.667 -3.66699 65.5 -11 98.5s-20 62.833 -38 89.5s-42.167 48.5 -72.5 65.5s-68.5 25.5 -114.5 25.5zM306.002 746.003h-58l-127 103v21h82l59 -50l17 -34l19 33l63 51h78v-22z" />
    <glyph glyph-name="dcaron" unicode="&#x10f;" horiz-adv-x="589" 
d="M461 172c0 -34 0.332031 -64.832 0.999023 -92.499s3.66699 -54.834 9 -81.501h-54l-20 71h-4c-13.333 -23.333 -32.666 -42.666 -57.999 -57.999s-55 -23 -89 -23c-66.667 0 -116.167 21 -148.5 63s-48.5 107.667 -48.5 197c0 85.333 20.167 150.166 60.5 194.499
s95.833 66.5 166.5 66.5c24.667 0 44.167 -1.33301 58.5 -4s29.833 -7 46.5 -13v208h80v-528zM258.999 58.001c34 0 61 8.83301 81 26.5s33.667 44.5 41 80.5v248c-12 9.33301 -25.667 16 -41 20s-35.666 6 -60.999 6c-46 0 -82 -15.167 -108 -45.5s-39 -78.833 -39 -145.5
c0 -27.333 2.16699 -52.666 6.5 -75.999s11.5 -43.333 21.5 -60s23.167 -29.834 39.5 -39.501s36.166 -14.5 59.499 -14.5zM613.999 700.001c-1.33301 -19.333 -5.33301 -39.1689 -12 -59.502s-14.167 -39.166 -22.5 -56.499s-16.833 -32.666 -25.5 -45.999s-16 -23 -22 -29
l-33 18c11.333 24 20 51.167 26 81.5s9 60.833 9 91.5h80z" />
    <glyph glyph-name="Dcroat" unicode="&#x110;" horiz-adv-x="658" 
d="M-1 392l90.001 0.000976562v308c12.667 2 26.834 3.5 42.501 4.5s32 1.66699 49 2l50 1c16.333 0.333008 31.5 0.5 45.5 0.5c56 0 104.5 -8.66699 145.5 -26s74.833 -41.5 101.5 -72.5s46.5 -68.167 59.5 -111.5s19.5 -91 19.5 -143
c0 -47.333 -6.16699 -92.833 -18.5 -136.5s-31.833 -82.334 -58.5 -116.001s-61.334 -60.667 -104.001 -81s-94.334 -30.5 -155.001 -30.5c-10.667 0 -24.5 0.166992 -41.5 0.5s-34.5 1 -52.5 2s-34.667 1.83301 -50 2.5s-26.333 1.66699 -33 3v333h-90v60zM278.001 634.001
l-28.499 0.00195312c-10.333 0 -20.5 -0.333008 -30.5 -1s-19.167 -1.33398 -27.5 -2.00098s-14.833 -1.33398 -19.5 -2.00098v-237h147v-60h-147v-263c3.33301 -0.666992 9.66602 -1.16699 18.999 -1.5l29 -1l29 -1c9.33301 -0.333008 15.666 -0.5 18.999 -0.5
c46.667 0 85.834 8 117.501 24s57 37.5 76 64.5s32.5 58 40.5 93s12 71.167 12 108.5c0 32.667 -3.66699 65.5 -11 98.5s-20 62.833 -38 89.5s-42.167 48.5 -72.5 65.5s-68.5 25.5 -114.5 25.5z" />
    <glyph glyph-name="dcroat" unicode="&#x111;" horiz-adv-x="540" 
d="M461 632l80.999 0.000976562v-60h-81v-400c0 -34 0.333008 -64.833 1 -92.5s3.66699 -54.834 9 -81.501h-54l-20 71h-4c-13.333 -23.333 -32.666 -42.666 -57.999 -57.999s-55 -23 -89 -23c-66.667 0 -116.167 21 -148.5 63s-48.5 107.667 -48.5 197
c0 85.333 20.167 150.166 60.5 194.499s95.833 66.5 166.5 66.5c24.667 0 44.167 -1.33301 58.5 -4s29.833 -7 46.5 -13v80h-157v60h157v68h80v-68zM258.999 58.001c34 0 61 8.83203 81 26.499s33.667 44.5 41 80.5v249c-12 9.33301 -25.667 15.833 -41 19.5
s-35.666 5.5 -60.999 5.5c-46 0 -82 -15.167 -108 -45.5s-39 -78.833 -39 -145.5c0 -27.333 2.16699 -52.666 6.5 -75.999s11.5 -43.5 21.5 -60.5s23.167 -30.167 39.5 -39.5s36.166 -14 59.499 -14z" />
    <glyph glyph-name="Emacron" unicode="&#x112;" 
d="M85 700h381v-74h-298v-229h273v-74h-273v-249h303v-74h-386v700zM109 843h316v-62h-316v62z" />
    <glyph glyph-name="emacron" unicode="&#x113;" horiz-adv-x="508" 
d="M442 40c-20 -16 -45.168 -28.666 -75.501 -37.999s-62.5 -14 -96.5 -14c-38 0 -71 6.16699 -99 18.5s-51 30 -69 53s-31.333 50.5 -40 82.5s-13 68 -13 108c0 85.333 19 150.333 57 195s92.333 67 163 67c22.667 0 45.334 -2.5 68.001 -7.5s43 -14.5 61 -28.5
s32.667 -33.833 44 -59.5s17 -59.5 17 -101.5c0 -22 -2 -46.333 -6 -73h-321c0 -29.333 3 -55.333 9 -78s15.333 -41.834 28 -57.501s29.167 -27.667 49.5 -36s45.166 -12.5 74.499 -12.5c22.667 0 45.334 4 68.001 12s39.667 17.333 51 28zM269.999 442.001
c-39.333 0 -70.833 -10.333 -94.5 -31s-37.834 -56 -42.501 -106h248c0 50.667 -9.66699 86.167 -29 106.5s-46.666 30.5 -81.999 30.5zM106.999 643.001h296v-62h-296v62z" />
    <glyph glyph-name="Edotaccent" unicode="&#x116;" 
d="M85 700h381v-74h-298v-229h273v-74h-273v-249h303v-74h-386v700zM212 797c0 14 5.5 26.167 16.5 36.5s26.167 15.5 45.5 15.5s34.833 -5.16699 46.5 -15.5s17.5 -22.5 17.5 -36.5c0 -15.333 -5.83301 -28 -17.5 -38s-27.167 -15 -46.5 -15s-34.5 5 -45.5 15
s-16.5 22.667 -16.5 38z" />
    <glyph glyph-name="edotaccent" unicode="&#x117;" horiz-adv-x="508" 
d="M442 40c-20 -16 -45.168 -28.666 -75.501 -37.999s-62.5 -14 -96.5 -14c-38 0 -71 6.16699 -99 18.5s-51 30 -69 53s-31.333 50.5 -40 82.5s-13 68 -13 108c0 85.333 19 150.333 57 195s92.333 67 163 67c22.667 0 45.334 -2.5 68.001 -7.5s43 -14.5 61 -28.5
s32.667 -33.833 44 -59.5s17 -59.5 17 -101.5c0 -22 -2 -46.333 -6 -73h-321c0 -29.333 3 -55.333 9 -78s15.333 -41.834 28 -57.501s29.167 -27.667 49.5 -36s45.166 -12.5 74.499 -12.5c22.667 0 45.334 4 68.001 12s39.667 17.333 51 28zM269.999 442.001
c-39.333 0 -70.833 -10.333 -94.5 -31s-37.834 -56 -42.501 -106h248c0 50.667 -9.66699 86.167 -29 106.5s-46.666 30.5 -81.999 30.5zM215.999 652.001c0 15.333 5.16699 28.5 15.5 39.5s23.5 16.5 39.5 16.5s29.667 -5.5 41 -16.5s17 -24.167 17 -39.5
s-5.66699 -28 -17 -38s-25 -15 -41 -15s-29.167 5 -39.5 15s-15.5 22.667 -15.5 38z" />
    <glyph glyph-name="Eogonek" unicode="&#x118;" 
d="M85 700l380.998 -0.000976562v-74h-298v-229h273v-74h-273v-249h303v-74h-36c-17.333 -10.667 -31.166 -23 -41.499 -37s-15.5 -30.667 -15.5 -50c0 -13.333 4.33301 -25.166 13 -35.499s21.334 -15.5 38.001 -15.5c12.667 0 26 3.33301 40 10l11 -43
c-10 -8 -23.333 -14 -40 -18s-32 -6 -46 -6c-30 0 -54 8 -72 24s-27 37.667 -27 65c0 23.333 7 44 21 62s33.667 32.667 59 44h-290v700z" />
    <glyph glyph-name="eogonek" unicode="&#x119;" horiz-adv-x="508" 
d="M442 40c-7.33301 -6 -15.3311 -11.3359 -23.998 -16.0029s-17.667 -9 -27 -13c-22.667 -11.333 -40.334 -25.166 -53.001 -41.499s-19.334 -35.166 -20.001 -56.499c0.666992 -14 5.5 -26 14.5 -36s21.833 -15.333 38.5 -16c12.667 0.666992 26 4 40 10l11 -43
c-10 -8 -23.5 -13.833 -40.5 -17.5s-32.5 -5.5 -46.5 -5.5c-30 0.666992 -53.833 8.83398 -71.5 24.501s-26.834 37.167 -27.501 64.5c0 20 5 38 15 54s23.667 29.667 41 41c-3.33301 -0.666992 -7 -1 -11 -1h-11c-38 0 -71 6.16699 -99 18.5s-51 30 -69 53
s-31.333 50.5 -40 82.5s-13 68 -13 108c0 85.333 19 150.333 57 195s92.333 67 163 67c22.667 0 45.334 -2.5 68.001 -7.5s43 -14.5 61 -28.5s32.667 -33.833 44 -59.5s17 -59.5 17 -101.5c0 -22 -2 -46.333 -6 -73h-321c0 -29.333 3 -55.333 9 -78s15.333 -42 28 -58
s29.167 -28 49.5 -36s45.166 -12 74.499 -12c22.667 0 45.334 4 68.001 12s39.667 17.333 51 28zM270.002 441.997c-39.333 0 -70.833 -10.333 -94.5 -31s-37.834 -56 -42.501 -106h248c0 50.667 -9.66699 86.167 -29 106.5s-46.666 30.5 -81.999 30.5z" />
    <glyph glyph-name="Ecaron" unicode="&#x11a;" 
d="M85 700h381v-74h-298v-229h273v-74h-273v-249h303v-74h-386v700zM294 746h-58l-127 103v21h82l59 -50l17 -34l19 33l63 51h78v-22z" />
    <glyph glyph-name="ecaron" unicode="&#x11b;" horiz-adv-x="508" 
d="M442 40c-20 -16 -45.168 -28.666 -75.501 -37.999s-62.5 -14 -96.5 -14c-38 0 -71 6.16699 -99 18.5s-51 30 -69 53s-31.333 50.5 -40 82.5s-13 68 -13 108c0 85.333 19 150.333 57 195s92.333 67 163 67c22.667 0 45.334 -2.5 68.001 -7.5s43 -14.5 61 -28.5
s32.667 -33.833 44 -59.5s17 -59.5 17 -101.5c0 -22 -2 -46.333 -6 -73h-321c0 -29.333 3 -55.333 9 -78s15.333 -41.834 28 -57.501s29.167 -27.667 49.5 -36s45.166 -12.5 74.499 -12.5c22.667 0 45.334 4 68.001 12s39.667 17.333 51 28zM269.999 442.001
c-39.333 0 -70.833 -10.333 -94.5 -31s-37.834 -56 -42.501 -106h248c0 50.667 -9.66699 86.167 -29 106.5s-46.666 30.5 -81.999 30.5zM278.999 550.001h-37l-115 182h78l39 -66l21 -58l22 58l45 66h70z" />
    <glyph glyph-name="Gcircumflex" unicode="&#x11c;" horiz-adv-x="612" 
d="M321 349l234.999 0.00195312v-308c-10.667 -8 -23.5 -15.333 -38.5 -22s-31 -12.334 -48 -17.001s-34.667 -8.16699 -53 -10.5s-36.166 -3.5 -53.499 -3.5c-44.667 0 -85.667 7.16699 -123 21.5s-69.666 36.333 -96.999 66s-48.666 67.334 -63.999 113.001
s-23 99.5 -23 161.5c0 64.667 9.33301 120 28 166s43 83.5 73 112.5s63.667 50.167 101 63.5s74.666 20 111.999 20c40 0 73 -2.16699 99 -6.5s48 -10.166 66 -17.499l-21 -73c-32 15.333 -77.667 23 -137 23c-28 0 -55.833 -4.83301 -83.5 -14.5
s-52.5 -25.834 -74.5 -48.501s-40 -52.334 -54 -89.001s-21 -82 -21 -136c0 -49.333 5.66699 -92 17 -128s27.166 -65.833 47.499 -89.5s44.833 -41.334 73.5 -53.001s60 -17.5 94 -17.5c42.667 0 79 8.33301 109 25v195l-164 20v47zM330.999 870.002h60l127 -102v-21h-81
l-60 49l-17 35l-19 -34l-64 -50h-79v22z" />
    <glyph glyph-name="gcircumflex" unicode="&#x11d;" horiz-adv-x="537" 
d="M460 -23c0 -64.667 -17.1699 -112.332 -51.5029 -142.999s-85.166 -46 -152.499 -46c-40 0 -72.167 2.5 -96.5 7.5s-45.166 11.5 -62.499 19.5l21 68c15.333 -6 32.333 -11.667 51 -17s43 -8 73 -8c28 0 50.833 2.5 68.5 7.5s31.834 13.333 42.501 25s18 26.667 22 45
s6 40.166 6 65.499v48h-4c-13.333 -19.333 -30.333 -34.166 -51 -44.499s-47.667 -15.5 -81 -15.5c-67.333 0 -116.833 21 -148.5 63s-47.5 107.333 -47.5 196c0 85.333 20.333 150.166 61 194.499s100.667 66.5 180 66.5c38 0 70.5 -3 97.5 -9s51.167 -13 72.5 -21v-502z
M258.997 59.002c34 0 60.667 8.5 80 25.5s33 43.5 41 79.5v256c-26.667 12.667 -60.667 19 -102 19c-45.333 0 -81 -15.333 -107 -46s-39 -78.667 -39 -144c0 -28 2.33301 -53.667 7 -77s12 -43.333 22 -60s23 -29.667 39 -39s35.667 -14 59 -14zM259.997 732.002h32
l111 -182h-72l-39 66l-21 58l-22 -58l-45 -66h-67z" />
    <glyph glyph-name="Gbreve" unicode="&#x11e;" horiz-adv-x="612" 
d="M321 349l234.999 0.00195312v-308c-10.667 -8 -23.5 -15.333 -38.5 -22s-31 -12.334 -48 -17.001s-34.667 -8.16699 -53 -10.5s-36.166 -3.5 -53.499 -3.5c-44.667 0 -85.667 7.16699 -123 21.5s-69.666 36.333 -96.999 66s-48.666 67.334 -63.999 113.001
s-23 99.5 -23 161.5c0 64.667 9.33301 120 28 166s43 83.5 73 112.5s63.667 50.167 101 63.5s74.666 20 111.999 20c40 0 73 -2.16699 99 -6.5s48 -10.166 66 -17.499l-21 -73c-32 15.333 -77.667 23 -137 23c-28 0 -55.833 -4.83301 -83.5 -14.5
s-52.5 -25.834 -74.5 -48.501s-40 -52.334 -54 -89.001s-21 -82 -21 -136c0 -49.333 5.66699 -92 17 -128s27.166 -65.833 47.499 -89.5s44.833 -41.334 73.5 -53.001s60 -17.5 94 -17.5c42.667 0 79 8.33301 109 25v195l-164 20v47zM222.999 871.002
c11.333 -22.667 28.668 -40.167 52.001 -52.5s50.666 -18.5 81.999 -18.5c32 0 59 7 81 21s37.667 30.667 47 50l40 -19c-6 -19.333 -14.5 -36.5 -25.5 -51.5s-24 -27.833 -39 -38.5s-31.5 -18.667 -49.5 -24s-36.333 -8 -55 -8c-18 0 -35.833 2.33301 -53.5 7
s-34.167 11.667 -49.5 21s-29.333 21.5 -42 36.5s-23 32.5 -31 52.5z" />
    <glyph glyph-name="gbreve" unicode="&#x11f;" horiz-adv-x="537" 
d="M460 -23c0 -64.667 -17.1699 -112.332 -51.5029 -142.999s-85.166 -46 -152.499 -46c-40 0 -72.167 2.5 -96.5 7.5s-45.166 11.5 -62.499 19.5l21 68c15.333 -6 32.333 -11.667 51 -17s43 -8 73 -8c28 0 50.833 2.5 68.5 7.5s31.834 13.333 42.501 25s18 26.667 22 45
s6 40.166 6 65.499v48h-4c-13.333 -19.333 -30.333 -34.166 -51 -44.499s-47.667 -15.5 -81 -15.5c-67.333 0 -116.833 21 -148.5 63s-47.5 107.333 -47.5 196c0 85.333 20.333 150.166 61 194.499s100.667 66.5 180 66.5c38 0 70.5 -3 97.5 -9s51.167 -13 72.5 -21v-502z
M258.997 59.002c34 0 60.667 8.5 80 25.5s33 43.5 41 79.5v256c-26.667 12.667 -60.667 19 -102 19c-45.333 0 -81 -15.333 -107 -46s-39 -78.667 -39 -144c0 -28 2.33301 -53.667 7 -77s12 -43.333 22 -60s23 -29.667 39 -39s35.667 -14 59 -14zM160.997 720.002
c12 -24 28.0029 -42.833 48.0029 -56.5s41.333 -20.5 64 -20.5s43.167 6.66699 61.5 20s33.166 32.333 44.499 57l42 -18c-2 -16 -7.16699 -31.833 -15.5 -47.5s-19 -29.5 -32 -41.5s-28.167 -21.667 -45.5 -29s-36 -11 -56 -11c-18.667 0 -36.334 2.83301 -53.001 8.5
s-31.834 14 -45.501 25s-25.5 24 -35.5 39s-17.333 32.167 -22 51.5z" />
    <glyph glyph-name="Gcommaaccent" unicode="&#x122;" horiz-adv-x="612" 
d="M321 349l234.999 0.00195312v-308c-10.667 -8 -23.5 -15.333 -38.5 -22s-31 -12.334 -48 -17.001s-34.667 -8.16699 -53 -10.5s-36.166 -3.5 -53.499 -3.5c-44.667 0 -85.667 7.16699 -123 21.5s-69.666 36.333 -96.999 66s-48.666 67.334 -63.999 113.001
s-23 99.5 -23 161.5c0 64.667 9.33301 120 28 166s43 83.5 73 112.5s63.667 50.167 101 63.5s74.666 20 111.999 20c40 0 73 -2.16699 99 -6.5s48 -10.166 66 -17.499l-21 -73c-32 15.333 -77.667 23 -137 23c-28 0 -55.833 -4.83301 -83.5 -14.5
s-52.5 -25.834 -74.5 -48.501s-40 -52.334 -54 -89.001s-21 -82 -21 -136c0 -49.333 5.66699 -92 17 -128s27.166 -65.833 47.499 -89.5s44.833 -41.334 73.5 -53.001s60 -17.5 94 -17.5c42.667 0 79 8.33301 109 25v195l-164 20v47zM293.999 -101.998
c0 14 5.16797 25.3369 15.501 34.0039s22.166 13 35.499 13c16.667 0 31.5 -5.83301 44.5 -17.5s19.5 -30.834 19.5 -57.501c0 -17.333 -3 -32.5 -9 -45.5s-13.167 -24.333 -21.5 -34s-17 -17.334 -26 -23.001s-16.833 -9.83398 -23.5 -12.501l-28 32
c13.333 7.33301 24 16.666 32 27.999s12 25 12 41c-2.66699 -0.666992 -6 -1 -10 -1c-12 0 -21.833 4 -29.5 12s-11.5 18.333 -11.5 31z" />
    <glyph glyph-name="gcommaaccent" unicode="&#x123;" horiz-adv-x="537" 
d="M460 -23c0 -64.667 -17.1699 -112.332 -51.5029 -142.999s-85.166 -46 -152.499 -46c-40 0 -72.167 2.5 -96.5 7.5s-45.166 11.5 -62.499 19.5l21 68c15.333 -6 32.333 -11.667 51 -17s43 -8 73 -8c28 0 50.833 2.5 68.5 7.5s31.834 13.333 42.501 25s18 26.667 22 45
s6 40.166 6 65.499v48h-4c-13.333 -19.333 -30.333 -34.166 -51 -44.499s-47.667 -15.5 -81 -15.5c-67.333 0 -116.833 21 -148.5 63s-47.5 107.333 -47.5 196c0 85.333 20.333 150.166 61 194.499s100.667 66.5 180 66.5c38 0 70.5 -3 97.5 -9s51.167 -13 72.5 -21v-502z
M258.997 59.002c34 0 60.667 8.5 80 25.5s33 43.5 41 79.5v256c-26.667 12.667 -60.667 19 -102 19c-45.333 0 -81 -15.333 -107 -46s-39 -78.667 -39 -144c0 -28 2.33301 -53.667 7 -77s12 -43.333 22 -60s23 -29.667 39 -39s35.667 -14 59 -14zM345.001 608.996
c0 -13.999 -5.16504 -25.3311 -15.498 -33.9971s-22.166 -12.999 -35.499 -12.999c-16.666 0 -31.498 5.83301 -44.4971 17.499c-12.999 11.665 -19.499 30.8301 -19.499 57.4951c0 17.332 3 32.498 8.99902 45.4971c6 12.999 13.166 24.332 21.499 33.998
s16.999 17.332 25.998 22.999c9 5.66602 16.833 9.83203 23.499 12.499l27.998 -31.998c-13.333 -7.33301 -23.999 -16.666 -31.998 -27.999c-7.99902 -11.332 -11.999 -24.998 -11.999 -40.9971c2.66699 0.666992 6 1 9.99902 1c11.999 0 21.832 -4 29.498 -11.999
c7.66699 -8 11.5 -18.333 11.5 -30.998z" />
    <glyph glyph-name="Hcircumflex" unicode="&#x124;" horiz-adv-x="672" 
d="M504 321h-336v-321h-83v700h83v-305h336v305h83v-700h-83v321zM307 870h60l127 -102v-21h-81l-60 49l-17 35l-19 -34l-64 -50h-79v22z" />
    <glyph glyph-name="hcircumflex" unicode="&#x125;" horiz-adv-x="547" 
d="M398 0l-0.00195312 285c0 26 -1.5 48.833 -4.5 68.5s-8.5 36 -16.5 49s-18.833 22.833 -32.5 29.5s-31.5 10 -53.5 10c-31.333 0 -59.666 -10.167 -84.999 -30.5s-41.666 -46.5 -48.999 -78.5v-333h-80v700h80v-256h4c17.333 20.667 38.166 37.167 62.499 49.5
s54.5 18.5 90.5 18.5c28 0 52.333 -3.16699 73 -9.5s37.834 -17.5 51.501 -33.5s23.667 -37.5 30 -64.5s9.5 -61.167 9.5 -102.5v-302h-80zM92.998 870h60l127 -102v-21h-81l-60 49l-17 35l-19 -34l-64 -50h-79v22z" />
    <glyph glyph-name="Hbar" unicode="&#x126;" horiz-adv-x="677" 
d="M9 587h79v113h83v-113h336v113h83v-113h79v-64h-79v-523h-83v321h-336v-321h-83v523h-79v64zM507 395v128h-336v-128h336z" />
    <glyph glyph-name="hbar" unicode="&#x127;" horiz-adv-x="549" 
d="M-1 632h79.998v68h80v-68h160v-60h-160v-128h4c17.333 20.667 38.166 37.167 62.499 49.5s54.5 18.5 90.5 18.5c28 0 52.333 -3.16699 73 -9.5s37.834 -17.5 51.501 -33.5s23.667 -37.5 30 -64.5s9.5 -61.167 9.5 -102.5v-302h-80v285c0 26 -1.5 48.833 -4.5 68.5
s-8.5 36 -16.5 49s-18.833 22.833 -32.5 29.5s-31.5 10 -53.5 10c-31.333 0 -59.666 -10.167 -84.999 -30.5s-41.666 -46.5 -48.999 -78.5v-333h-80v572h-80v60z" />
    <glyph glyph-name="Imacron" unicode="&#x12a;" horiz-adv-x="291" 
d="M104 700h83v-700h-83v700zM-11 843h316v-62h-316v62z" />
    <glyph glyph-name="imacron" unicode="&#x12b;" horiz-adv-x="268" 
d="M94 500h80v-500h-80v500zM-13 643h296v-62h-296v62z" />
    <glyph glyph-name="Iogonek" unicode="&#x12e;" horiz-adv-x="291" 
d="M104 700h82.999v-700h-14c-17.333 -10.667 -31 -23.167 -41 -37.5s-15 -31.166 -15 -50.499c0 -13.333 4.33301 -25.166 13 -35.499s21.334 -15.5 38.001 -15.5c12.667 0 26 3.33301 40 10l11 -43c-10 -8 -23.333 -13.833 -40 -17.5s-32 -5.5 -46 -5.5
c-30 0 -54 7.83301 -72 23.5s-27 37.167 -27 64.5c0 23.333 7 44.166 21 62.499s33.667 33.166 59 44.499h-10v700z" />
    <glyph glyph-name="iogonek" unicode="&#x12f;" horiz-adv-x="269" 
d="M94 500l80.001 0.00292969v-500h-18c-16.667 -10.667 -29.834 -23.334 -39.501 -38.001s-14.5 -31.334 -14.5 -50.001c0 -13.333 4.33301 -25.166 13 -35.499s21.334 -15.5 38.001 -15.5c12.667 0 26 3.33301 40 10l11 -43c-10 -8 -23.333 -13.833 -40 -17.5
s-32.334 -5.5 -47.001 -5.5c-30 0 -53.833 7.83301 -71.5 23.5s-26.5 37.167 -26.5 64.5c0 23.333 7 44.166 21 62.499s33.667 33.166 59 44.499h-5v500zM77.001 652.003c0 15.333 5.16699 28.5 15.5 39.5s23.5 16.5 39.5 16.5s29.667 -5.5 41 -16.5s17 -24.167 17 -39.5
s-5.66699 -28 -17 -38s-25 -15 -41 -15s-29.167 5 -39.5 15s-15.5 22.667 -15.5 38z" />
    <glyph glyph-name="Idotaccent" unicode="&#x130;" horiz-adv-x="291" 
d="M104 700h83v-700h-83v700zM84 797c0 14 5.5 26.167 16.5 36.5s26.167 15.5 45.5 15.5s34.833 -5.16699 46.5 -15.5s17.5 -22.5 17.5 -36.5c0 -15.333 -5.83301 -28 -17.5 -38s-27.167 -15 -46.5 -15s-34.5 5 -45.5 15s-16.5 22.667 -16.5 38z" />
    <glyph glyph-name="dotlessi" unicode="&#x131;" horiz-adv-x="268" 
d="M94 500h80v-500h-80v500z" />
    <glyph glyph-name="Jcircumflex" unicode="&#x134;" horiz-adv-x="291" 
d="M112 700h83.001v-546c0 -53.333 -11.833 -94 -35.5 -122s-59.5 -42 -107.5 -42c-5.33301 0 -12 0.333008 -20 1s-16 1.66699 -24 3s-15.833 3 -23.5 5s-13.834 4.33301 -18.501 7l16 71c18.667 -8.66699 39 -13 61 -13c28 0 46.5 9.83301 55.5 29.5s13.5 46.5 13.5 80.5
v526zM125.001 870h60l127 -102v-21h-81l-60 49l-17 35l-19 -34l-64 -50h-79v22z" />
    <glyph glyph-name="jcircumflex" unicode="&#x135;" horiz-adv-x="267" 
d="M93 500h80v-527c0 -62 -10.667 -108.333 -32 -139s-55.333 -46 -102 -46c-5.33301 0 -10.333 0.166992 -15 0.5s-9.66699 0.833008 -15 1.5v68c18.667 0 33.5 2.83301 44.5 8.5s19.5 14.5 25.5 26.5s9.83301 27.167 11.5 45.5s2.5 39.833 2.5 64.5v497zM124 732h32
l111 -182h-72l-39 66l-21 58l-22 -58l-45 -66h-67z" />
    <glyph glyph-name="Kcommaaccent" unicode="&#x136;" horiz-adv-x="610" 
d="M215 324h-47v-324h-83v700h83v-326l45 14l235 312h96l-234 -301l-42 -33l51 -40l256 -326h-105zM232 -102c0 14 5.16797 25.3369 15.501 34.0039s22.166 13 35.499 13c16.667 0 31.5 -5.83301 44.5 -17.5s19.5 -30.834 19.5 -57.501c0 -17.333 -3 -32.5 -9 -45.5
s-13.167 -24.333 -21.5 -34s-17 -17.334 -26 -23.001s-16.833 -9.83398 -23.5 -12.501l-28 32c13.333 7.33301 24 16.666 32 27.999s12 25 12 41c-2.66699 -0.666992 -6 -1 -10 -1c-12 0 -21.833 4 -29.5 12s-11.5 18.333 -11.5 31z" />
    <glyph glyph-name="kcommaaccent" unicode="&#x137;" horiz-adv-x="479" 
d="M203 225h-46v-225h-80v700h80v-426l41 14l155 212h93l-153 -201l-41 -33l50 -40l167 -226h-99zM183 -102c0 14 5.16797 25.3369 15.501 34.0039s22.166 13 35.499 13c16.667 0 31.5 -5.83301 44.5 -17.5s19.5 -30.834 19.5 -57.501c0 -17.333 -3 -32.5 -9 -45.5
s-13.167 -24.333 -21.5 -34s-17 -17.334 -26 -23.001s-16.833 -9.83398 -23.5 -12.501l-28 32c13.333 7.33301 24 16.666 32 27.999s12 25 12 41c-2.66699 -0.666992 -6 -1 -10 -1c-12 0 -21.833 4 -29.5 12s-11.5 18.333 -11.5 31z" />
    <glyph glyph-name="Lacute" unicode="&#x139;" horiz-adv-x="517" 
d="M499 0h-414v700h83v-626h331v-74zM231 870h114v-21l-163 -97h-69z" />
    <glyph glyph-name="lacute" unicode="&#x13a;" horiz-adv-x="292" 
d="M166 123c0 -23.333 4 -40.001 12 -50.001s19.333 -15 34 -15c8.66699 0 18 0.666992 28 2s21.333 4.33301 34 9l9 -63c-10.667 -5.33301 -25.5 -9.66602 -44.5 -12.999s-35.5 -5 -49.5 -5c-30 0 -54.667 8.5 -74 25.5s-29 45.833 -29 86.5v600h80v-577zM208 869.999h114
v-21l-163 -97h-69z" />
    <glyph glyph-name="Lcommaaccent" unicode="&#x13b;" horiz-adv-x="517" 
d="M499 0h-414v700h83v-626h331v-74zM192 -102c0 14 5.16797 25.3369 15.501 34.0039s22.166 13 35.499 13c16.667 0 31.5 -5.83301 44.5 -17.5s19.5 -30.834 19.5 -57.501c0 -17.333 -3 -32.5 -9 -45.5s-13.167 -24.333 -21.5 -34s-17 -17.334 -26 -23.001
s-16.833 -9.83398 -23.5 -12.501l-28 32c13.333 7.33301 24 16.666 32 27.999s12 25 12 41c-2.66699 -0.666992 -6 -1 -10 -1c-12 0 -21.833 4 -29.5 12s-11.5 18.333 -11.5 31z" />
    <glyph glyph-name="lcommaaccent" unicode="&#x13c;" horiz-adv-x="292" 
d="M166 123c0 -23.333 4 -40.001 12 -50.001s19.333 -15 34 -15c8.66699 0 18 0.666992 28 2s21.333 4.33301 34 9l9 -63c-10.667 -5.33301 -25.5 -9.66602 -44.5 -12.999s-35.5 -5 -49.5 -5c-30 0 -54.667 8.5 -74 25.5s-29 45.833 -29 86.5v600h80v-577zM117 -102.001
c0 14 5.16797 25.3369 15.501 34.0039s22.166 13 35.499 13c16.667 0 31.5 -5.83301 44.5 -17.5s19.5 -30.834 19.5 -57.501c0 -17.333 -3 -32.5 -9 -45.5s-13.167 -24.333 -21.5 -34s-17 -17.334 -26 -23.001s-16.833 -9.83398 -23.5 -12.501l-28 32
c13.333 7.33301 24 16.666 32 27.999s12 25 12 41c-2.66699 -0.666992 -6 -1 -10 -1c-12 0 -21.833 4 -29.5 12s-11.5 18.333 -11.5 31z" />
    <glyph glyph-name="Lcaron" unicode="&#x13d;" horiz-adv-x="517" 
d="M499 0h-414v700h83v-626h331v-74zM429 700c-1.33301 -19.333 -5.33301 -39.1689 -12 -59.502s-14.167 -39.166 -22.5 -56.499s-16.833 -32.666 -25.5 -45.999s-16 -23 -22 -29l-33 18c11.333 24 20 51.167 26 81.5s9 60.833 9 91.5h80z" />
    <glyph glyph-name="lcaron" unicode="&#x13e;" horiz-adv-x="292" 
d="M166 123c0 -23.333 4 -40.001 12 -50.001s19.333 -15 34 -15c8.66699 0 18 0.666992 28 2s21.333 4.33301 34 9l9 -63c-10.667 -5.33301 -25.5 -9.66602 -44.5 -12.999s-35.5 -5 -49.5 -5c-30 0 -54.667 8.5 -74 25.5s-29 45.833 -29 86.5v600h80v-577zM321 699.999
c-1.33301 -19.333 -5.33301 -39.1689 -12 -59.502s-14.167 -39.166 -22.5 -56.499s-16.833 -32.666 -25.5 -45.999s-16 -23 -22 -29l-33 18c11.333 24 20 51.167 26 81.5s9 60.833 9 91.5h80z" />
    <glyph glyph-name="Lslash" unicode="&#x141;" horiz-adv-x="517" 
d="M15 287l70 55v358h83v-293l107 84v-80l-107 -82v-255h331v-74h-414v265l-70 -54v76z" />
    <glyph glyph-name="lslash" unicode="&#x142;" horiz-adv-x="292" 
d="M10 285l76 58.999v356h80v-293l104 82v-80l-104 -80v-206c0 -23.333 4 -40 12 -50s19.333 -15 34 -15c8.66699 0 18 0.666992 28 2s21.333 4.33301 34 9l9 -63c-10.667 -5.33301 -25.5 -9.66602 -44.5 -12.999s-35.5 -5 -49.5 -5c-30 0 -54.667 8.5 -74 25.5
s-29 45.833 -29 86.5v167l-76 -58v76z" />
    <glyph glyph-name="Nacute" unicode="&#x143;" horiz-adv-x="673" 
d="M211 458l-54 101h-4l10 -101v-458h-78v711h44l335 -467l52 -96h5l-11 96v456h78v-711h-44zM407 870h114v-21l-163 -97h-69z" />
    <glyph glyph-name="nacute" unicode="&#x144;" horiz-adv-x="547" 
d="M398 0l-0.000976562 285c0 52 -7.5 91.167 -22.5 117.5s-42.5 39.5 -82.5 39.5c-35.333 0 -64.5 -9.5 -87.5 -28.5s-39.167 -42.833 -48.5 -71.5v-342h-80v500h56l15 -61h4c16 21.333 37.5 38.833 64.5 52.5s59.167 20.5 96.5 20.5c27.333 0 51.333 -3.16699 72 -9.5
s37.834 -17.5 51.501 -33.5s24 -37.5 31 -64.5s10.5 -61.167 10.5 -102.5v-302h-80zM299.999 720h89v-21l-101 -128h-47z" />
    <glyph glyph-name="Ncommaaccent" unicode="&#x145;" horiz-adv-x="673" 
d="M211 458l-54 101h-4l10 -101v-458h-78v711h44l335 -467l52 -96h5l-11 96v456h78v-711h-44zM279 -102c0 14 5.16797 25.3369 15.501 34.0039s22.166 13 35.499 13c16.667 0 31.5 -5.83301 44.5 -17.5s19.5 -30.834 19.5 -57.501c0 -17.333 -3 -32.5 -9 -45.5
s-13.167 -24.333 -21.5 -34s-17 -17.334 -26 -23.001s-16.833 -9.83398 -23.5 -12.501l-28 32c13.333 7.33301 24 16.666 32 27.999s12 25 12 41c-2.66699 -0.666992 -6 -1 -10 -1c-12 0 -21.833 4 -29.5 12s-11.5 18.333 -11.5 31z" />
    <glyph glyph-name="ncommaaccent" unicode="&#x146;" horiz-adv-x="547" 
d="M398 0l-0.000976562 285c0 52 -7.5 91.167 -22.5 117.5s-42.5 39.5 -82.5 39.5c-35.333 0 -64.5 -9.5 -87.5 -28.5s-39.167 -42.833 -48.5 -71.5v-342h-80v500h56l15 -61h4c16 21.333 37.5 38.833 64.5 52.5s59.167 20.5 96.5 20.5c27.333 0 51.333 -3.16699 72 -9.5
s37.834 -17.5 51.501 -33.5s24 -37.5 31 -64.5s10.5 -61.167 10.5 -102.5v-302h-80zM215.999 -102c0 14 5.16797 25.3369 15.501 34.0039s22.166 13 35.499 13c16.667 0 31.5 -5.83301 44.5 -17.5s19.5 -30.834 19.5 -57.501c0 -17.333 -3 -32.5 -9 -45.5
s-13.167 -24.333 -21.5 -34s-17 -17.334 -26 -23.001s-16.833 -9.83398 -23.5 -12.501l-28 32c13.333 7.33301 24 16.666 32 27.999s12 25 12 41c-2.66699 -0.666992 -6 -1 -10 -1c-12 0 -21.833 4 -29.5 12s-11.5 18.333 -11.5 31z" />
    <glyph glyph-name="Ncaron" unicode="&#x147;" horiz-adv-x="673" 
d="M211 458l-54 101h-4l10 -101v-458h-78v711h44l335 -467l52 -96h5l-11 96v456h78v-711h-44zM364 746h-58l-127 103v21h82l59 -50l17 -34l19 33l63 51h78v-22z" />
    <glyph glyph-name="ncaron" unicode="&#x148;" horiz-adv-x="547" 
d="M398 0l-0.000976562 285c0 52 -7.5 91.167 -22.5 117.5s-42.5 39.5 -82.5 39.5c-35.333 0 -64.5 -9.5 -87.5 -28.5s-39.167 -42.833 -48.5 -71.5v-342h-80v500h56l15 -61h4c16 21.333 37.5 38.833 64.5 52.5s59.167 20.5 96.5 20.5c27.333 0 51.333 -3.16699 72 -9.5
s37.834 -17.5 51.501 -33.5s24 -37.5 31 -64.5s10.5 -61.167 10.5 -102.5v-302h-80zM288.999 550h-37l-115 182h78l39 -66l21 -58l22 58l45 66h70z" />
    <glyph glyph-name="Omacron" unicode="&#x14c;" horiz-adv-x="684" 
d="M56 350c0 116.667 24.6699 206.167 74.0029 268.5s119.666 93.5 210.999 93.5c49.333 0 92 -8.66699 128 -26s65.833 -41.833 89.5 -73.5s41.167 -69.667 52.5 -114s17 -93.833 17 -148.5c0 -116.667 -24.833 -206.167 -74.5 -268.5s-120.5 -93.5 -212.5 -93.5
c-48.667 0 -90.834 8.66699 -126.501 26s-65.334 41.833 -89.001 73.5s-41.167 69.667 -52.5 114s-17 93.833 -17 148.5zM144.003 350c0 -38.667 3.83301 -75.333 11.5 -110s19.5 -65.167 35.5 -91.5s36.5 -47.333 61.5 -63s54.5 -23.5 88.5 -23.5
c62 0 110.667 23.5 146 70.5s53 119.5 53 217.5c0 38 -3.83301 74.5 -11.5 109.5s-19.667 65.667 -36 92s-37 47.333 -62 63s-54.833 23.5 -89.5 23.5c-61.333 0 -109.5 -23.5 -144.5 -70.5s-52.5 -119.5 -52.5 -217.5zM190.003 843.001h316v-62h-316v62z" />
    <glyph glyph-name="omacron" unicode="&#x14d;" 
d="M49 250c0 84.667 18.833 149.5 56.5 194.5s91.834 67.5 162.501 67.5c37.333 0 69.833 -6.16699 97.5 -18.5s50.5 -30 68.5 -53s31.333 -50.667 40 -83s13 -68.166 13 -107.499c0 -84.667 -18.833 -149.5 -56.5 -194.5s-91.834 -67.5 -162.501 -67.5
c-37.333 0 -69.833 6.16699 -97.5 18.5s-50.5 30 -68.5 53s-31.333 50.667 -40 83s-13 68.166 -13 107.499zM132 250c0 -25.333 2.5 -49.666 7.5 -72.999s12.833 -43.666 23.5 -60.999s24.667 -31.333 42 -42s38.333 -16 63 -16c90.667 -0.666992 136 63.333 136 192
c0 26 -2.5 50.667 -7.5 74s-12.833 43.666 -23.5 60.999s-24.667 31.166 -42 41.499s-38.333 15.5 -63 15.5c-90.667 0.666992 -136 -63.333 -136 -192zM120 643h296v-62h-296v62z" />
    <glyph glyph-name="Ohungarumlaut" unicode="&#x150;" horiz-adv-x="684" 
d="M56 350c0 116.667 24.6699 206.167 74.0029 268.5s119.666 93.5 210.999 93.5c49.333 0 92 -8.66699 128 -26s65.833 -41.833 89.5 -73.5s41.167 -69.667 52.5 -114s17 -93.833 17 -148.5c0 -116.667 -24.833 -206.167 -74.5 -268.5s-120.5 -93.5 -212.5 -93.5
c-48.667 0 -90.834 8.66699 -126.501 26s-65.334 41.833 -89.001 73.5s-41.167 69.667 -52.5 114s-17 93.833 -17 148.5zM144.003 350c0 -38.667 3.83301 -75.333 11.5 -110s19.5 -65.167 35.5 -91.5s36.5 -47.333 61.5 -63s54.5 -23.5 88.5 -23.5
c62 0 110.667 23.5 146 70.5s53 119.5 53 217.5c0 38 -3.83301 74.5 -11.5 109.5s-19.667 65.667 -36 92s-37 47.333 -62 63s-54.833 23.5 -89.5 23.5c-61.333 0 -109.5 -23.5 -144.5 -70.5s-52.5 -119.5 -52.5 -217.5zM306.003 850.001h93v-16l-100 -93h-57z
M468.003 850.001h99v-16l-143 -93h-58z" />
    <glyph glyph-name="ohungarumlaut" unicode="&#x151;" 
d="M49 250c0 84.667 18.833 149.5 56.5 194.5s91.834 67.5 162.501 67.5c37.333 0 69.833 -6.16699 97.5 -18.5s50.5 -30 68.5 -53s31.333 -50.667 40 -83s13 -68.166 13 -107.499c0 -84.667 -18.833 -149.5 -56.5 -194.5s-91.834 -67.5 -162.501 -67.5
c-37.333 0 -69.833 6.16699 -97.5 18.5s-50.5 30 -68.5 53s-31.333 50.667 -40 83s-13 68.166 -13 107.499zM132 250c0 -25.333 2.5 -49.666 7.5 -72.999s12.833 -43.666 23.5 -60.999s24.667 -31.333 42 -42s38.333 -16 63 -16c90.667 -0.666992 136 63.333 136 192
c0 26 -2.5 50.667 -7.5 74s-12.833 43.666 -23.5 60.999s-24.667 31.166 -42 41.499s-38.333 15.5 -63 15.5c-90.667 0.666992 -136 -63.333 -136 -192zM211 700h78v-16l-71 -113h-42zM357 700h86v-16l-114 -113h-45z" />
    <glyph glyph-name="OE" unicode="&#x152;" horiz-adv-x="932" 
d="M481 618c-18.667 7.33301 -40.333 12.501 -65 15.501s-49.667 4.5 -75 4.5c-61.333 0 -109.5 -23.5 -144.5 -70.5s-52.5 -119.5 -52.5 -217.5c0 -38.667 3.83301 -75.334 11.5 -110.001s19.834 -65.167 36.501 -91.5s38 -47.333 64 -63s57 -23.5 93 -23.5
c19.333 0 39.166 0.666992 59.499 2s44.5 6.33301 72.5 15v539zM481.001 0.000976562c-16.667 -3.33301 -36.6621 -6.16797 -59.9951 -8.50098s-50 -3.5 -80 -3.5c-48.667 0 -90.834 8.66699 -126.501 26s-65.334 41.833 -89.001 73.5s-41.167 69.667 -52.5 114
s-17 93.833 -17 148.5c0 116.667 24.667 206.167 74 268.5s119.666 93.5 210.999 93.5c31.333 0 57.166 -1.16699 77.499 -3.5s41.166 -5.16602 62.499 -8.49902h381v-74h-298v-229h273v-74h-273v-249h303v-74h-386z" />
    <glyph glyph-name="oe" unicode="&#x153;" horiz-adv-x="858" 
d="M132 250c0 -25.333 2.50098 -49.665 7.50098 -72.998s12.833 -43.833 23.5 -61.5s24.667 -31.667 42 -42s38.333 -15.5 63 -15.5c90 -0.666992 135 63.333 135 192c0 26 -2.33301 50.667 -7 74s-12.334 43.666 -23.001 60.999s-24.667 31.166 -42 41.499
s-38.333 15.5 -63 15.5c-90.667 0.666992 -136 -63.333 -136 -192zM442.001 81.001c-18 -30 -41.501 -53 -70.501 -69s-63.5 -24 -103.5 -24c-37.333 0 -69.833 6.16699 -97.5 18.5s-50.5 30 -68.5 53s-31.333 50.667 -40 83s-13 68.166 -13 107.499
c0 84.667 18.833 149.5 56.5 194.5s91.834 67.5 162.501 67.5c42 0 77.5 -8.66699 106.5 -26s52.167 -39.333 69.5 -66c17.333 28 40.833 50.333 70.5 67s64.5 25 104.5 25c22.667 0 45.334 -2.5 68.001 -7.5s43 -14.5 61 -28.5s32.667 -33.833 44 -59.5s17 -59.5 17 -101.5
c0 -11.333 -0.333008 -23 -1 -35s-2 -24.667 -4 -38h-323c0 -29.333 3 -55.5 9 -78.5s15.333 -42.5 28 -58.5s29.334 -28 50.001 -36s45.667 -12 75 -12c23.333 0 46.166 4.16699 68.499 12.5s39.166 17.833 50.499 28.5l30 -58c-20 -16 -45.167 -28.667 -75.5 -38
s-62.5 -14 -96.5 -14c-41.333 0 -77 8.33301 -107 25s-53.667 39.334 -71 68.001zM620 443.001c-38.667 0 -70 -10.5 -94 -31.5s-38.333 -56.5 -43 -106.5h248v9c0 46 -10 79 -30 99s-47 30 -81 30z" />
    <glyph glyph-name="Racute" unicode="&#x154;" horiz-adv-x="595" 
d="M85 693c25.333 4.66699 54.499 8.33301 87.499 11s63.167 4 90.5 4c30.667 0 59.834 -3.33301 87.501 -10s52 -17.667 73 -33s37.833 -35.333 50.5 -60s19 -54.667 19 -90c0 -54.667 -15 -99 -45 -133s-68 -56.667 -114 -68l48 -37l174 -277h-97l-193 302l-98 15v-317
h-83v693zM264.999 635.999l-26.998 0.000976562c-9.33301 0 -18.333 -0.333008 -27 -1s-16.834 -1.33398 -24.501 -2.00098s-13.834 -1.66699 -18.501 -3v-258h78c46 0 84 11.333 114 34s45 58 45 106c0 36 -12.333 65.667 -37 89s-59 35 -103 35zM320.001 870h114v-21
l-163 -97h-69z" />
    <glyph glyph-name="racute" unicode="&#x155;" horiz-adv-x="340" 
d="M313 423c-20 6.66699 -39 10 -57 10c-28.667 0 -51.334 -7.83301 -68.001 -23.5s-27 -35.5 -31 -59.5v-350h-80v500h56l15 -61h4c12.667 22.667 27.834 40.167 45.501 52.5s40.167 18.5 67.5 18.5c19.333 0 41 -3.33301 65 -10zM195 720h89v-21l-101 -128h-47z" />
    <glyph glyph-name="Rcommaaccent" unicode="&#x156;" horiz-adv-x="595" 
d="M85 693c25.333 4.66699 54.499 8.33301 87.499 11s63.167 4 90.5 4c30.667 0 59.834 -3.33301 87.501 -10s52 -17.667 73 -33s37.833 -35.333 50.5 -60s19 -54.667 19 -90c0 -54.667 -15 -99 -45 -133s-68 -56.667 -114 -68l48 -37l174 -277h-97l-193 302l-98 15v-317
h-83v693zM264.999 635.999l-26.998 0.000976562c-9.33301 0 -18.333 -0.333008 -27 -1s-16.834 -1.33398 -24.501 -2.00098s-13.834 -1.66699 -18.501 -3v-258h78c46 0 84 11.333 114 34s45 58 45 106c0 36 -12.333 65.667 -37 89s-59 35 -103 35zM239.001 -102
c0 14 5.16797 25.3369 15.501 34.0039s22.166 13 35.499 13c16.667 0 31.5 -5.83301 44.5 -17.5s19.5 -30.834 19.5 -57.501c0 -17.333 -3 -32.5 -9 -45.5s-13.167 -24.333 -21.5 -34s-17 -17.334 -26 -23.001s-16.833 -9.83398 -23.5 -12.501l-28 32
c13.333 7.33301 24 16.666 32 27.999s12 25 12 41c-2.66699 -0.666992 -6 -1 -10 -1c-12 0 -21.833 4 -29.5 12s-11.5 18.333 -11.5 31z" />
    <glyph glyph-name="rcommaaccent" unicode="&#x157;" horiz-adv-x="340" 
d="M313 423c-20 6.66699 -39 10 -57 10c-28.667 0 -51.334 -7.83301 -68.001 -23.5s-27 -35.5 -31 -59.5v-350h-80v500h56l15 -61h4c12.667 22.667 27.834 40.167 45.501 52.5s40.167 18.5 67.5 18.5c19.333 0 41 -3.33301 65 -10zM85 -102
c0 14 5.16797 25.3369 15.501 34.0039s22.166 13 35.499 13c16.667 0 31.5 -5.83301 44.5 -17.5s19.5 -30.834 19.5 -57.501c0 -17.333 -3 -32.5 -9 -45.5s-13.167 -24.333 -21.5 -34s-17 -17.334 -26 -23.001s-16.833 -9.83398 -23.5 -12.501l-28 32
c13.333 7.33301 24 16.666 32 27.999s12 25 12 41c-2.66699 -0.666992 -6 -1 -10 -1c-12 0 -21.833 4 -29.5 12s-11.5 18.333 -11.5 31z" />
    <glyph glyph-name="Rcaron" unicode="&#x158;" horiz-adv-x="595" 
d="M85 693c25.333 4.66699 54.499 8.33301 87.499 11s63.167 4 90.5 4c30.667 0 59.834 -3.33301 87.501 -10s52 -17.667 73 -33s37.833 -35.333 50.5 -60s19 -54.667 19 -90c0 -54.667 -15 -99 -45 -133s-68 -56.667 -114 -68l48 -37l174 -277h-97l-193 302l-98 15v-317
h-83v693zM264.999 635.999l-26.998 0.000976562c-9.33301 0 -18.333 -0.333008 -27 -1s-16.834 -1.33398 -24.501 -2.00098s-13.834 -1.66699 -18.501 -3v-258h78c46 0 84 11.333 114 34s45 58 45 106c0 36 -12.333 65.667 -37 89s-59 35 -103 35zM277.001 746h-58l-127 103
v21h82l59 -50l17 -34l19 33l63 51h78v-22z" />
    <glyph glyph-name="rcaron" unicode="&#x159;" horiz-adv-x="340" 
d="M313 423c-20 6.66699 -39 10 -57 10c-28.667 0 -51.334 -7.83301 -68.001 -23.5s-27 -35.5 -31 -59.5v-350h-80v500h56l15 -61h4c12.667 22.667 27.834 40.167 45.501 52.5s40.167 18.5 67.5 18.5c19.333 0 41 -3.33301 65 -10zM206 550h-37l-115 182h78l39 -66l21 -58
l22 58l45 66h70z" />
    <glyph glyph-name="Sacute" unicode="&#x15a;" horiz-adv-x="531" 
d="M401 178c0 28 -8.33301 50.833 -25 68.5s-37.5 33.334 -62.5 47.001s-52.167 26.5 -81.5 38.5s-56.5 26.5 -81.5 43.5s-45.833 38 -62.5 63s-25 56.833 -25 95.5c0 54.667 19 98 57 130s92 48 162 48c40.667 0 77.667 -3 111 -9s59.333 -13.667 78 -23l-25 -73
c-15.333 7.33301 -37.833 14.333 -67.5 21s-63.167 10 -100.5 10c-44 0 -77 -9.83301 -99 -29.5s-33 -42.834 -33 -69.501c0 -26 8.33301 -47.667 25 -65s37.5 -32.833 62.5 -46.5s52.167 -27.167 81.5 -40.5s56.5 -28.833 81.5 -46.5s45.833 -38.834 62.5 -63.501
s25 -55.334 25 -92.001c0 -30 -5.33301 -57 -16 -81s-26.334 -44.667 -47.001 -62s-45.667 -30.666 -75 -39.999s-62.666 -14 -99.999 -14c-50 0 -91.333 3.83301 -124 11.5s-58 16.167 -76 25.5l28 75c15.333 -8.66699 38 -17.167 68 -25.5s63.667 -12.5 101 -12.5
c22 0 42.667 2.16699 62 6.5s36 11.333 50 21s25.167 21.834 33.5 36.501s12.5 32 12.5 52zM346 870h114v-21l-163 -97h-69z" />
    <glyph glyph-name="sacute" unicode="&#x15b;" horiz-adv-x="421" 
d="M297 136c0 20 -5.99902 35.6699 -17.999 47.0029s-26.833 20.833 -44.5 28.5s-37 15 -58 22s-40.333 16 -58 27s-32.5 25.167 -44.5 42.5s-18 40.666 -18 69.999c0 48 13.667 83.167 41 105.5s65.333 33.5 114 33.5c36 0 66.167 -3.16699 90.5 -9.5
s45.5 -13.833 63.5 -22.5l-19 -66c-15.333 7.33301 -33.833 13.833 -55.5 19.5s-44.834 8.5 -69.501 8.5c-29.333 0 -50.833 -5 -64.5 -15s-20.5 -27.333 -20.5 -52c0 -17.333 6 -30.833 18 -40.5s26.833 -18.334 44.5 -26.001s37 -15.167 58 -22.5s40.333 -17 58 -29
s32.5 -27.167 44.5 -45.5s18 -42.5 18 -72.5c0 -21.333 -3.5 -41.333 -10.5 -60s-17.833 -34.667 -32.5 -48s-32.834 -23.833 -54.501 -31.5s-47.167 -11.5 -76.5 -11.5c-38 0 -70.333 3.66699 -97 11s-49 16 -67 26l24 68c15.333 -8.66699 35.333 -16.667 60 -24
s49.667 -11 75 -11c28.667 0 52.334 5.66699 71.001 17s28 31.666 28 60.999zM236.001 720.003h89v-21l-101 -128h-47z" />
    <glyph glyph-name="Scircumflex" unicode="&#x15c;" horiz-adv-x="531" 
d="M401 178c0 28 -8.33301 50.833 -25 68.5s-37.5 33.334 -62.5 47.001s-52.167 26.5 -81.5 38.5s-56.5 26.5 -81.5 43.5s-45.833 38 -62.5 63s-25 56.833 -25 95.5c0 54.667 19 98 57 130s92 48 162 48c40.667 0 77.667 -3 111 -9s59.333 -13.667 78 -23l-25 -73
c-15.333 7.33301 -37.833 14.333 -67.5 21s-63.167 10 -100.5 10c-44 0 -77 -9.83301 -99 -29.5s-33 -42.834 -33 -69.501c0 -26 8.33301 -47.667 25 -65s37.5 -32.833 62.5 -46.5s52.167 -27.167 81.5 -40.5s56.5 -28.833 81.5 -46.5s45.833 -38.834 62.5 -63.501
s25 -55.334 25 -92.001c0 -30 -5.33301 -57 -16 -81s-26.334 -44.667 -47.001 -62s-45.667 -30.666 -75 -39.999s-62.666 -14 -99.999 -14c-50 0 -91.333 3.83301 -124 11.5s-58 16.167 -76 25.5l28 75c15.333 -8.66699 38 -17.167 68 -25.5s63.667 -12.5 101 -12.5
c22 0 42.667 2.16699 62 6.5s36 11.333 50 21s25.167 21.834 33.5 36.501s12.5 32 12.5 52zM252 870h60l127 -102v-21h-81l-60 49l-17 35l-19 -34l-64 -50h-79v22z" />
    <glyph glyph-name="scircumflex" unicode="&#x15d;" horiz-adv-x="421" 
d="M297 136c0 20 -5.99902 35.6699 -17.999 47.0029s-26.833 20.833 -44.5 28.5s-37 15 -58 22s-40.333 16 -58 27s-32.5 25.167 -44.5 42.5s-18 40.666 -18 69.999c0 48 13.667 83.167 41 105.5s65.333 33.5 114 33.5c36 0 66.167 -3.16699 90.5 -9.5
s45.5 -13.833 63.5 -22.5l-19 -66c-15.333 7.33301 -33.833 13.833 -55.5 19.5s-44.834 8.5 -69.501 8.5c-29.333 0 -50.833 -5 -64.5 -15s-20.5 -27.333 -20.5 -52c0 -17.333 6 -30.833 18 -40.5s26.833 -18.334 44.5 -26.001s37 -15.167 58 -22.5s40.333 -17 58 -29
s32.5 -27.167 44.5 -45.5s18 -42.5 18 -72.5c0 -21.333 -3.5 -41.333 -10.5 -60s-17.833 -34.667 -32.5 -48s-32.834 -23.833 -54.501 -31.5s-47.167 -11.5 -76.5 -11.5c-38 0 -70.333 3.66699 -97 11s-49 16 -67 26l24 68c15.333 -8.66699 35.333 -16.667 60 -24
s49.667 -11 75 -11c28.667 0 52.334 5.66699 71.001 17s28 31.666 28 60.999zM201.001 732.003h32l111 -182h-72l-39 66l-21 58l-22 -58l-45 -66h-67z" />
    <glyph glyph-name="Scedilla" unicode="&#x15e;" horiz-adv-x="531" 
d="M401 178c0 28 -8.33203 50.833 -24.999 68.5s-37.5 33.334 -62.5 47.001s-52.167 26.5 -81.5 38.5s-56.5 26.5 -81.5 43.5s-45.833 38 -62.5 63s-25 56.833 -25 95.5c0 54.667 19 98 57 130s92 48 162 48c40.667 0 77.667 -3 111 -9s59.333 -13.667 78 -23l-25 -73
c-15.333 7.33301 -37.833 14.333 -67.5 21s-63.167 10 -100.5 10c-44 0 -77 -9.83301 -99 -29.5s-33 -42.834 -33 -69.501c0 -26 8.33301 -47.667 25 -65s37.5 -32.833 62.5 -46.5s52.167 -27.167 81.5 -40.5s56.5 -28.833 81.5 -46.5s45.833 -38.834 62.5 -63.501
s25 -55.334 25 -92.001c0 -52.667 -16.333 -96 -49 -130s-78.334 -55 -137.001 -63l-19 -35c28 -5.33301 48.167 -14 60.5 -26s18.5 -28.333 18.5 -49c0 -26 -10.667 -47.5 -32 -64.5s-51.333 -25.5 -90 -25.5c-7.33301 0 -14.666 0.333008 -21.999 1s-15 1.66699 -23 3
l9 39c4 -0.666992 7.66699 -1 11 -1h10c14.667 0 26.167 1.33301 34.5 4s14.666 5.83398 18.999 9.50098s7 7.83398 8 12.501s1.5 9 1.5 13c0 18.667 -28.667 31 -86 37l41 78c-48 0.666992 -87.833 4.66699 -119.5 12s-56.167 15.666 -73.5 24.999l28 75
c15.333 -8.66699 38 -17.167 68 -25.5s63.667 -12.5 101 -12.5c22 0 42.667 2.16699 62 6.5s36 11.333 50 21s25.167 21.834 33.5 36.501s12.5 32 12.5 52z" />
    <glyph glyph-name="scedilla" unicode="&#x15f;" horiz-adv-x="421" 
d="M297 136c0 20 -6 35.666 -18 46.999s-26.833 20.833 -44.5 28.5s-37 15 -58 22s-40.333 16 -58 27s-32.5 25.167 -44.5 42.5s-18 40.666 -18 69.999c0 48 13.667 83.167 41 105.5s65.333 33.5 114 33.5c36 0 66.167 -3.16699 90.5 -9.5s45.5 -13.833 63.5 -22.5l-19 -65
c-15.333 7.33301 -33.833 13.666 -55.5 18.999s-44.834 8 -69.501 8c-29.333 0 -50.833 -5 -64.5 -15s-20.5 -27.333 -20.5 -52c0 -17.333 6 -30.833 18 -40.5s26.833 -18.334 44.5 -26.001s37 -15.167 58 -22.5s40.333 -17 58 -29s32.5 -27.167 44.5 -45.5
s18 -42.5 18 -72.5c0 -39.333 -11.667 -72.666 -35 -99.999s-59 -43.666 -107 -48.999l-18 -33c28 -5.33301 48.167 -14 60.5 -26s18.5 -28.333 18.5 -49c0 -26 -10.667 -47.5 -32 -64.5s-51.333 -25.5 -90 -25.5c-7.33301 0 -14.666 0.333008 -21.999 1s-15 1.66699 -23 3
l9 39c4 -0.666992 7.66699 -1 11 -1h10c14.667 0 26.167 1.33301 34.5 4s14.666 5.83398 18.999 9.50098s7 7.83398 8 12.501s1.5 9 1.5 13c0 18.667 -28.667 31 -86 37l42 79c-31.333 1.33301 -58.333 5.33301 -81 12s-42 14.667 -58 24l24 67
c15.333 -8 35.333 -15.5 60 -22.5s49.667 -10.5 75 -10.5c28.667 0 52.334 5.5 71.001 16.5s28 31.167 28 60.5z" />
    <glyph glyph-name="Scaron" unicode="&#x160;" horiz-adv-x="531" 
d="M401 178c0 28 -8.33301 50.833 -25 68.5s-37.5 33.334 -62.5 47.001s-52.167 26.5 -81.5 38.5s-56.5 26.5 -81.5 43.5s-45.833 38 -62.5 63s-25 56.833 -25 95.5c0 54.667 19 98 57 130s92 48 162 48c40.667 0 77.667 -3 111 -9s59.333 -13.667 78 -23l-25 -73
c-15.333 7.33301 -37.833 14.333 -67.5 21s-63.167 10 -100.5 10c-44 0 -77 -9.83301 -99 -29.5s-33 -42.834 -33 -69.501c0 -26 8.33301 -47.667 25 -65s37.5 -32.833 62.5 -46.5s52.167 -27.167 81.5 -40.5s56.5 -28.833 81.5 -46.5s45.833 -38.834 62.5 -63.501
s25 -55.334 25 -92.001c0 -30 -5.33301 -57 -16 -81s-26.334 -44.667 -47.001 -62s-45.667 -30.666 -75 -39.999s-62.666 -14 -99.999 -14c-50 0 -91.333 3.83301 -124 11.5s-58 16.167 -76 25.5l28 75c15.333 -8.66699 38 -17.167 68 -25.5s63.667 -12.5 101 -12.5
c22 0 42.667 2.16699 62 6.5s36 11.333 50 21s25.167 21.834 33.5 36.501s12.5 32 12.5 52zM322 746h-58l-127 103v21h82l59 -50l17 -34l19 33l63 51h78v-22z" />
    <glyph glyph-name="scaron" unicode="&#x161;" horiz-adv-x="421" 
d="M297 136c0 20 -5.99902 35.6699 -17.999 47.0029s-26.833 20.833 -44.5 28.5s-37 15 -58 22s-40.333 16 -58 27s-32.5 25.167 -44.5 42.5s-18 40.666 -18 69.999c0 48 13.667 83.167 41 105.5s65.333 33.5 114 33.5c36 0 66.167 -3.16699 90.5 -9.5
s45.5 -13.833 63.5 -22.5l-19 -66c-15.333 7.33301 -33.833 13.833 -55.5 19.5s-44.834 8.5 -69.501 8.5c-29.333 0 -50.833 -5 -64.5 -15s-20.5 -27.333 -20.5 -52c0 -17.333 6 -30.833 18 -40.5s26.833 -18.334 44.5 -26.001s37 -15.167 58 -22.5s40.333 -17 58 -29
s32.5 -27.167 44.5 -45.5s18 -42.5 18 -72.5c0 -21.333 -3.5 -41.333 -10.5 -60s-17.833 -34.667 -32.5 -48s-32.834 -23.833 -54.501 -31.5s-47.167 -11.5 -76.5 -11.5c-38 0 -70.333 3.66699 -97 11s-49 16 -67 26l24 68c15.333 -8.66699 35.333 -16.667 60 -24
s49.667 -11 75 -11c28.667 0 52.334 5.66699 71.001 17s28 31.666 28 60.999zM225.001 550.003h-37l-115 182h78l39 -66l21 -58l22 58l45 66h70z" />
    <glyph glyph-name="Tcedilla" unicode="&#x162;" horiz-adv-x="555" 
d="M236 0v625.998h-218v74h519v-74h-218v-626h-12l-24 -43c28 -5.33301 48.167 -14 60.5 -26s18.5 -28.333 18.5 -49c0 -26 -10.667 -47.5 -32 -64.5s-51.333 -25.5 -90 -25.5c-7.33301 0 -14.666 0.333008 -21.999 1s-15 1.66699 -23 3l9 39c4 -0.666992 7.66699 -1 11 -1
h10c14.667 0 26.167 1.33301 34.5 4s14.666 5.83398 18.999 9.50098s7 7.83398 8 12.501s1.5 9 1.5 13c0 18.667 -28.667 31 -86 37l48 90h-14z" />
    <glyph glyph-name="tcedilla" unicode="&#x163;" horiz-adv-x="339" 
d="M11 500l77.999 -0.000976562v99l80 23v-122h136v-70h-136v-277c0 -34.667 4.33301 -59.167 13 -73.5s23.334 -21.5 44.001 -21.5c17.333 0 32 1.66699 44 5s25.333 8 40 14l18 -60c-15.333 -7.33301 -31.333 -13.5 -48 -18.5s-34.667 -8.5 -54 -10.5l-17 -31
c28 -5.33301 48.167 -14 60.5 -26s18.5 -28.333 18.5 -49c0 -26 -10.667 -47.5 -32 -64.5s-51.333 -25.5 -90 -25.5c-7.33301 0 -14.666 0.333008 -21.999 1s-15 1.66699 -23 3l9 39c4 -0.666992 7.66699 -1 11 -1h10c14.667 0 26.167 1.33301 34.5 4
s14.666 5.83398 18.999 9.50098s7 7.83398 8 12.501s1.5 9 1.5 13c0 18.667 -28.667 31 -86 37l42 80c-30 5.33301 -51 19.666 -63 42.999s-18 58.333 -18 105v292h-78v70z" />
    <glyph glyph-name="Tcaron" unicode="&#x164;" horiz-adv-x="555" 
d="M537 626h-218v-626h-83v626h-218v74h519v-74zM304 746h-58l-127 103v21h82l59 -50l17 -34l19 33l63 51h78v-22z" />
    <glyph glyph-name="tcaron" unicode="&#x165;" horiz-adv-x="339" 
d="M11 500h78v99l80 23v-122h136v-70h-136v-277c0 -34.667 4.33301 -59.167 13 -73.5s23.334 -21.5 44.001 -21.5c17.333 0 32 1.83301 44 5.5s25.333 8.5 40 14.5l18 -61c-18 -8.66699 -37.667 -15.667 -59 -21s-44.333 -8 -69 -8c-40.667 0 -69.334 11.5 -86.001 34.5
s-25 61.5 -25 115.5v292h-78v70zM312 714c-1.33301 -19.333 -5.33301 -39.1689 -12 -59.502s-14.167 -39.166 -22.5 -56.499s-16.833 -32.666 -25.5 -45.999s-16 -23 -22 -29l-33 18c11.333 24 20 51.167 26 81.5s9 60.833 9 91.5h80z" />
    <glyph glyph-name="Umacron" unicode="&#x16a;" horiz-adv-x="652" 
d="M487 700h80.001v-467c0 -42 -5.5 -78.333 -16.5 -109s-26.667 -55.834 -47 -75.501s-44.833 -34.167 -73.5 -43.5s-60.334 -14 -95.001 -14c-82.667 0 -145 18.667 -187 56s-63 94 -63 170v483h83v-444c0 -35.333 3.5 -65.166 10.5 -89.499s17.5 -44 31.5 -59
s31.5 -25.833 52.5 -32.5s45.5 -10 73.5 -10c54 0 92.667 14.833 116 44.5s35 78.5 35 146.5v444zM170.001 843h316v-62h-316v62z" />
    <glyph glyph-name="umacron" unicode="&#x16b;" horiz-adv-x="539" 
d="M149 500l0.000976562 -285c0 -26 1.5 -48.833 4.5 -68.5s8.16699 -36 15.5 -49s17.333 -22.833 30 -29.5s28.667 -10 48 -10c18 0 34 2.83301 48 8.5s26.5 13.5 37.5 23.5s20.667 21.5 29 34.5s15.166 26.833 20.499 41.5v334h80v-358c0 -24 0.833008 -48.833 2.5 -74.5
s4.5 -48.167 8.5 -67.5h-55l-20 79h-5c-15.333 -26 -36 -47.667 -62 -65s-59 -26 -99 -26c-26.667 0 -50.167 3.16699 -70.5 9.5s-37.333 17.5 -51 33.5s-24 37.5 -31 64.5s-10.5 61.167 -10.5 102.5v302h80zM122.001 643h296v-62h-296v62z" />
    <glyph glyph-name="Ubreve" unicode="&#x16c;" horiz-adv-x="652" 
d="M487 700h80.001v-467c0 -42 -5.5 -78.333 -16.5 -109s-26.667 -55.834 -47 -75.501s-44.833 -34.167 -73.5 -43.5s-60.334 -14 -95.001 -14c-82.667 0 -145 18.667 -187 56s-63 94 -63 170v483h83v-444c0 -35.333 3.5 -65.166 10.5 -89.499s17.5 -44 31.5 -59
s31.5 -25.833 52.5 -32.5s45.5 -10 73.5 -10c54 0 92.667 14.833 116 44.5s35 78.5 35 146.5v444zM197.001 871c11.333 -22.667 28.668 -40.167 52.001 -52.5s50.666 -18.5 81.999 -18.5c32 0 59 7 81 21s37.667 30.667 47 50l40 -19c-6 -19.333 -14.5 -36.5 -25.5 -51.5
s-24 -27.833 -39 -38.5s-31.5 -18.667 -49.5 -24s-36.333 -8 -55 -8c-18 0 -35.833 2.33301 -53.5 7s-34.167 11.667 -49.5 21s-29.333 21.5 -42 36.5s-23 32.5 -31 52.5z" />
    <glyph glyph-name="ubreve" unicode="&#x16d;" horiz-adv-x="539" 
d="M149 500l0.000976562 -285c0 -26 1.5 -48.833 4.5 -68.5s8.16699 -36 15.5 -49s17.333 -22.833 30 -29.5s28.667 -10 48 -10c18 0 34 2.83301 48 8.5s26.5 13.5 37.5 23.5s20.667 21.5 29 34.5s15.166 26.833 20.499 41.5v334h80v-358c0 -24 0.833008 -48.833 2.5 -74.5
s4.5 -48.167 8.5 -67.5h-55l-20 79h-5c-15.333 -26 -36 -47.667 -62 -65s-59 -26 -99 -26c-26.667 0 -50.167 3.16699 -70.5 9.5s-37.333 17.5 -51 33.5s-24 37.5 -31 64.5s-10.5 61.167 -10.5 102.5v302h80zM162.001 720c12 -24 28.0029 -42.833 48.0029 -56.5
s41.333 -20.5 64 -20.5s43.167 6.66699 61.5 20s33.166 32.333 44.499 57l42 -18c-2 -16 -7.16699 -31.833 -15.5 -47.5s-19 -29.5 -32 -41.5s-28.167 -21.667 -45.5 -29s-36 -11 -56 -11c-18.667 0 -36.334 2.83301 -53.001 8.5s-31.834 14 -45.501 25s-25.5 24 -35.5 39
s-17.333 32.167 -22 51.5z" />
    <glyph glyph-name="Uring" unicode="&#x16e;" horiz-adv-x="652" 
d="M487 700h80.001v-467c0 -42 -5.5 -78.333 -16.5 -109s-26.667 -55.834 -47 -75.501s-44.833 -34.167 -73.5 -43.5s-60.334 -14 -95.001 -14c-82.667 0 -145 18.667 -187 56s-63 94 -63 170v483h83v-444c0 -35.333 3.5 -65.166 10.5 -89.499s17.5 -44 31.5 -59
s31.5 -25.833 52.5 -32.5s45.5 -10 73.5 -10c54 0 92.667 14.833 116 44.5s35 78.5 35 146.5v444zM225.001 768c0 24.667 8.33203 45 24.999 61s43.334 24 80.001 24c33.333 0 59.333 -7.16699 78 -21.5s28 -35.5 28 -63.5c0 -24 -8.83301 -43.833 -26.5 -59.5
s-44.167 -23.5 -79.5 -23.5c-34 0 -60 7.5 -78 22.5s-27 35.167 -27 60.5zM286 768c0 -11.333 3.49805 -20.833 10.498 -28.5s18.167 -11.5 33.5 -11.5c14.667 0 25.834 3.66699 33.501 11s11.5 17 11.5 29c0 12.667 -3.66699 22.834 -11 30.501s-18.666 11.5 -33.999 11.5
c-14.667 0 -25.667 -3.83301 -33 -11.5s-11 -17.834 -11 -30.501z" />
    <glyph glyph-name="uring" unicode="&#x16f;" horiz-adv-x="539" 
d="M149 500l0.000976562 -285c0 -26 1.5 -48.833 4.5 -68.5s8.16699 -36 15.5 -49s17.333 -22.833 30 -29.5s28.667 -10 48 -10c18 0 34 2.83301 48 8.5s26.5 13.5 37.5 23.5s20.667 21.5 29 34.5s15.166 26.833 20.499 41.5v334h80v-358c0 -24 0.833008 -48.833 2.5 -74.5
s4.5 -48.167 8.5 -67.5h-55l-20 79h-5c-15.333 -26 -36 -47.667 -62 -65s-59 -26 -99 -26c-26.667 0 -50.167 3.16699 -70.5 9.5s-37.333 17.5 -51 33.5s-24 37.5 -31 64.5s-10.5 61.167 -10.5 102.5v302h80zM172.001 643c0 28 8.83301 50.166 26.5 66.499
s41.167 24.5 70.5 24.5c28 0 51.333 -7.33301 70 -22s28 -37.667 28 -69c0 -26 -9.33301 -47.5 -28 -64.5s-42 -25.5 -70 -25.5s-51.167 7.83301 -69.5 23.5s-27.5 37.834 -27.5 66.501zM226.001 642.999c0 -13.333 4.33301 -23.668 13 -31.001s18.667 -11 30 -11
c12.667 0 23.167 3.33301 31.5 10s12.5 17.334 12.5 32.001s-4.5 25.5 -13.5 32.5s-19.167 10.5 -30.5 10.5s-21.333 -3.33301 -30 -10s-13 -17.667 -13 -33z" />
    <glyph glyph-name="Uhungarumlaut" unicode="&#x170;" horiz-adv-x="652" 
d="M487 700h80.001v-467c0 -42 -5.5 -78.333 -16.5 -109s-26.667 -55.834 -47 -75.501s-44.833 -34.167 -73.5 -43.5s-60.334 -14 -95.001 -14c-82.667 0 -145 18.667 -187 56s-63 94 -63 170v483h83v-444c0 -35.333 3.5 -65.166 10.5 -89.499s17.5 -44 31.5 -59
s31.5 -25.833 52.5 -32.5s45.5 -10 73.5 -10c54 0 92.667 14.833 116 44.5s35 78.5 35 146.5v444zM277.001 850h93v-16l-100 -93h-57zM439.001 850h99v-16l-143 -93h-58z" />
    <glyph glyph-name="uhungarumlaut" unicode="&#x171;" horiz-adv-x="539" 
d="M149 500l0.000976562 -285c0 -26 1.5 -48.833 4.5 -68.5s8.16699 -36 15.5 -49s17.333 -22.833 30 -29.5s28.667 -10 48 -10c18 0 34 2.83301 48 8.5s26.5 13.5 37.5 23.5s20.667 21.5 29 34.5s15.166 26.833 20.499 41.5v334h80v-358c0 -24 0.833008 -48.833 2.5 -74.5
s4.5 -48.167 8.5 -67.5h-55l-20 79h-5c-15.333 -26 -36 -47.667 -62 -65s-59 -26 -99 -26c-26.667 0 -50.167 3.16699 -70.5 9.5s-37.333 17.5 -51 33.5s-24 37.5 -31 64.5s-10.5 61.167 -10.5 102.5v302h80zM210.001 700h78v-16l-71 -113h-42zM356.001 700h86v-16
l-114 -113h-45z" />
    <glyph glyph-name="Uogonek" unicode="&#x172;" horiz-adv-x="652" 
d="M487 700l79.999 -0.000976562v-467c-1.33301 -64.667 -14 -115.5 -38 -152.5s-57.667 -62.5 -101 -76.5c-20 -10.667 -35.333 -23.667 -46 -39s-16 -32.666 -16 -51.999c0.666992 -14 5.33398 -25.833 14.001 -35.5s21 -14.834 37 -15.501c14 0 27.667 3 41 9l11 -43
c-9.33301 -7.33301 -22 -13 -38 -17s-31.667 -6 -47 -6c-30 0 -54.167 8 -72.5 24s-27.5 37.667 -27.5 65c0 20 5.33301 38.333 16 55s25.334 30.667 44.001 42h-9c-82.667 0 -145 18.667 -187 56s-63 94 -63 170v483h83v-444c0 -35.333 3.5 -65.166 10.5 -89.499
s17.5 -44 31.5 -59s31.5 -25.833 52.5 -32.5s45.5 -10 73.5 -10c53.333 0 91.666 14.833 114.999 44.5s35.333 78.5 36 146.5v444z" />
    <glyph glyph-name="uogonek" unicode="&#x173;" horiz-adv-x="539" 
d="M149 500l0.000976562 -285c0 -26 1.5 -48.833 4.5 -68.5s8.16699 -36 15.5 -49s17.333 -22.833 30 -29.5s28.667 -10 48 -10c18 0 34 2.83301 48 8.5s26.5 13.5 37.5 23.5s20.667 21.5 29 34.5s15.166 26.833 20.499 41.5v334h80v-358c0 -24 0.833008 -48.833 2.5 -74.5
s4.5 -48.167 8.5 -67.5h-18c-20 -8 -35.5 -20 -46.5 -36s-15.833 -34.333 -14.5 -55c2 -14 7.16699 -25.333 15.5 -34s20.833 -13 37.5 -13c12.667 0 25.667 3 39 9l11 -43c-10 -8 -23.167 -13.833 -39.5 -17.5s-31.5 -5.5 -45.5 -5.5c-29.333 0 -52.833 7.16699 -70.5 21.5
s-27.5 35.5 -29.5 63.5c0 27.333 8.5 51 25.5 71s42.5 36.333 76.5 49l-17 69h-5c-14.667 -26 -35.5 -47.667 -62.5 -65s-59.5 -26 -97.5 -26c-26.667 0 -50.167 3.16699 -70.5 9.5s-37.333 17.5 -51 33.5s-24 37.5 -31 64.5s-10.5 61.167 -10.5 102.5v302h80z" />
    <glyph glyph-name="Ydieresis" unicode="&#x178;" horiz-adv-x="558" 
d="M239 278l-231 422h97l164 -306l17 -61h1l18 63l157 304h89l-229 -421v-279h-83v278zM133 794c0 14 5 25.333 15 34s23 13 39 13c15.333 0 27.833 -4.33301 37.5 -13s14.5 -20 14.5 -34c0 -13.333 -4.83301 -24.333 -14.5 -33s-22.167 -13 -37.5 -13
c-16 0 -29 4.33301 -39 13s-15 19.667 -15 33zM325 794c0 14 4.83301 25.333 14.5 34s22.167 13 37.5 13c16 0 29 -4.33301 39 -13s15 -20 15 -34c0 -13.333 -5 -24.333 -15 -33s-23 -13 -39 -13c-15.333 0 -27.833 4.33301 -37.5 13s-14.5 19.667 -14.5 33z" />
    <glyph glyph-name="Zacute" unicode="&#x179;" horiz-adv-x="545" 
d="M38 75l353 511l42 40h-395v74h470v-75l-355 -514l-42 -37h397v-74h-470v75zM329 870h114v-21l-163 -97h-69z" />
    <glyph glyph-name="zacute" unicode="&#x17a;" horiz-adv-x="447" 
d="M42 70l231 318l42 42h-273v70h356v-70l-233 -321l-41 -39h274v-70h-356v70zM236 720h89v-21l-101 -128h-47z" />
    <glyph glyph-name="Zdotaccent" unicode="&#x17b;" horiz-adv-x="545" 
d="M38 75l353 511l42 40h-395v74h470v-75l-355 -514l-42 -37h397v-74h-470v75zM211 797c0 14 5.5 26.167 16.5 36.5s26.167 15.5 45.5 15.5s34.833 -5.16699 46.5 -15.5s17.5 -22.5 17.5 -36.5c0 -15.333 -5.83301 -28 -17.5 -38s-27.167 -15 -46.5 -15s-34.5 5 -45.5 15
s-16.5 22.667 -16.5 38z" />
    <glyph glyph-name="zdotaccent" unicode="&#x17c;" horiz-adv-x="447" 
d="M42 70l231 318l42 42h-273v70h356v-70l-233 -321l-41 -39h274v-70h-356v70zM173 652c0 15.333 5.16699 28.5 15.5 39.5s23.5 16.5 39.5 16.5s29.667 -5.5 41 -16.5s17 -24.167 17 -39.5s-5.66699 -28 -17 -38s-25 -15 -41 -15s-29.167 5 -39.5 15s-15.5 22.667 -15.5 38z
" />
    <glyph glyph-name="Zcaron" unicode="&#x17d;" horiz-adv-x="545" 
d="M38 75l353 511l42 40h-395v74h470v-75l-355 -514l-42 -37h397v-74h-470v75zM286 746h-58l-127 103v21h82l59 -50l17 -34l19 33l63 51h78v-22z" />
    <glyph glyph-name="zcaron" unicode="&#x17e;" horiz-adv-x="447" 
d="M42 70l231 318l42 42h-273v70h356v-70l-233 -321l-41 -39h274v-70h-356v70zM235 550h-37l-115 182h78l39 -66l21 -58l22 58l45 66h70z" />
    <glyph glyph-name="longs" unicode="&#x17f;" horiz-adv-x="249" 
d="M22 500h78.002v28c0 62 10.667 107.167 32 135.5s58.666 42.5 111.999 42.5c21.333 0 40 -1.33301 56 -4s33 -7.66699 51 -15l-18 -67c-15.333 6.66699 -29.833 11 -43.5 13s-26.5 3 -38.5 3c-16 0 -28.833 -2.16699 -38.5 -6.5s-16.834 -11 -21.501 -20
s-7.66699 -20.333 -9 -34s-2 -29.167 -2 -46.5v-529h-80v431h-78v69z" />
    <glyph glyph-name="florin" unicode="&#x192;" horiz-adv-x="545" 
d="M316 430l-79 -464c-4 -24.667 -9.66699 -47.5 -17 -68.5s-17.166 -39.333 -29.499 -55s-27.5 -28 -45.5 -37s-39.333 -13.5 -64 -13.5c-19.333 0 -39.333 2.33301 -60 7s-39 10.334 -55 17.001l21 66c15.333 -6.66699 29.833 -11.667 43.5 -15s28.5 -5 44.5 -5
c25.333 0 44.5 11.167 57.5 33.5s23.833 59.833 32.5 112.5l68 422h-85v70h96l11 67c8 49.333 22.5 85.833 43.5 109.5s55.5 35.5 103.5 35.5c22 0 43.5 -2.33301 64.5 -7s39.833 -10.667 56.5 -18l-23 -65c-32 13.333 -62.667 20 -92 20c-12.667 0 -23 -1.83301 -31 -5.5
s-14.667 -9.33398 -20 -17.001s-9.83301 -18 -13.5 -31s-6.83398 -28.833 -9.50098 -47.5l-7 -41h120v-70h-131z" />
    <glyph glyph-name="uni01F4" unicode="&#x1f4;" horiz-adv-x="612" 
d="M321 349l234.999 0.00195312v-308c-10.667 -8 -23.5 -15.333 -38.5 -22s-31 -12.334 -48 -17.001s-34.667 -8.16699 -53 -10.5s-36.166 -3.5 -53.499 -3.5c-44.667 0 -85.667 7.16699 -123 21.5s-69.666 36.333 -96.999 66s-48.666 67.334 -63.999 113.001
s-23 99.5 -23 161.5c0 64.667 9.33301 120 28 166s43 83.5 73 112.5s63.667 50.167 101 63.5s74.666 20 111.999 20c40 0 73 -2.16699 99 -6.5s48 -10.166 66 -17.499l-21 -73c-32 15.333 -77.667 23 -137 23c-28 0 -55.833 -4.83301 -83.5 -14.5
s-52.5 -25.834 -74.5 -48.501s-40 -52.334 -54 -89.001s-21 -82 -21 -136c0 -49.333 5.66699 -92 17 -128s27.166 -65.833 47.499 -89.5s44.833 -41.334 73.5 -53.001s60 -17.5 94 -17.5c42.667 0 79 8.33301 109 25v195l-164 20v47zM427.999 870.002h114v-21l-163 -97h-69z
" />
    <glyph glyph-name="uni01F5" unicode="&#x1f5;" horiz-adv-x="537" 
d="M460 -23c0 -64.667 -17.1699 -112.332 -51.5029 -142.999s-85.166 -46 -152.499 -46c-40 0 -72.167 2.5 -96.5 7.5s-45.166 11.5 -62.499 19.5l21 68c15.333 -6 32.333 -11.667 51 -17s43 -8 73 -8c28 0 50.833 2.5 68.5 7.5s31.834 13.333 42.501 25s18 26.667 22 45
s6 40.166 6 65.499v48h-4c-13.333 -19.333 -30.333 -34.166 -51 -44.499s-47.667 -15.5 -81 -15.5c-67.333 0 -116.833 21 -148.5 63s-47.5 107.333 -47.5 196c0 85.333 20.333 150.166 61 194.499s100.667 66.5 180 66.5c38 0 70.5 -3 97.5 -9s51.167 -13 72.5 -21v-502z
M258.997 59.002c34 0 60.667 8.5 80 25.5s33 43.5 41 79.5v256c-26.667 12.667 -60.667 19 -102 19c-45.333 0 -81 -15.333 -107 -46s-39 -78.667 -39 -144c0 -28 2.33301 -53.667 7 -77s12 -43.333 22 -60s23 -29.667 39 -39s35.667 -14 59 -14zM303.997 720.002h89v-21
l-101 -128h-47z" />
    <glyph glyph-name="Scommaaccent" unicode="&#x218;" horiz-adv-x="531" 
d="M401 178c0 28 -8.33301 50.833 -25 68.5s-37.5 33.334 -62.5 47.001s-52.167 26.5 -81.5 38.5s-56.5 26.5 -81.5 43.5s-45.833 38 -62.5 63s-25 56.833 -25 95.5c0 54.667 19 98 57 130s92 48 162 48c40.667 0 77.667 -3 111 -9s59.333 -13.667 78 -23l-25 -73
c-15.333 7.33301 -37.833 14.333 -67.5 21s-63.167 10 -100.5 10c-44 0 -77 -9.83301 -99 -29.5s-33 -42.834 -33 -69.501c0 -26 8.33301 -47.667 25 -65s37.5 -32.833 62.5 -46.5s52.167 -27.167 81.5 -40.5s56.5 -28.833 81.5 -46.5s45.833 -38.834 62.5 -63.501
s25 -55.334 25 -92.001c0 -30 -5.33301 -57 -16 -81s-26.334 -44.667 -47.001 -62s-45.667 -30.666 -75 -39.999s-62.666 -14 -99.999 -14c-50 0 -91.333 3.83301 -124 11.5s-58 16.167 -76 25.5l28 75c15.333 -8.66699 38 -17.167 68 -25.5s63.667 -12.5 101 -12.5
c22 0 42.667 2.16699 62 6.5s36 11.333 50 21s25.167 21.834 33.5 36.501s12.5 32 12.5 52zM203 -102c0 14 5.16797 25.3369 15.501 34.0039s22.166 13 35.499 13c16.667 0 31.5 -5.83301 44.5 -17.5s19.5 -30.834 19.5 -57.501c0 -17.333 -3 -32.5 -9 -45.5
s-13.167 -24.333 -21.5 -34s-17 -17.334 -26 -23.001s-16.833 -9.83398 -23.5 -12.501l-28 32c13.333 7.33301 24 16.666 32 27.999s12 25 12 41c-2.66699 -0.666992 -6 -1 -10 -1c-12 0 -21.833 4 -29.5 12s-11.5 18.333 -11.5 31z" />
    <glyph glyph-name="scommaaccent" unicode="&#x219;" horiz-adv-x="421" 
d="M297 136c0 20 -5.99902 35.6699 -17.999 47.0029s-26.833 20.833 -44.5 28.5s-37 15 -58 22s-40.333 16 -58 27s-32.5 25.167 -44.5 42.5s-18 40.666 -18 69.999c0 48 13.667 83.167 41 105.5s65.333 33.5 114 33.5c36 0 66.167 -3.16699 90.5 -9.5
s45.5 -13.833 63.5 -22.5l-19 -66c-15.333 7.33301 -33.833 13.833 -55.5 19.5s-44.834 8.5 -69.501 8.5c-29.333 0 -50.833 -5 -64.5 -15s-20.5 -27.333 -20.5 -52c0 -17.333 6 -30.833 18 -40.5s26.833 -18.334 44.5 -26.001s37 -15.167 58 -22.5s40.333 -17 58 -29
s32.5 -27.167 44.5 -45.5s18 -42.5 18 -72.5c0 -21.333 -3.5 -41.333 -10.5 -60s-17.833 -34.667 -32.5 -48s-32.834 -23.833 -54.501 -31.5s-47.167 -11.5 -76.5 -11.5c-38 0 -70.333 3.66699 -97 11s-49 16 -67 26l24 68c15.333 -8.66699 35.333 -16.667 60 -24
s49.667 -11 75 -11c28.667 0 52.334 5.66699 71.001 17s28 31.666 28 60.999zM154.001 -101.997c0 14 5.16797 25.3369 15.501 34.0039s22.166 13 35.499 13c16.667 0 31.5 -5.83301 44.5 -17.5s19.5 -30.834 19.5 -57.501c0 -17.333 -3 -32.5 -9 -45.5
s-13.167 -24.333 -21.5 -34s-17 -17.334 -26 -23.001s-16.833 -9.83398 -23.5 -12.501l-28 32c13.333 7.33301 24 16.666 32 27.999s12 25 12 41c-2.66699 -0.666992 -6 -1 -10 -1c-12 0 -21.833 4 -29.5 12s-11.5 18.333 -11.5 31z" />
    <glyph glyph-name="Tcommaaccent" unicode="&#x21a;" horiz-adv-x="555" 
d="M537 626h-218v-626h-83v626h-218v74h519v-74zM218 -102c0 14 5.16797 25.3369 15.501 34.0039s22.166 13 35.499 13c16.667 0 31.5 -5.83301 44.5 -17.5s19.5 -30.834 19.5 -57.501c0 -17.333 -3 -32.5 -9 -45.5s-13.167 -24.333 -21.5 -34s-17 -17.334 -26 -23.001
s-16.833 -9.83398 -23.5 -12.501l-28 32c13.333 7.33301 24 16.666 32 27.999s12 25 12 41c-2.66699 -0.666992 -6 -1 -10 -1c-12 0 -21.833 4 -29.5 12s-11.5 18.333 -11.5 31z" />
    <glyph glyph-name="tcommaaccent" unicode="&#x21b;" horiz-adv-x="339" 
d="M11 500h78v99l80 23v-122h136v-70h-136v-277c0 -34.667 4.33301 -59.167 13 -73.5s23.334 -21.5 44.001 -21.5c17.333 0 32 1.83301 44 5.5s25.333 8.5 40 14.5l18 -61c-18 -8.66699 -37.667 -15.667 -59 -21s-44.333 -8 -69 -8c-40.667 0 -69.334 11.5 -86.001 34.5
s-25 61.5 -25 115.5v292h-78v70zM130 -102c0 14 5.16797 25.3369 15.501 34.0039s22.166 13 35.499 13c16.667 0 31.5 -5.83301 44.5 -17.5s19.5 -30.834 19.5 -57.501c0 -17.333 -3 -32.5 -9 -45.5s-13.167 -24.333 -21.5 -34s-17 -17.334 -26 -23.001
s-16.833 -9.83398 -23.5 -12.501l-28 32c13.333 7.33301 24 16.666 32 27.999s12 25 12 41c-2.66699 -0.666992 -6 -1 -10 -1c-12 0 -21.833 4 -29.5 12s-11.5 18.333 -11.5 31z" />
    <glyph glyph-name="uni0237" unicode="&#x237;" horiz-adv-x="267" 
d="M93 500h80v-527c0 -62 -10.667 -108.333 -32 -139s-55.333 -46 -102 -46c-5.33301 0 -10.333 0.166992 -15 0.5s-9.66699 0.833008 -15 1.5v68c18.667 0 33.5 2.83301 44.5 8.5s19.5 14.5 25.5 26.5s9.83301 27.167 11.5 45.5s2.5 39.833 2.5 64.5v497z" />
    <glyph glyph-name="afii57929" unicode="&#x2bc;" horiz-adv-x="194" 
d="M40 657c0 15.333 4.83301 27.334 14.5 36.001s22.167 13 37.5 13c18.667 0 33.834 -5.83301 45.501 -17.5s17.5 -29.167 17.5 -52.5c0 -22 -3.16699 -41 -9.5 -57s-14 -29.5 -23 -40.5s-18.5 -19.833 -28.5 -26.5s-18.667 -11.334 -26 -14.001l-25 34
c15.333 8 27.333 18 36 30s13 27.667 13 47c-2.66699 -0.666992 -6.33398 -1 -11.001 -1c-12.667 0 -22.667 4.5 -30 13.5s-11 20.833 -11 35.5z" />
    <glyph glyph-name="circumflex" unicode="&#x2c6;" horiz-adv-x="386" 
d="M183 732h32l111 -182h-72l-39 66l-21 58l-22 -58l-45 -66h-67z" />
    <glyph glyph-name="caron" unicode="&#x2c7;" horiz-adv-x="395" 
d="M212 550h-37l-115 182h78l39 -66l21 -58l22 58l45 66h70z" />
    <glyph glyph-name="breve" unicode="&#x2d8;" horiz-adv-x="425" 
d="M105 720c12 -24 28.0029 -42.833 48.0029 -56.5s41.333 -20.5 64 -20.5s43.167 6.66699 61.5 20s33.166 32.333 44.499 57l42 -18c-2 -16 -7.16699 -31.833 -15.5 -47.5s-19 -29.5 -32 -41.5s-28.167 -21.667 -45.5 -29s-36 -11 -56 -11
c-18.667 0 -36.334 2.83301 -53.001 8.5s-31.834 14 -45.501 25s-25.5 24 -35.5 39s-17.333 32.167 -22 51.5z" />
    <glyph glyph-name="dotaccent" unicode="&#x2d9;" horiz-adv-x="233" 
d="M60 652c0 15.333 5.16699 28.5 15.5 39.5s23.5 16.5 39.5 16.5s29.667 -5.5 41 -16.5s17 -24.167 17 -39.5s-5.66699 -28 -17 -38s-25 -15 -41 -15s-29.167 5 -39.5 15s-15.5 22.667 -15.5 38z" />
    <glyph glyph-name="ring" unicode="&#x2da;" horiz-adv-x="315" 
d="M60 643c0 28 8.83301 50.166 26.5 66.499s41.167 24.5 70.5 24.5c28 0 51.333 -7.33301 70 -22s28 -37.667 28 -69c0 -26 -9.33301 -47.5 -28 -64.5s-42 -25.5 -70 -25.5s-51.167 7.83301 -69.5 23.5s-27.5 37.834 -27.5 66.501zM114 642.999
c0 -13.333 4.33301 -23.668 13 -31.001s18.667 -11 30 -11c12.667 0 23.167 3.33301 31.5 10s12.5 17.334 12.5 32.001s-4.5 25.5 -13.5 32.5s-19.167 10.5 -30.5 10.5s-21.333 -3.33301 -30 -10s-13 -17.667 -13 -33z" />
    <glyph glyph-name="ogonek" unicode="&#x2db;" horiz-adv-x="305" 
d="M218 10c-23.333 -10.667 -41.668 -24.167 -55.001 -40.5s-20 -35.166 -20 -56.499c0 -13.333 4.33301 -25.166 13 -35.499s21.334 -15.5 38.001 -15.5c12.667 0 26 3.33301 40 10l11 -43c-10 -8 -23.333 -14 -40 -18s-32 -6 -46 -6c-30 0 -54 8 -72 24s-27 37.667 -27 65
s9.16699 50.666 27.5 69.999s43.5 34.666 75.5 45.999h55z" />
    <glyph glyph-name="tilde" unicode="&#x2dc;" horiz-adv-x="399" 
d="M60 656c19.333 22 37 37.167 53 45.5s30.667 12.5 44 12.5c11.333 0 21.833 -2.16699 31.5 -6.5s19 -9 28 -14s17.667 -9.5 26 -13.5s17.166 -6 26.499 -6c14.667 0 30 8 46 24l24 -43c-17.333 -19.333 -33.166 -32.5 -47.499 -39.5s-27.5 -10.5 -39.5 -10.5
c-10.667 0 -20.667 2 -30 6s-18.5 8.5 -27.5 13.5s-18 9.66699 -27 14s-18.167 6.5 -27.5 6.5c-8.66699 0 -17.5 -2.33301 -26.5 -7s-19.167 -12.667 -30.5 -24z" />
    <glyph glyph-name="hungarumlaut" unicode="&#x2dd;" horiz-adv-x="387" 
d="M95 700h78v-16l-71 -113h-42zM241 700h86v-16l-114 -113h-45z" />
    <glyph glyph-name="acutecomb" unicode="&#x301;" horiz-adv-x="0" 
d="M-231 720h89v-21l-101 -128h-47z" />
    <glyph glyph-name="uni0394" unicode="&#x394;" horiz-adv-x="568" 
d="M14 0v37l254 674h34l256 -674v-37h-544zM106 72h355l-155 403l-24 105h-1l-28 -107z" />
    <glyph glyph-name="uni0394" unicode="&#x2206;" horiz-adv-x="568" 
d="M14 0v37l254 674h34l256 -674v-37h-544zM106 72h355l-155 403l-24 105h-1l-28 -107z" />
    <glyph glyph-name="uni03A9" unicode="&#x3a9;" horiz-adv-x="802" 
d="M76 70l116.001 -0.00488281l94 -10v26l-54 10c-21.333 10 -41.5 23.833 -60.5 41.5s-35.5 38.334 -49.5 62.001s-25.167 50.334 -33.5 80.001s-12.5 61.834 -12.5 96.501c0 52 7.66699 98.667 23 140s37 76.5 65 105.5s62 51.333 102 67s84.667 23.5 134 23.5
c52 0 98.167 -8.33301 138.5 -25s74.5 -40 102.5 -70s49.167 -65.833 63.5 -107.5s21.5 -87.5 21.5 -137.5c0 -36 -4.66699 -68.667 -14 -98s-21.5 -55.5 -36.5 -78.5s-31.667 -42.667 -50 -59s-36.5 -29.5 -54.5 -39.5l-57 -11v-26l96 10h116v-70h-287v125
c20 4 41.5 11.333 64.5 22s44.5 25.834 64.5 45.501s36.667 44.667 50 75s20 66.833 20 109.5c0 32 -4.5 63.5 -13.5 94.5s-23.167 58.833 -42.5 83.5s-44.166 44.667 -74.499 60s-66.5 23 -108.5 23c-75.333 0 -133.333 -22.167 -174 -66.5s-61 -110.166 -61 -197.499
c0 -42 6.16699 -77.833 18.5 -107.5s28.166 -54.5 47.499 -74.5s40.666 -35.333 63.999 -46s46 -17.667 68 -21v-125h-286v70z" />
    <glyph glyph-name="uni03A9" unicode="&#x2126;" horiz-adv-x="802" 
d="M76 70l116.001 -0.00488281l94 -10v26l-54 10c-21.333 10 -41.5 23.833 -60.5 41.5s-35.5 38.334 -49.5 62.001s-25.167 50.334 -33.5 80.001s-12.5 61.834 -12.5 96.501c0 52 7.66699 98.667 23 140s37 76.5 65 105.5s62 51.333 102 67s84.667 23.5 134 23.5
c52 0 98.167 -8.33301 138.5 -25s74.5 -40 102.5 -70s49.167 -65.833 63.5 -107.5s21.5 -87.5 21.5 -137.5c0 -36 -4.66699 -68.667 -14 -98s-21.5 -55.5 -36.5 -78.5s-31.667 -42.667 -50 -59s-36.5 -29.5 -54.5 -39.5l-57 -11v-26l96 10h116v-70h-287v125
c20 4 41.5 11.333 64.5 22s44.5 25.834 64.5 45.501s36.667 44.667 50 75s20 66.833 20 109.5c0 32 -4.5 63.5 -13.5 94.5s-23.167 58.833 -42.5 83.5s-44.166 44.667 -74.499 60s-66.5 23 -108.5 23c-75.333 0 -133.333 -22.167 -174 -66.5s-61 -110.166 -61 -197.499
c0 -42 6.16699 -77.833 18.5 -107.5s28.166 -54.5 47.499 -74.5s40.666 -35.333 63.999 -46s46 -17.667 68 -21v-125h-286v70z" />
    <glyph glyph-name="pi" unicode="&#x3c0;" horiz-adv-x="664" 
d="M514 116c0 -18.667 3 -31.665 9 -38.998s13.667 -11 23 -11c6.66699 0 14.167 0.666992 22.5 2s15.5 2.66602 21.5 3.99902l19 -54c-10.667 -4.66699 -23.834 -9.5 -39.501 -14.5s-33.5 -7.5 -53.5 -7.5c-33.333 0 -55.333 9.66699 -66 29s-16 46.333 -16 81v324h-190
v-430h-80v430h-14c-14 0 -25.333 -3.83301 -34 -11.5s-17.667 -18.834 -27 -33.501l-53 32c12.667 25.333 28.334 45.5 47.001 60.5s45.667 22.5 81 22.5h433v-70h-83v-314z" />
    <glyph glyph-name="afii10023" unicode="&#x401;" 
d="M85 700h381v-74h-298v-229h273v-74h-273v-249h303v-74h-386v700zM120 794c0 14 5 25.333 15 34s23 13 39 13c15.333 0 27.833 -4.33301 37.5 -13s14.5 -20 14.5 -34c0 -13.333 -4.83301 -24.333 -14.5 -33s-22.167 -13 -37.5 -13c-16 0 -29 4.33301 -39 13
s-15 19.667 -15 33zM312 794c0 14 4.83301 25.333 14.5 34s22.167 13 37.5 13c16 0 29 -4.33301 39 -13s15 -20 15 -34c0 -13.333 -5 -24.333 -15 -33s-23 -13 -39 -13c-15.333 0 -27.833 4.33301 -37.5 13s-14.5 19.667 -14.5 33z" />
    <glyph glyph-name="afii10051" unicode="&#x402;" horiz-adv-x="728" 
d="M319 0l-83.001 -0.000976562v626h-218v74h519v-74h-218v-211c8 2.66699 23.833 6.83398 47.5 12.501s54.167 8.5 91.5 8.5c26.667 0 52.834 -3.16699 78.501 -9.5s48.5 -17.5 68.5 -33.5s36.167 -37.5 48.5 -64.5s18.5 -61.167 18.5 -102.5c0 -80 -20.333 -139 -61 -177
s-98 -57 -172 -57c-22 0 -37.833 0.166992 -47.5 0.5s-17.167 1.16602 -22.5 2.49902v72c8.66699 -1.33301 18.167 -2.16602 28.5 -2.49902s25.166 -0.5 44.499 -0.5c94.667 0 142 52 142 156c0 28 -4 51.333 -12 70s-18.833 33.5 -32.5 44.5s-29.667 18.667 -48 23
s-38.166 6.5 -59.499 6.5c-12 0 -23.833 -0.833008 -35.5 -2.5s-22.667 -3.66699 -33 -6s-19.333 -4.83301 -27 -7.5l-17.5 -6v-342z" />
    <glyph glyph-name="afii10052" unicode="&#x403;" horiz-adv-x="442" 
d="M460 626h-292v-626h-83v700h375v-74zM315 870h114v-21l-163 -97h-69z" />
    <glyph glyph-name="afii10053" unicode="&#x404;" horiz-adv-x="583" 
d="M544 29c-20 -15.333 -46.1689 -25.999 -78.502 -31.999s-65.833 -9 -100.5 -9c-42 0 -81.667 7.16699 -119 21.5s-70.166 36.166 -98.499 65.499s-50.666 66.833 -66.999 112.5s-24.5 99.834 -24.5 162.501c0 65.333 9.16699 120.833 27.5 166.5s42.166 83 71.499 112
s62.333 50.167 99 63.5s73.667 20 111 20c40 0 73.667 -2.16699 101 -6.5s50 -10.166 68 -17.499l-20 -74c-15.333 7.33301 -35.333 13.166 -60 17.499s-52 6.5 -82 6.5c-26 0 -51.5 -4.16699 -76.5 -12.5s-48 -22 -69 -41s-38.667 -43.833 -53 -74.5
s-23.833 -68 -28.5 -112h306v-74h-307c2 -44 9.83301 -82.333 23.5 -115s31.334 -59.834 53.001 -81.501s46.5 -38 74.5 -49s57.667 -16.5 89 -16.5c30 0 57 3 81 9s43.333 13.667 58 23z" />
    <glyph glyph-name="afii10054" unicode="&#x405;" horiz-adv-x="531" 
d="M401 178c0 28 -8.33301 50.833 -25 68.5s-37.5 33.334 -62.5 47.001s-52.167 26.5 -81.5 38.5s-56.5 26.5 -81.5 43.5s-45.833 38 -62.5 63s-25 56.833 -25 95.5c0 54.667 19 98 57 130s92 48 162 48c40.667 0 77.667 -3 111 -9s59.333 -13.667 78 -23l-25 -73
c-15.333 7.33301 -37.833 14.333 -67.5 21s-63.167 10 -100.5 10c-44 0 -77 -9.83301 -99 -29.5s-33 -42.834 -33 -69.501c0 -26 8.33301 -47.667 25 -65s37.5 -32.833 62.5 -46.5s52.167 -27.167 81.5 -40.5s56.5 -28.833 81.5 -46.5s45.833 -38.834 62.5 -63.501
s25 -55.334 25 -92.001c0 -30 -5.33301 -57 -16 -81s-26.334 -44.667 -47.001 -62s-45.667 -30.666 -75 -39.999s-62.666 -14 -99.999 -14c-50 0 -91.333 3.83301 -124 11.5s-58 16.167 -76 25.5l28 75c15.333 -8.66699 38 -17.167 68 -25.5s63.667 -12.5 101 -12.5
c22 0 42.667 2.16699 62 6.5s36 11.333 50 21s25.167 21.834 33.5 36.501s12.5 32 12.5 52z" />
    <glyph glyph-name="afii10055" unicode="&#x406;" horiz-adv-x="291" 
d="M104 700h83v-700h-83v700z" />
    <glyph glyph-name="afii10056" unicode="&#x407;" horiz-adv-x="293" 
d="M32 793c0 14.667 4.83301 26.334 14.5 35.001s21.834 13 36.501 13c14 0 25.833 -4.33301 35.5 -13s14.5 -20.334 14.5 -35.001s-4.83301 -26.167 -14.5 -34.5s-21.5 -12.5 -35.5 -12.5c-14.667 0 -26.834 4.16699 -36.501 12.5s-14.5 19.833 -14.5 34.5zM161 793
c0 14.667 4.83301 26.334 14.5 35.001s21.5 13 35.5 13c14.667 0 26.834 -4.33301 36.501 -13s14.5 -20.334 14.5 -35.001s-4.83301 -26.167 -14.5 -34.5s-21.834 -12.5 -36.501 -12.5c-14 0 -25.833 4.16699 -35.5 12.5s-14.5 19.833 -14.5 34.5zM105 700h83v-700h-83v700z
" />
    <glyph glyph-name="afii10057" unicode="&#x408;" horiz-adv-x="291" 
d="M112 700h83.001v-546c0 -53.333 -11.833 -94 -35.5 -122s-59.5 -42 -107.5 -42c-5.33301 0 -12 0.333008 -20 1s-16 1.66699 -24 3s-15.833 3 -23.5 5s-13.834 4.33301 -18.501 7l16 71c18.667 -8.66699 39 -13 61 -13c28 0 46.5 9.83301 55.5 29.5s13.5 46.5 13.5 80.5
v526z" />
    <glyph glyph-name="afii10058" unicode="&#x409;" horiz-adv-x="926" 
d="M456 626l-209 -0.00390625c-6.66699 -133.333 -15.5 -244.166 -26.5 -332.499s-27.5 -157.166 -49.5 -206.499c-14.667 -32 -32 -55.333 -52 -70s-41.667 -22 -65 -22c-12 0 -22.333 0.833008 -31 2.5s-17 4.16699 -25 7.5l11 72c6.66699 -2 13.667 -3 21 -3
c11.333 0 22.5 3.66699 33.5 11s21.833 21 32.5 41c9.33301 18 18.166 42 26.499 72s15.666 68 21.999 114s11.5 100.833 15.5 164.5s7 138.167 9 223.5h370v-272c3.33301 0.666992 9 1.5 17 2.5s16.667 1.83301 26 2.5l29 2c10 0.666992 19 1 27 1
c32 0 63.167 -3.16699 93.5 -9.5s57.333 -17.5 81 -33.5s42.834 -37.5 57.501 -64.5s22 -61.167 22 -102.5c0 -40 -7 -74.667 -21 -104s-33.333 -53.666 -58 -72.999s-53.5 -33.666 -86.5 -42.999s-68.833 -14 -107.5 -14c-9.33301 0 -20.666 0.166992 -33.999 0.5
s-27.5 1 -42.5 2s-30 2.5 -45 4.5s-28.833 4.66699 -41.5 8v619zM630 63.9961c24 0 46.499 3.16699 67.499 9.5s39.5 16 55.5 29s28.5 29.333 37.5 49s13.5 42.5 13.5 68.5c0 28 -5 51.333 -15 70s-23.167 33.5 -39.5 44.5s-35.166 18.667 -56.499 23s-43.333 6.5 -66 6.5
c-6 0 -13.333 -0.333008 -22 -1l-26 -2c-8.66699 -0.666992 -16.667 -1.66699 -24 -3s-12.666 -2.33301 -15.999 -3v-285c9.33301 -2 22.666 -3.5 39.999 -4.5s34.333 -1.5 51 -1.5z" />
    <glyph glyph-name="afii10059" unicode="&#x40a;" horiz-adv-x="974" 
d="M504 336h-336.001v-336h-83v700h83v-290h336v290h83v-291c3.33301 0.666992 9 1.5 17 2.5s16.833 1.83301 26.5 2.5l29.5 2c10 0.666992 19 1 27 1c31.333 0 62.166 -2.66699 92.499 -8s57.333 -15.333 81 -30s42.834 -35 57.501 -61s22 -59.667 22 -101
c0 -40 -7 -74.333 -21 -103s-33.333 -52 -58 -70s-53.5 -31.167 -86.5 -39.5s-68.833 -12.5 -107.5 -12.5c-9.33301 0 -20.666 0.166992 -33.999 0.5s-27.5 1 -42.5 2s-30 2.5 -45 4.5s-28.833 4.33301 -41.5 7v330zM677.999 64c24 0 46.665 2.66699 67.998 8
s39.833 14 55.5 26s28 27.167 37 45.5s13.5 40.5 13.5 66.5c0 28 -4.83301 50.833 -14.5 68.5s-22.667 31.5 -39 41.5s-35.166 16.667 -56.499 20s-43.666 5 -66.999 5c-6 0 -13.333 -0.333008 -22 -1l-26 -2c-8.66699 -0.666992 -16.667 -1.66699 -24 -3
s-12.666 -2.33301 -15.999 -3v-266c9.33301 -2 22.666 -3.5 39.999 -4.5s34.333 -1.5 51 -1.5z" />
    <glyph glyph-name="afii10060" unicode="&#x40b;" horiz-adv-x="750" 
d="M319 0l-83.002 -0.000976562v626h-218v74h519v-74h-218v-231c18 10 41.833 20 71.5 30s63.167 15 100.5 15c28 0 53.833 -3.16699 77.5 -9.5s43.834 -17 60.501 -32s29.667 -35.167 39 -60.5s14 -56.666 14 -93.999v-244h-83v229c0 91.333 -41.333 137 -124 137
c-32 0 -61.667 -4.16699 -89 -12.5s-49.666 -19.5 -66.999 -33.5v-320z" />
    <glyph glyph-name="afii10061" unicode="&#x40c;" horiz-adv-x="610" 
d="M215 324h-47v-324h-83v700h83v-326l45 14l235 312h96l-234 -301l-42 -33l51 -40l256 -326h-105zM341 870h114v-21l-163 -97h-69z" />
    <glyph glyph-name="afii10062" unicode="&#x40e;" horiz-adv-x="553" 
d="M282 331l26.001 -88.999h5l20 92l134 366h85l-177 -455c-18 -47.333 -33.833 -86.833 -47.5 -118.5s-27.5 -57.334 -41.5 -77.001s-29 -33.667 -45 -42s-35.667 -12.5 -59 -12.5c-22 0 -39.5 1.83301 -52.5 5.5s-25.167 9.16699 -36.5 16.5l25 69
c13.333 -7.33301 25.666 -12 36.999 -14s21.666 -3 30.999 -3c18.667 0 34.334 9.5 47.001 28.5s23.667 47.167 33 84.5l-259 518h96zM201.001 870.001c2.66699 -24.667 11.9951 -43.667 27.9951 -57s37.333 -20 64 -20s47.834 6.66699 63.501 20s25.167 32 28.5 56l71 -17
c-7.33301 -36 -24.166 -64.5 -50.499 -85.5s-64.166 -31.5 -113.499 -31.5c-47.333 0 -86.166 9.16699 -116.499 27.5s-48.166 47.5 -53.499 87.5z" />
    <glyph glyph-name="afii10145" unicode="&#x40f;" horiz-adv-x="659" 
d="M85 0v700h83v-626h323v626h83v-700h-202l-15 -179h-52l-20 179h-200z" />
    <glyph glyph-name="afii10017" unicode="&#x410;" horiz-adv-x="585" 
d="M418 194h-258l-70 -194h-82l265 711h38l266 -711h-87zM187 266h206l-78 213l-25 106h-1l-25 -108z" />
    <glyph glyph-name="afii10018" unicode="&#x411;" horiz-adv-x="550" 
d="M85 700l379.999 -0.000976562v-74h-297v-210c11.333 2 25.333 4 42 6s32.667 3 48 3c34 0 66.333 -3.16699 97 -9.5s57.667 -17.166 81 -32.499s41.833 -36.166 55.5 -62.499s20.5 -59.5 20.5 -99.5s-7 -74.5 -21 -103.5s-32.667 -52.667 -56 -71s-50.5 -32 -81.5 -41
s-63.5 -13.5 -97.5 -13.5c-11.333 0 -24.166 0.166992 -38.499 0.5s-29.333 1.16602 -45 2.49902s-31 2.83301 -46 4.5s-28.833 4.16699 -41.5 7.5v693zM265.999 63.999c21.333 0 41.668 3 61.001 9s36.166 14.833 50.499 26.5s25.666 26.5 33.999 44.5s12.5 39 12.5 63
c0 30.667 -4.83301 55.5 -14.5 74.5s-22.5 33.833 -38.5 44.5s-34.5 17.834 -55.5 21.501s-42.833 5.5 -65.5 5.5c-6 0 -13 -0.333008 -21 -1l-24 -2c-8 -0.666992 -15.333 -1.5 -22 -2.5s-11.667 -1.83301 -15 -2.5v-275c4.66699 -1.33301 10.834 -2.33301 18.501 -3
s16 -1.33398 25 -2.00098s18.167 -1 27.5 -1h27z" />
    <glyph glyph-name="afii10019" unicode="&#x412;" horiz-adv-x="584" 
d="M507 540c0 -16.667 -2.66602 -33.668 -7.99902 -51.001s-13.333 -33.5 -24 -48.5s-24.334 -28.167 -41.001 -39.5s-36.334 -20 -59.001 -26v-4c20 -3.33301 39.167 -9 57.5 -17s34.5 -19 48.5 -33s25.333 -31 34 -51s13 -43.667 13 -71c0 -36 -7.5 -67.167 -22.5 -93.5
s-34.667 -47.833 -59 -64.5s-52.166 -29 -83.499 -37s-63.333 -12 -96 -12h-40c-15.333 0 -31.333 0.5 -48 1.5s-33.334 2.33301 -50.001 4s-31.334 4.16699 -44.001 7.5v689c24.667 4 53.334 7.33301 86.001 10s68.334 4 107.001 4c26 0 52.5 -2.16699 79.5 -6.5
s51.5 -12.666 73.5 -24.999s40.167 -29.5 54.5 -51.5s21.5 -50.333 21.5 -85zM275.001 63.999c21.333 0 41.999 2.50195 61.999 7.50195s37.667 13 53 24s27.5 24.5 36.5 40.5s13.5 35 13.5 57c0 27.333 -5.5 49.333 -16.5 66s-25.333 29.667 -43 39
s-37.5 15.666 -59.5 18.999s-44 5 -66 5h-87v-251c4.66699 -1.33301 11.334 -2.33301 20.001 -3s18 -1.33398 28 -2.00098s20.333 -1.16699 31 -1.5s20 -0.5 28 -0.5zM220 392.001c11.333 0 24.999 0.332031 40.999 0.999023s29.333 1.66699 40 3
c16 5.33301 31 11.833 45 19.5s26.5 16.667 37.5 27s19.667 22.333 26 36s9.5 28.5 9.5 44.5c0 22 -4.16699 40.167 -12.5 54.5s-19.5 25.833 -33.5 34.5s-30 14.834 -48 18.501s-36.333 5.5 -55 5.5c-22 0 -42.167 -0.5 -60.5 -1.5s-32.166 -2.5 -41.499 -4.5v-238h52z" />
    <glyph glyph-name="afii10020" unicode="&#x413;" horiz-adv-x="442" 
d="M460 626h-292v-626h-83v700h375v-74z" />
    <glyph glyph-name="afii10021" unicode="&#x414;" horiz-adv-x="669" 
d="M641 -129h-57l-15 129h-491l-15 -129h-58v203h71c5.33301 7.33301 13.5 24.5 24.5 51.5s22 65.667 33 116s20.833 113.333 29.5 189s13 165.5 13 269.5h374v-626h91v-203zM467 74v552h-213c-2 -73.333 -5.83301 -139.333 -11.5 -198s-12.5 -110.5 -20.5 -155.5
s-17 -83.833 -27 -116.5s-20.333 -60 -31 -82h303z" />
    <glyph glyph-name="afii10022" unicode="&#x415;" 
d="M85 700h381v-74h-298v-229h273v-74h-273v-249h303v-74h-386v700z" />
    <glyph glyph-name="afii10024" unicode="&#x416;" horiz-adv-x="806" 
d="M358 700h80v-326l43 14l203 312h92l-202 -304l-40 -32l50 -41l223 -323h-102l-221 324h-46v-324h-80v336l-42 -14l-221 -322h-96l221 313l48 38l-46 35l-209 314h97l203 -314h45v314z" />
    <glyph glyph-name="afii10025" unicode="&#x417;" horiz-adv-x="541" 
d="M139 331l0.00195312 69.998h16h22c8.66699 0 17.5 0.333008 26.5 1s17.667 1.16699 26 1.5s15.166 1.16602 20.499 2.49902c17.333 2.66699 33.666 7.16699 48.999 13.5s28.666 14.5 39.999 24.5s20.333 21.667 27 35s10 28 10 44c0 22 -3.66699 40.333 -11 55
s-17.5 26.5 -30.5 35.5s-28 15.333 -45 19s-35.167 5.5 -54.5 5.5c-36 0 -66.667 -2.5 -92 -7.5s-45.666 -11.167 -60.999 -18.5l-22 66c13.333 7.33301 37.333 14.833 72 22.5s73.667 11.5 117 11.5c26.667 0 52.834 -2.83301 78.501 -8.5s48.667 -15 69 -28
s36.666 -30.667 48.999 -53s18.5 -49.833 18.5 -82.5c0 -33.333 -11 -65.166 -33 -95.499s-55 -52.166 -99 -65.499v-4c47.333 -6.66699 84.666 -24.334 111.999 -53.001s41 -67 41 -115c0 -38 -7.5 -70.833 -22.5 -98.5s-34.667 -50.5 -59 -68.5s-52.333 -31.167 -84 -39.5
s-63.834 -12.5 -96.501 -12.5c-44 0 -80.167 2.5 -108.5 7.5s-51.833 11.167 -70.5 18.5l21 75c15.333 -7.33301 36.833 -13.666 64.5 -18.999s61.167 -8 100.5 -8c20.667 0 41 2.83301 61 8.5s37.833 14.334 53.5 26.001s28.334 26.167 38.001 43.5s14.5 38 14.5 62
c0 42 -14.667 72.833 -44 92.5s-67.666 31.167 -114.999 34.5c-8 0.666992 -15.5 1.16699 -22.5 1.5s-14.167 0.5 -21.5 0.5h-55z" />
    <glyph glyph-name="afii10026" unicode="&#x418;" horiz-adv-x="681" 
d="M513 474l6 80h-4l-43 -82l-338 -472h-49v700h83v-480l-7 -79h4l44 82l338 477h49v-700h-83v474z" />
    <glyph glyph-name="afii10027" unicode="&#x419;" horiz-adv-x="681" 
d="M513 474l6 80h-4l-43 -82l-338 -472h-49v700h83v-480l-7 -79h4l44 82l338 477h49v-700h-83v474zM258 870c2.66699 -24.667 11.9951 -43.667 27.9951 -57s37.333 -20 64 -20s47.834 6.66699 63.501 20s25.167 32 28.5 56l71 -17c-7.33301 -36 -24.166 -64.5 -50.499 -85.5
s-64.166 -31.5 -113.499 -31.5c-47.333 0 -86.166 9.16699 -116.499 27.5s-48.166 47.5 -53.499 87.5z" />
    <glyph glyph-name="afii10028" unicode="&#x41a;" horiz-adv-x="610" 
d="M215 324h-47v-324h-83v700h83v-326l45 14l235 312h96l-234 -301l-42 -33l51 -40l256 -326h-105z" />
    </font>
</defs>
</svg>
